<?xml version="1.0" encoding="us-ascii" standalone="no"?><svg xmlns="http://www.w3.org/2000/svg" xmlns:xlink="http://www.w3.org/1999/xlink" contentStyleType="text/css" height="877px" preserveAspectRatio="none" style="width:580px;height:877px;background:#FFFFFF;" version="1.1" viewBox="0 0 580 877" width="580px" zoomAndPan="magnify"><defs/><g><text fill="#000000" font-family="sans-serif" font-size="14" font-weight="bold" lengthAdjust="spacing" textLength="203" x="181.5" y="22.9951">Document Model Address</text><!--cluster Address--><g id="cluster_Address"><rect fill="none" height="827" rx="2.5" ry="2.5" style="stroke:#181818;stroke-width:1.0;" width="567" x="7" y="44.2969"/><path d="M83,44.2969 L83,53.5938 L73,63.5938 L7,63.5938 " fill="none" style="stroke:#181818;stroke-width:1.0;"/><text fill="#000000" font-family="sans-serif" font-size="14" font-weight="bold" lengthAdjust="spacing" textLength="66" x="10" y="58.292">Address</text></g><!--entity AddressDocumentRoot--><g id="elem_AddressDocumentRoot"><ellipse cx="83" cy="463.2969" fill="#F1F1F1" rx="8" ry="8" style="stroke:#181818;stroke-width:0.5;"/><text fill="#000000" font-family="sans-serif" font-size="14" lengthAdjust="spacing" textLength="104" x="31" y="493.292">documentRoot</text></g><!--class group_48575--><g id="elem_group_48575"><rect codeLine="3" fill="#F1F1F1" height="48" id="group_48575" rx="2.5" ry="2.5" style="stroke:#181818;stroke-width:0.5;" width="122" x="203" y="439.2969"/><ellipse cx="218" cy="455.2969" fill="#DDAAFF" rx="11" ry="11" style="stroke:#181818;stroke-width:1.0;"/><path d="M219.2344,459.0625 L219.2344,456.6875 L217.5625,456.6875 L217.5625,454.625 L221.375,454.625 L221.375,460.3125 Q220.6719,460.9219 219.8125,461.2344 Q218.9688,461.5313 218,461.5313 Q215.5938,461.5313 214.2813,459.8594 Q212.9688,458.1875 212.9688,455.1094 Q212.9688,451.9844 214.2969,450.3281 Q215.625,448.6719 218.125,448.6719 Q218.8594,448.6719 219.5781,448.8906 Q220.3125,449.1094 220.9375,449.5 L220.9375,452.2188 Q220.4219,451.5469 219.75,451.2188 Q219.0938,450.875 218.2969,450.875 Q216.8906,450.875 216.2031,451.9375 Q215.5156,452.9844 215.5156,455.1094 Q215.5156,457.1719 216.1719,458.2656 Q216.8438,459.3438 218.125,459.3438 Q218.5,459.3438 218.7813,459.2813 Q219.0625,459.2031 219.2344,459.0625 Z " fill="#000000"/><text fill="#000000" font-family="sans-serif" font-size="14" lengthAdjust="spacing" textLength="90" x="232" y="460.1436">AddressRoot</text><line style="stroke:#181818;stroke-width:0.5;" x1="204" x2="324" y1="471.2969" y2="471.2969"/><line style="stroke:#181818;stroke-width:0.5;" x1="204" x2="324" y1="479.2969" y2="479.2969"/></g><!--class field_a48cs--><g id="elem_field_a48cs"><rect codeLine="11" fill="#FFFFFF" height="56.2656" id="field_a48cs" rx="2.5" ry="2.5" style="stroke:#181818;stroke-width:0.5;" width="152" x="395.5" y="799.2969"/><ellipse cx="410.5" cy="819.4297" fill="#DDFFAA" rx="11" ry="11" style="stroke:#181818;stroke-width:1.0;"/><path d="M414.7344,815.1953 L409.4531,815.1953 L409.4531,817.8672 L414.25,817.8672 L414.25,820.0234 L409.4531,820.0234 L409.4531,825.4297 L407.0156,825.4297 L407.0156,813.0391 L414.7344,813.0391 L414.7344,815.1953 Z " fill="#000000"/><text fill="#000000" font-family="sans-serif" font-size="12" font-style="italic" lengthAdjust="spacing" textLength="124" x="422.5" y="815.4355">&#171;EnumerationType&#187;</text><text fill="#000000" font-family="sans-serif" font-size="14" lengthAdjust="spacing" textLength="91" x="439" y="831.2607">AddressType</text><line style="stroke:#181818;stroke-width:0.5;" x1="396.5" x2="546.5" y1="839.5625" y2="839.5625"/><line style="stroke:#181818;stroke-width:0.5;" x1="396.5" x2="546.5" y1="847.5625" y2="847.5625"/></g><!--class field_c51b9--><g id="elem_field_c51b9"><rect codeLine="11" fill="#FFFFFF" height="56.2656" id="field_c51b9" rx="2.5" ry="2.5" style="stroke:#181818;stroke-width:0.5;" width="109" x="417" y="708.2969"/><ellipse cx="432" cy="728.4297" fill="#DDFFAA" rx="11" ry="11" style="stroke:#181818;stroke-width:1.0;"/><path d="M436.2344,724.1953 L430.9531,724.1953 L430.9531,726.8672 L435.75,726.8672 L435.75,729.0234 L430.9531,729.0234 L430.9531,734.4297 L428.5156,734.4297 L428.5156,722.0391 L436.2344,722.0391 L436.2344,724.1953 Z " fill="#000000"/><text fill="#000000" font-family="sans-serif" font-size="12" font-style="italic" lengthAdjust="spacing" textLength="81" x="444" y="724.4355">&#171;StringType&#187;</text><text fill="#000000" font-family="sans-serif" font-size="14" lengthAdjust="spacing" textLength="58" x="455.5" y="740.2607">Location</text><line style="stroke:#181818;stroke-width:0.5;" x1="418" x2="525" y1="748.5625" y2="748.5625"/><line style="stroke:#181818;stroke-width:0.5;" x1="418" x2="525" y1="756.5625" y2="756.5625"/></g><!--class field_7bc6c--><g id="elem_field_7bc6c"><rect codeLine="11" fill="#FFFFFF" height="56.2656" id="field_7bc6c" rx="2.5" ry="2.5" style="stroke:#181818;stroke-width:0.5;" width="109" x="417" y="617.2969"/><ellipse cx="432" cy="637.4297" fill="#DDFFAA" rx="11" ry="11" style="stroke:#181818;stroke-width:1.0;"/><path d="M436.2344,633.1953 L430.9531,633.1953 L430.9531,635.8672 L435.75,635.8672 L435.75,638.0234 L430.9531,638.0234 L430.9531,643.4297 L428.5156,643.4297 L428.5156,631.0391 L436.2344,631.0391 L436.2344,633.1953 Z " fill="#000000"/><text fill="#000000" font-family="sans-serif" font-size="12" font-style="italic" lengthAdjust="spacing" textLength="81" x="444" y="633.4355">&#171;StringType&#187;</text><text fill="#000000" font-family="sans-serif" font-size="14" lengthAdjust="spacing" textLength="42" x="463.5" y="649.2607">Street</text><line style="stroke:#181818;stroke-width:0.5;" x1="418" x2="525" y1="657.5625" y2="657.5625"/><line style="stroke:#181818;stroke-width:0.5;" x1="418" x2="525" y1="665.5625" y2="665.5625"/></g><!--class field_38cf3--><g id="elem_field_38cf3"><rect codeLine="11" fill="#FFFFFF" height="56.2656" id="field_38cf3" rx="2.5" ry="2.5" style="stroke:#181818;stroke-width:0.5;" width="132" x="405.5" y="526.2969"/><ellipse cx="420.5" cy="546.4297" fill="#DDFFAA" rx="11" ry="11" style="stroke:#181818;stroke-width:1.0;"/><path d="M424.7344,542.1953 L419.4531,542.1953 L419.4531,544.8672 L424.25,544.8672 L424.25,547.0234 L419.4531,547.0234 L419.4531,552.4297 L417.0156,552.4297 L417.0156,540.0391 L424.7344,540.0391 L424.7344,542.1953 Z " fill="#000000"/><text fill="#000000" font-family="sans-serif" font-size="12" font-style="italic" lengthAdjust="spacing" textLength="81" x="444" y="542.4355">&#171;StringType&#187;</text><text fill="#000000" font-family="sans-serif" font-size="14" lengthAdjust="spacing" textLength="100" x="434.5" y="558.2607">HouseNumber</text><line style="stroke:#181818;stroke-width:0.5;" x1="406.5" x2="536.5" y1="566.5625" y2="566.5625"/><line style="stroke:#181818;stroke-width:0.5;" x1="406.5" x2="536.5" y1="574.5625" y2="574.5625"/></g><!--class field_42965--><g id="elem_field_42965"><rect codeLine="11" fill="#FFFFFF" height="56.2656" id="field_42965" rx="2.5" ry="2.5" style="stroke:#181818;stroke-width:0.5;" width="109" x="417" y="435.2969"/><ellipse cx="432" cy="455.4297" fill="#DDFFAA" rx="11" ry="11" style="stroke:#181818;stroke-width:1.0;"/><path d="M436.2344,451.1953 L430.9531,451.1953 L430.9531,453.8672 L435.75,453.8672 L435.75,456.0234 L430.9531,456.0234 L430.9531,461.4297 L428.5156,461.4297 L428.5156,449.0391 L436.2344,449.0391 L436.2344,451.1953 Z " fill="#000000"/><text fill="#000000" font-family="sans-serif" font-size="12" font-style="italic" lengthAdjust="spacing" textLength="81" x="444" y="451.4355">&#171;StringType&#187;</text><text fill="#000000" font-family="sans-serif" font-size="14" lengthAdjust="spacing" textLength="25" x="472" y="467.2607">City</text><line style="stroke:#181818;stroke-width:0.5;" x1="418" x2="525" y1="475.5625" y2="475.5625"/><line style="stroke:#181818;stroke-width:0.5;" x1="418" x2="525" y1="483.5625" y2="483.5625"/></g><!--class field_623a3--><g id="elem_field_623a3"><rect codeLine="11" fill="#FFFFFF" height="56.2656" id="field_623a3" rx="2.5" ry="2.5" style="stroke:#181818;stroke-width:0.5;" width="109" x="417" y="344.2969"/><ellipse cx="432" cy="364.4297" fill="#DDFFAA" rx="11" ry="11" style="stroke:#181818;stroke-width:1.0;"/><path d="M436.2344,360.1953 L430.9531,360.1953 L430.9531,362.8672 L435.75,362.8672 L435.75,365.0234 L430.9531,365.0234 L430.9531,370.4297 L428.5156,370.4297 L428.5156,358.0391 L436.2344,358.0391 L436.2344,360.1953 Z " fill="#000000"/><text fill="#000000" font-family="sans-serif" font-size="12" font-style="italic" lengthAdjust="spacing" textLength="81" x="444" y="360.4355">&#171;StringType&#187;</text><text fill="#000000" font-family="sans-serif" font-size="14" lengthAdjust="spacing" textLength="68" x="450.5" y="376.2607">PostCode</text><line style="stroke:#181818;stroke-width:0.5;" x1="418" x2="525" y1="384.5625" y2="384.5625"/><line style="stroke:#181818;stroke-width:0.5;" x1="418" x2="525" y1="392.5625" y2="392.5625"/></g><!--class field_804c7--><g id="elem_field_804c7"><rect codeLine="11" fill="#FFFFFF" height="56.2656" id="field_804c7" rx="2.5" ry="2.5" style="stroke:#181818;stroke-width:0.5;" width="109" x="417" y="253.2969"/><ellipse cx="432" cy="273.4297" fill="#DDFFAA" rx="11" ry="11" style="stroke:#181818;stroke-width:1.0;"/><path d="M436.2344,269.1953 L430.9531,269.1953 L430.9531,271.8672 L435.75,271.8672 L435.75,274.0234 L430.9531,274.0234 L430.9531,279.4297 L428.5156,279.4297 L428.5156,267.0391 L436.2344,267.0391 L436.2344,269.1953 Z " fill="#000000"/><text fill="#000000" font-family="sans-serif" font-size="12" font-style="italic" lengthAdjust="spacing" textLength="81" x="444" y="269.4355">&#171;StringType&#187;</text><text fill="#000000" font-family="sans-serif" font-size="14" lengthAdjust="spacing" textLength="54" x="457.5" y="285.2607">Country</text><line style="stroke:#181818;stroke-width:0.5;" x1="418" x2="525" y1="293.5625" y2="293.5625"/><line style="stroke:#181818;stroke-width:0.5;" x1="418" x2="525" y1="301.5625" y2="301.5625"/></g><!--class field_ce1e7--><g id="elem_field_ce1e7"><rect codeLine="11" fill="#FFFFFF" height="56.2656" id="field_ce1e7" rx="2.5" ry="2.5" style="stroke:#181818;stroke-width:0.5;" width="131" x="406" y="162.2969"/><ellipse cx="421" cy="182.4297" fill="#DDFFAA" rx="11" ry="11" style="stroke:#181818;stroke-width:1.0;"/><path d="M425.2344,178.1953 L419.9531,178.1953 L419.9531,180.8672 L424.75,180.8672 L424.75,183.0234 L419.9531,183.0234 L419.9531,188.4297 L417.5156,188.4297 L417.5156,176.0391 L425.2344,176.0391 L425.2344,178.1953 Z " fill="#000000"/><text fill="#000000" font-family="sans-serif" font-size="12" font-style="italic" lengthAdjust="spacing" textLength="91" x="439" y="178.4355">&#171;ConfirmType&#187;</text><text fill="#000000" font-family="sans-serif" font-size="14" lengthAdjust="spacing" textLength="99" x="435" y="194.2607">PostalAddress</text><line style="stroke:#181818;stroke-width:0.5;" x1="407" x2="536" y1="202.5625" y2="202.5625"/><line style="stroke:#181818;stroke-width:0.5;" x1="407" x2="536" y1="210.5625" y2="210.5625"/></g><!--class rule_7c66e--><g id="elem_rule_7c66e"><rect codeLine="19" fill="#FFDDEE" height="48" id="rule_7c66e" rx="2.5" ry="2.5" style="stroke:#181818;stroke-width:0.5;" width="173" x="385" y="79.2969"/><ellipse cx="400" cy="95.2969" fill="#DDBBAA" rx="11" ry="11" style="stroke:#181818;stroke-width:1.0;"/><path d="M401.2031,95.4375 Q401.5625,95.5156 401.8281,95.7969 Q402.1094,96.0625 402.5,96.8438 L404.7344,101.2969 L402.0469,101.2969 L400.5469,98.1719 Q400.4844,98.0313 400.375,97.7969 Q399.7188,96.4063 398.8281,96.4063 L398.0469,96.4063 L398.0469,101.2969 L395.6094,101.2969 L395.6094,88.9063 L399.1406,88.9063 Q401.5313,88.9063 402.5625,89.75 Q403.6094,90.5938 403.6094,92.5 Q403.6094,93.7813 402.9844,94.5469 Q402.375,95.2969 401.2031,95.4375 Z M398.0469,90.9688 L398.0469,94.3438 L399.2031,94.3438 Q400.2188,94.3438 400.6406,93.9531 Q401.0781,93.5469 401.0781,92.6406 Q401.0781,91.75 400.6406,91.3594 Q400.2188,90.9688 399.2031,90.9688 L398.0469,90.9688 Z " fill="#000000"/><text fill="#000000" font-family="sans-serif" font-size="14" lengthAdjust="spacing" textLength="141" x="414" y="100.1436">MustContainCountry</text><line style="stroke:#181818;stroke-width:0.5;" x1="386" x2="557" y1="111.2969" y2="111.2969"/><line style="stroke:#181818;stroke-width:0.5;" x1="386" x2="557" y1="119.2969" y2="119.2969"/></g><!--link group_48575 to field_a48cs--><g id="link_group_48575_field_a48cs"><path codeLine="82" d="M274.12,487.4569 C302.12,561.6669 385,781.2969 385,781.2969 C385,781.2969 400.5,789.6369 418.3,799.2169 " fill="none" id="group_48575-field_a48cs" style="stroke:#181818;stroke-width:1.0;"/></g><!--link group_48575 to field_c51b9--><g id="link_group_48575_field_c51b9"><path codeLine="84" d="M277.84,487.5869 C308.8,546.1469 385,690.2969 385,690.2969 C385,690.2969 400.5,698.6369 418.3,708.2169 " fill="none" id="group_48575-field_c51b9" style="stroke:#181818;stroke-width:1.0;"/></g><!--link group_48575 to field_7bc6c--><g id="link_group_48575_field_7bc6c"><path codeLine="86" d="M286.18,487.2969 C320.63,526.3369 385,599.2969 385,599.2969 C385,599.2969 400.5,607.6369 418.3,617.2169 " fill="none" id="group_48575-field_7bc6c" style="stroke:#181818;stroke-width:1.0;"/></g><!--link group_48575 to field_38cf3--><g id="link_group_48575_field_38cf3"><path codeLine="88" d="M319.26,487.3269 C346.25,499.2769 379.04,513.7969 407.18,526.2569 " fill="none" id="group_48575-field_38cf3" style="stroke:#181818;stroke-width:1.0;"/></g><!--link group_48575 to field_42965--><g id="link_group_48575_field_42965"><path codeLine="90" d="M325.27,463.2969 C354.28,463.2969 388.79,463.2969 416.88,463.2969 " fill="none" id="group_48575-field_42965" style="stroke:#181818;stroke-width:1.0;"/></g><!--link group_48575 to field_623a3--><g id="link_group_48575_field_623a3"><path codeLine="92" d="M319.26,439.2669 C349.35,425.9469 386.63,409.4369 416.65,396.1469 " fill="none" id="group_48575-field_623a3" style="stroke:#181818;stroke-width:1.0;"/></g><!--link group_48575 to field_804c7--><g id="link_group_48575_field_804c7"><path codeLine="94" d="M286.18,439.1169 C320.63,399.7869 385,326.2969 385,326.2969 C385,326.2969 399.66,318.5769 416.84,309.5369 " fill="none" id="group_48575-field_804c7" style="stroke:#181818;stroke-width:1.0;"/></g><!--link group_48575 to field_ce1e7--><g id="link_group_48575_field_ce1e7"><path codeLine="96" d="M277.84,438.8969 C308.8,380.0769 385,235.2969 385,235.2969 C385,235.2969 399.66,227.5769 416.84,218.5369 " fill="none" id="group_48575-field_ce1e7" style="stroke:#181818;stroke-width:1.0;"/></g><!--link group_48575 to rule_7c66e--><g id="link_group_48575_rule_7c66e"><path codeLine="99" d="M274.12,439.0569 C302.12,364.6169 385,144.2969 385,144.2969 C385,144.2969 401.66,136.3069 420.27,127.3869 " fill="none" id="group_48575-rule_7c66e" style="stroke:#181818;stroke-width:1.0;"/></g><!--link AddressDocumentRoot to group_48575--><g id="link_AddressDocumentRoot_group_48575"><path codeLine="101" d="M100.16,463.2969 C119.51,463.2969 146.67,463.2969 187.66,463.2969 " fill="none" id="AddressDocumentRoot-group_48575" style="stroke:#181818;stroke-width:1.0;"/><line style="stroke:#181818;stroke-width:1.0;" x1="96.16" x2="96.16" y1="467.2969" y2="459.2969"/><line style="stroke:#181818;stroke-width:1.0;" x1="99.16" x2="99.16" y1="467.2969" y2="459.2969"/><line style="stroke:#181818;stroke-width:1.0;" x1="100.16" x2="92.16" y1="463.2969" y2="463.2969"/><line style="stroke:#181818;stroke-width:1.0;" x1="191.66" x2="202.66" y1="463.2969" y2="463.2969"/><ellipse cx="191.66" cy="463.2969" fill="none" rx="4" ry="4" style="stroke:#181818;stroke-width:1.0;"/><line style="stroke:#181818;stroke-width:1.0;" x1="198.66" x2="198.66" y1="459.2969" y2="467.2969"/><text fill="#000000" font-family="sans-serif" font-size="13" lengthAdjust="spacing" textLength="24" x="171.0968" y="476.1441">0..1</text></g></g></svg>