<svg xmlns="http://www.w3.org/2000/svg" xmlns:xlink="http://www.w3.org/1999/xlink" contentStyleType="text/css" data-diagram-type="CLASS" height="1076px" preserveAspectRatio="none" style="width:620px;height:1076px;background:#FFFFFF;" version="1.1" viewBox="0 0 620 1076" width="620px" zoomAndPan="magnify"><?plantuml 1.2026.6?><defs/><g><g class="title" data-source-line="76"><text fill="#000000" font-family="sans-serif" font-size="14" font-weight="700" lengthAdjust="spacing" textLength="581.2666" x="16.2717" y="23.5352">Compose Document Model AnonymizedBusinessPartnerCDM&lt;BusinessPartner}&gt;</text></g><!--cluster AnonymizedBusinessPartnerCDM--><g class="cluster" data-qualified-name="AnonymizedBusinessPartnerCDM" data-source-line="78" id="ent0001"><rect fill="none" height="1018" rx="2.5" ry="2.5" style="stroke:#181818;stroke-width:1;" width="599.81" x="7" y="44.4883"/><path d="M395.3896,44.4883 L395.3896,53.9766 L385.3896,63.9766 L7,63.9766" fill="none" style="stroke:#181818;stroke-width:1;"/><text fill="#000000" font-family="sans-serif" font-size="14" font-weight="700" lengthAdjust="spacing" textLength="378.3896" x="10" y="59.0234">AnonymizedBusinessPartnerCDM&lt;BusinessPartner&gt;</text></g><!--entity AnonymizedBusinessPartnerCDMDocumentRoot--><g class="entity" data-qualified-name="AnonymizedBusinessPartnerCDM.AnonymizedBusinessPartnerCDMDocumentRoot" data-source-line="79" id="ent0002"><ellipse cx="80" cy="650.4883" fill="#F1F1F1" rx="8" ry="8" style="stroke:#181818;stroke-width:0.5;"/><text fill="#000000" font-family="sans-serif" font-size="14" lengthAdjust="spacing" textLength="99.3535" x="30.3232" y="681.0234">documentRoot</text></g><!--class group_36405--><g class="entity" data-qualified-name="AnonymizedBusinessPartnerCDM.group_36405" data-source-line="3" id="ent0003"><rect fill="#F1F1F1" height="48" rx="2.5" ry="2.5" style="stroke:#181818;stroke-width:0.5;" width="170.626" x="197" y="856.4883"/><ellipse cx="212" cy="872.4883" fill="#DDAAFF" rx="11" ry="11" style="stroke:#181818;stroke-width:1;"/><path d="M213.2383,876.7471 L213.2383,874.3813 L211.5615,874.3813 L211.5615,872.3228 L215.3799,872.3228 L215.3799,878.0005 Q214.6743,878.6064 213.8235,878.9177 Q212.9727,879.229 212.0015,879.229 Q209.5942,879.229 208.2827,877.5564 Q206.9712,875.8838 206.9712,872.8042 Q206.9712,869.6748 208.2952,868.0229 Q209.6191,866.3711 212.1177,866.3711 Q212.8647,866.3711 213.5869,866.5828 Q214.3091,866.7944 214.9399,867.1929 L214.9399,869.9072 Q214.4253,869.2432 213.7571,868.907 Q213.0889,868.5708 212.292,868.5708 Q210.8975,868.5708 210.2085,869.6208 Q209.5195,870.6709 209.5195,872.8042 Q209.5195,874.8711 210.1836,875.9502 Q210.8477,877.0293 212.1177,877.0293 Q212.4995,877.0293 212.7817,876.9587 Q213.064,876.8882 213.2383,876.7471 Z " fill="#000000"/><text fill="#000000" font-family="sans-serif" font-size="14" lengthAdjust="spacing" textLength="138.626" x="226" y="877.7793">BusinessPartnerRoot</text><line style="stroke:#181818;stroke-width:0.5;" x1="198" x2="366.626" y1="888.4883" y2="888.4883"/><line style="stroke:#181818;stroke-width:0.5;" x1="198" x2="366.626" y1="896.4883" y2="896.4883"/></g><!--class field_d6580--><g class="entity" data-qualified-name="AnonymizedBusinessPartnerCDM.field_d6580" data-source-line="11" id="ent0004"><rect fill="#FFFFFF" height="56.6211" rx="2.5" ry="2.5" style="stroke:#181818;stroke-width:0.5;" width="102.9297" x="457.75" y="990.1783"/><ellipse cx="472.75" cy="1010.4888" fill="#DDFFAA" rx="11" ry="11" style="stroke:#181818;stroke-width:1;"/><path d="M476.4805,1006.754 L471.2095,1006.754 L471.2095,1009.4268 L476.0073,1009.4268 L476.0073,1011.585 L471.2095,1011.585 L471.2095,1016.9888 L468.7607,1016.9888 L468.7607,1004.5958 L476.4805,1004.5958 Z " fill="#000000"/><text fill="#000000" font-family="sans-serif" font-size="12" font-style="italic" lengthAdjust="spacing" textLength="74.9297" x="484.75" y="1006.7798">&#171;StringType&#187;</text><text fill="#000000" font-family="sans-serif" font-size="14" lengthAdjust="spacing" textLength="55.6377" x="494.396" y="1022.8463">Industry</text><line style="stroke:#181818;stroke-width:0.5;" x1="458.75" x2="559.6797" y1="1030.7994" y2="1030.7994"/><line style="stroke:#181818;stroke-width:0.5;" x1="458.75" x2="559.6797" y1="1038.7994" y2="1038.7994"/></g><!--class field_663d2--><g class="entity" data-qualified-name="AnonymizedBusinessPartnerCDM.field_663d2" data-source-line="11" id="ent0006"><rect fill="#FFFFFF" height="56.6211" rx="2.5" ry="2.5" style="stroke:#181818;stroke-width:0.5;" width="163.1816" x="427.63" y="898.1783"/><ellipse cx="442.63" cy="918.4888" fill="#DDFFAA" rx="11" ry="11" style="stroke:#181818;stroke-width:1;"/><path d="M446.3605,914.754 L441.0895,914.754 L441.0895,917.4268 L445.8873,917.4268 L445.8873,919.585 L441.0895,919.585 L441.0895,924.9888 L438.6407,924.9888 L438.6407,912.5958 L446.3605,912.5958 Z " fill="#000000"/><text fill="#000000" font-family="sans-serif" font-size="12" font-style="italic" lengthAdjust="spacing" textLength="67.459" x="488.4913" y="914.7798">&#171;DateType&#187;</text><text fill="#000000" font-family="sans-serif" font-size="14" lengthAdjust="spacing" textLength="131.1816" x="456.63" y="930.8463">StartOfRelationship</text><line style="stroke:#181818;stroke-width:0.5;" x1="428.63" x2="589.8116" y1="938.7994" y2="938.7994"/><line style="stroke:#181818;stroke-width:0.5;" x1="428.63" x2="589.8116" y1="946.7994" y2="946.7994"/></g><!--class field_74a24--><g class="entity" data-qualified-name="AnonymizedBusinessPartnerCDM.field_74a24" data-source-line="11" id="ent0008"><rect fill="#FFFFFF" height="56.6211" rx="2.5" ry="2.5" style="stroke:#181818;stroke-width:0.5;" width="158" x="430.22" y="806.1783"/><ellipse cx="445.22" cy="826.4888" fill="#DDFFAA" rx="11" ry="11" style="stroke:#181818;stroke-width:1;"/><path d="M448.9505,822.754 L443.6795,822.754 L443.6795,825.4268 L448.4773,825.4268 L448.4773,827.585 L443.6795,827.585 L443.6795,832.9888 L441.2307,832.9888 L441.2307,820.5958 L448.9505,820.5958 Z " fill="#000000"/><text fill="#000000" font-family="sans-serif" font-size="12" font-style="italic" lengthAdjust="spacing" textLength="114.2695" x="465.0852" y="822.7798">&#171;EnumerationType&#187;</text><text fill="#000000" font-family="sans-serif" font-size="14" lengthAdjust="spacing" textLength="126" x="459.22" y="838.8463">CustomerDiscount</text><line style="stroke:#181818;stroke-width:0.5;" x1="431.22" x2="587.22" y1="846.7994" y2="846.7994"/><line style="stroke:#181818;stroke-width:0.5;" x1="431.22" x2="587.22" y1="854.7994" y2="854.7994"/></g><!--class abc6a6767a60488754aace2accb73824_group_8f4b1--><g class="entity" data-qualified-name="AnonymizedBusinessPartnerCDM.abc6a6767a60488754aace2accb73824_group_8f4b1" data-source-line="3" id="ent0011"><rect fill="#F1F1F1" height="48" rx="2.5" ry="2.5" style="stroke:#181818;stroke-width:0.5;" width="79.8379" x="242.39" y="442.4883"/><ellipse cx="257.39" cy="458.4883" fill="#DDAAFF" rx="11" ry="11" style="stroke:#181818;stroke-width:1;"/><path d="M258.6283,462.7471 L258.6283,460.3813 L256.9515,460.3813 L256.9515,458.3228 L260.7699,458.3228 L260.7699,464.0005 Q260.0643,464.6064 259.2135,464.9177 Q258.3627,465.229 257.3915,465.229 Q254.9842,465.229 253.6727,463.5564 Q252.3612,461.8838 252.3612,458.8042 Q252.3612,455.6748 253.6852,454.0229 Q255.0091,452.3711 257.5077,452.3711 Q258.2547,452.3711 258.9769,452.5828 Q259.6991,452.7944 260.3299,453.1929 L260.3299,455.9072 Q259.8153,455.2432 259.1471,454.907 Q258.4789,454.5708 257.682,454.5708 Q256.2875,454.5708 255.5985,455.6208 Q254.9095,456.6709 254.9095,458.8042 Q254.9095,460.8711 255.5736,461.9502 Q256.2377,463.0293 257.5077,463.0293 Q257.8895,463.0293 258.1717,462.9587 Q258.454,462.8882 258.6283,462.7471 Z " fill="#000000"/><text fill="#000000" font-family="sans-serif" font-size="14" lengthAdjust="spacing" textLength="47.8379" x="271.39" y="463.7793">__meta</text><line style="stroke:#181818;stroke-width:0.5;" x1="243.39" x2="321.2279" y1="474.4883" y2="474.4883"/><line style="stroke:#181818;stroke-width:0.5;" x1="243.39" x2="321.2279" y1="482.4883" y2="482.4883"/></g><!--class abc6a6767a60488754aace2accb73824_field_1169c--><g class="entity" data-qualified-name="AnonymizedBusinessPartnerCDM.abc6a6767a60488754aace2accb73824_field_1169c" data-source-line="11" id="ent0012"><rect fill="#FFFFFF" height="56.6211" rx="2.5" ry="2.5" style="stroke:#181818;stroke-width:0.5;" width="102.9297" x="457.75" y="714.1783"/><ellipse cx="472.75" cy="734.4888" fill="#DDFFAA" rx="11" ry="11" style="stroke:#181818;stroke-width:1;"/><path d="M476.4805,730.754 L471.2095,730.754 L471.2095,733.4268 L476.0073,733.4268 L476.0073,735.585 L471.2095,735.585 L471.2095,740.9888 L468.7607,740.9888 L468.7607,728.5958 L476.4805,728.5958 Z " fill="#000000"/><text fill="#000000" font-family="sans-serif" font-size="12" font-style="italic" lengthAdjust="spacing" textLength="74.9297" x="484.75" y="730.7798">&#171;StringType&#187;</text><text fill="#000000" font-family="sans-serif" font-size="14" lengthAdjust="spacing" textLength="46.3818" x="499.0239" y="746.8463">docRef</text><line style="stroke:#181818;stroke-width:0.5;" x1="458.75" x2="559.6797" y1="754.7994" y2="754.7994"/><line style="stroke:#181818;stroke-width:0.5;" x1="458.75" x2="559.6797" y1="762.7994" y2="762.7994"/></g><!--class abc6a6767a60488754aace2accb73824_field_cfb40--><g class="entity" data-qualified-name="AnonymizedBusinessPartnerCDM.abc6a6767a60488754aace2accb73824_field_cfb40" data-source-line="11" id="ent0014"><rect fill="#FFFFFF" height="56.6211" rx="2.5" ry="2.5" style="stroke:#181818;stroke-width:0.5;" width="141.1152" x="438.66" y="622.1783"/><ellipse cx="453.66" cy="642.4888" fill="#DDFFAA" rx="11" ry="11" style="stroke:#181818;stroke-width:1;"/><path d="M457.3905,638.754 L452.1195,638.754 L452.1195,641.4268 L456.9173,641.4268 L456.9173,643.585 L452.1195,643.585 L452.1195,648.9888 L449.6707,648.9888 L449.6707,636.5958 L457.3905,636.5958 Z " fill="#000000"/><text fill="#000000" font-family="sans-serif" font-size="12" font-style="italic" lengthAdjust="spacing" textLength="74.9297" x="484.7528" y="638.7798">&#171;StringType&#187;</text><text fill="#000000" font-family="sans-serif" font-size="14" lengthAdjust="spacing" textLength="109.1152" x="467.66" y="654.8463">modelReference</text><line style="stroke:#181818;stroke-width:0.5;" x1="439.66" x2="578.7752" y1="662.7994" y2="662.7994"/><line style="stroke:#181818;stroke-width:0.5;" x1="439.66" x2="578.7752" y1="670.7994" y2="670.7994"/></g><!--class abc6a6767a60488754aace2accb73824_field_17e3b--><g class="entity" data-qualified-name="AnonymizedBusinessPartnerCDM.abc6a6767a60488754aace2accb73824_field_17e3b" data-source-line="11" id="ent0016"><rect fill="#FFFFFF" height="56.6211" rx="2.5" ry="2.5" style="stroke:#181818;stroke-width:0.5;" width="125.4814" x="446.48" y="530.1783"/><ellipse cx="461.48" cy="550.4888" fill="#DDFFAA" rx="11" ry="11" style="stroke:#181818;stroke-width:1;"/><path d="M465.2105,546.754 L459.9395,546.754 L459.9395,549.4268 L464.7373,549.4268 L464.7373,551.585 L459.9395,551.585 L459.9395,556.9888 L457.4907,556.9888 L457.4907,544.5958 L465.2105,544.5958 Z " fill="#000000"/><text fill="#000000" font-family="sans-serif" font-size="12" font-style="italic" lengthAdjust="spacing" textLength="74.9297" x="484.7559" y="546.7798">&#171;StringType&#187;</text><text fill="#000000" font-family="sans-serif" font-size="14" lengthAdjust="spacing" textLength="93.4814" x="475.48" y="562.8463">modelVersion</text><line style="stroke:#181818;stroke-width:0.5;" x1="447.48" x2="570.9614" y1="570.7994" y2="570.7994"/><line style="stroke:#181818;stroke-width:0.5;" x1="447.48" x2="570.9614" y1="578.7994" y2="578.7994"/></g><!--class abc6a6767a60488754aace2accb73824_field_cdaf9--><g class="entity" data-qualified-name="AnonymizedBusinessPartnerCDM.abc6a6767a60488754aace2accb73824_field_cdaf9" data-source-line="11" id="ent0018"><rect fill="#FFFFFF" height="56.6211" rx="2.5" ry="2.5" style="stroke:#181818;stroke-width:0.5;" width="102.9297" x="457.75" y="438.1783"/><ellipse cx="472.75" cy="458.4888" fill="#DDFFAA" rx="11" ry="11" style="stroke:#181818;stroke-width:1;"/><path d="M476.4805,454.754 L471.2095,454.754 L471.2095,457.4268 L476.0073,457.4268 L476.0073,459.585 L471.2095,459.585 L471.2095,464.9888 L468.7607,464.9888 L468.7607,452.5958 L476.4805,452.5958 Z " fill="#000000"/><text fill="#000000" font-family="sans-serif" font-size="12" font-style="italic" lengthAdjust="spacing" textLength="74.9297" x="484.75" y="454.7798">&#171;StringType&#187;</text><text fill="#000000" font-family="sans-serif" font-size="14" lengthAdjust="spacing" textLength="47.9951" x="498.2173" y="470.8463">creator</text><line style="stroke:#181818;stroke-width:0.5;" x1="458.75" x2="559.6797" y1="478.7994" y2="478.7994"/><line style="stroke:#181818;stroke-width:0.5;" x1="458.75" x2="559.6797" y1="486.7994" y2="486.7994"/></g><!--class abc6a6767a60488754aace2accb73824_field_65672--><g class="entity" data-qualified-name="AnonymizedBusinessPartnerCDM.abc6a6767a60488754aace2accb73824_field_65672" data-source-line="11" id="ent0020"><rect fill="#FFFFFF" height="56.6211" rx="2.5" ry="2.5" style="stroke:#181818;stroke-width:0.5;" width="124.4043" x="447.01" y="346.1783"/><ellipse cx="462.01" cy="366.4888" fill="#DDFFAA" rx="11" ry="11" style="stroke:#181818;stroke-width:1;"/><path d="M465.7405,362.754 L460.4695,362.754 L460.4695,365.4268 L465.2673,365.4268 L465.2673,367.585 L460.4695,367.585 L460.4695,372.9888 L458.0207,372.9888 L458.0207,360.5958 L465.7405,360.5958 Z " fill="#000000"/><text fill="#000000" font-family="sans-serif" font-size="12" font-style="italic" lengthAdjust="spacing" textLength="96.4043" x="474.01" y="362.7798">&#171;DateTimeType&#187;</text><text fill="#000000" font-family="sans-serif" font-size="14" lengthAdjust="spacing" textLength="65.1738" x="489.6252" y="378.8463">createdAt</text><line style="stroke:#181818;stroke-width:0.5;" x1="448.01" x2="570.4143" y1="386.7994" y2="386.7994"/><line style="stroke:#181818;stroke-width:0.5;" x1="448.01" x2="570.4143" y1="394.7994" y2="394.7994"/></g><!--class abc6a6767a60488754aace2accb73824_field_1fa32--><g class="entity" data-qualified-name="AnonymizedBusinessPartnerCDM.abc6a6767a60488754aace2accb73824_field_1fa32" data-source-line="11" id="ent0022"><rect fill="#FFFFFF" height="56.6211" rx="2.5" ry="2.5" style="stroke:#181818;stroke-width:0.5;" width="102.9297" x="457.75" y="254.1783"/><ellipse cx="472.75" cy="274.4888" fill="#DDFFAA" rx="11" ry="11" style="stroke:#181818;stroke-width:1;"/><path d="M476.4805,270.754 L471.2095,270.754 L471.2095,273.4268 L476.0073,273.4268 L476.0073,275.585 L471.2095,275.585 L471.2095,280.9888 L468.7607,280.9888 L468.7607,268.5958 L476.4805,268.5958 Z " fill="#000000"/><text fill="#000000" font-family="sans-serif" font-size="12" font-style="italic" lengthAdjust="spacing" textLength="74.9297" x="484.75" y="270.7798">&#171;StringType&#187;</text><text fill="#000000" font-family="sans-serif" font-size="14" lengthAdjust="spacing" textLength="57.251" x="493.5894" y="286.8463">modifier</text><line style="stroke:#181818;stroke-width:0.5;" x1="458.75" x2="559.6797" y1="294.7994" y2="294.7994"/><line style="stroke:#181818;stroke-width:0.5;" x1="458.75" x2="559.6797" y1="302.7994" y2="302.7994"/></g><!--class abc6a6767a60488754aace2accb73824_field_5cd66--><g class="entity" data-qualified-name="AnonymizedBusinessPartnerCDM.abc6a6767a60488754aace2accb73824_field_5cd66" data-source-line="11" id="ent0024"><rect fill="#FFFFFF" height="56.6211" rx="2.5" ry="2.5" style="stroke:#181818;stroke-width:0.5;" width="124.4043" x="447.01" y="162.1783"/><ellipse cx="462.01" cy="182.4888" fill="#DDFFAA" rx="11" ry="11" style="stroke:#181818;stroke-width:1;"/><path d="M465.7405,178.754 L460.4695,178.754 L460.4695,181.4268 L465.2673,181.4268 L465.2673,183.585 L460.4695,183.585 L460.4695,188.9888 L458.0207,188.9888 L458.0207,176.5958 L465.7405,176.5958 Z " fill="#000000"/><text fill="#000000" font-family="sans-serif" font-size="12" font-style="italic" lengthAdjust="spacing" textLength="96.4043" x="474.01" y="178.7798">&#171;DateTimeType&#187;</text><text fill="#000000" font-family="sans-serif" font-size="14" lengthAdjust="spacing" textLength="75.2295" x="484.5974" y="194.8463">modifiedAt</text><line style="stroke:#181818;stroke-width:0.5;" x1="448.01" x2="570.4143" y1="202.7994" y2="202.7994"/><line style="stroke:#181818;stroke-width:0.5;" x1="448.01" x2="570.4143" y1="210.7994" y2="210.7994"/></g><!--class abc6a6767a60488754aace2accb73824_group_4c9a1--><g class="entity" data-qualified-name="AnonymizedBusinessPartnerCDM.abc6a6767a60488754aace2accb73824_group_4c9a1" data-source-line="3" id="ent0026"><rect fill="#F1F1F1" height="48" rx="2.5" ry="2.5" style="stroke:#181818;stroke-width:0.5;" width="105.7188" x="456.36" y="79.4883"/><ellipse cx="471.36" cy="95.4883" fill="#DDAAFF" rx="11" ry="11" style="stroke:#181818;stroke-width:1;"/><path d="M472.5983,99.7471 L472.5983,97.3813 L470.9215,97.3813 L470.9215,95.3228 L474.7399,95.3228 L474.7399,101.0005 Q474.0343,101.6064 473.1835,101.9177 Q472.3327,102.229 471.3615,102.229 Q468.9542,102.229 467.6427,100.5564 Q466.3312,98.8838 466.3312,95.8042 Q466.3312,92.6748 467.6552,91.0229 Q468.9791,89.3711 471.4777,89.3711 Q472.2247,89.3711 472.9469,89.5828 Q473.6691,89.7944 474.2999,90.1929 L474.2999,92.9072 Q473.7853,92.2432 473.1171,91.907 Q472.4489,91.5708 471.652,91.5708 Q470.2575,91.5708 469.5685,92.6208 Q468.8795,93.6709 468.8795,95.8042 Q468.8795,97.8711 469.5436,98.9502 Q470.2077,100.0293 471.4777,100.0293 Q471.8595,100.0293 472.1417,99.9587 Q472.424,99.8882 472.5983,99.7471 Z " fill="#000000"/><text fill="#000000" font-family="sans-serif" font-size="14" lengthAdjust="spacing" textLength="73.7188" x="485.36" y="100.7793">extensions</text><line style="stroke:#181818;stroke-width:0.5;" x1="457.36" x2="561.0788" y1="111.4883" y2="111.4883"/><line style="stroke:#181818;stroke-width:0.5;" x1="457.36" x2="561.0788" y1="119.4883" y2="119.4883"/></g><!--link group_36405 to field_d6580--><g class="link" data-entity-1="ent0003" data-entity-2="ent0004" data-link-type="association" data-source-line="82" id="lnk5"><path codeLine="82" d="M321.61,904.8983 C364.36,932.1583 427.63,972.4883 427.63,972.4883 C427.63,972.4883 441.71,980.5283 458.09,989.8783" fill="none" id="group_36405-field_d6580" style="stroke:#181818;stroke-width:1;"/></g><!--link group_36405 to field_663d2--><g class="link" data-entity-1="ent0003" data-entity-2="ent0006" data-link-type="association" data-source-line="84" id="lnk7"><path codeLine="84" d="M368.02,897.8183 C387.44,901.7883 408.05,905.9983 427.31,909.9383" fill="none" id="group_36405-field_663d2" style="stroke:#181818;stroke-width:1;"/></g><!--link group_36405 to field_74a24--><g class="link" data-entity-1="ent0003" data-entity-2="ent0008" data-link-type="association" data-source-line="86" id="lnk9"><path codeLine="86" d="M368.02,863.1583 C388.32,859.0083 409.9,854.5983 429.89,850.5083" fill="none" id="group_36405-field_74a24" style="stroke:#181818;stroke-width:1;"/></g><!--link AnonymizedBusinessPartnerCDMDocumentRoot to group_36405--><g class="link" data-entity-1="ent0002" data-entity-2="ent0003" data-link-type="association" data-source-line="88" id="lnk10"><path codeLine="88" d="M93.8645,665.2608 C122.0945,697.6708 206.3482,794.4172 250.2982,844.8772" fill="none" id="AnonymizedBusinessPartnerCDMDocumentRoot-group_36405" style="stroke:#181818;stroke-width:1;"/><line style="stroke:#181818;stroke-width:1;" x1="88.221" x2="94.2535" y1="664.8717" y2="659.6173"/><line style="stroke:#181818;stroke-width:1;" x1="90.1914" x2="96.2239" y1="667.1339" y2="661.8795"/><line style="stroke:#181818;stroke-width:1;" x1="93.8645" x2="88.61" y1="665.2608" y2="659.2283"/><line style="stroke:#181818;stroke-width:1;" x1="252.9253" x2="260.15" y1="847.8935" y2="856.1883"/><ellipse cx="252.9253" cy="847.8935" fill="none" rx="4" ry="4" style="stroke:#181818;stroke-width:1;"/><line style="stroke:#181818;stroke-width:1;" x1="260.5391" x2="254.5065" y1="850.5448" y2="855.7991"/><text fill="#000000" font-family="sans-serif" font-size="13" lengthAdjust="spacing" textLength="24.667" x="227.4812" y="845.6477">0..1</text></g><!--link abc6a6767a60488754aace2accb73824_group_8f4b1 to abc6a6767a60488754aace2accb73824_field_1169c--><g class="link" data-entity-1="ent0011" data-entity-2="ent0012" data-link-type="association" data-source-line="92" id="lnk13"><path codeLine="92" d="M298.48,490.6683 C335.54,549.7183 427.63,696.4883 427.63,696.4883 C427.63,696.4883 441.71,704.5283 458.09,713.8783" fill="none" id="abc6a6767a60488754aace2accb73824_group_8f4b1-abc6a6767a60488754aace2accb73824_field_1169c" style="stroke:#181818;stroke-width:1;"/></g><!--link abc6a6767a60488754aace2accb73824_group_8f4b1 to abc6a6767a60488754aace2accb73824_field_cfb40--><g class="link" data-entity-1="ent0011" data-entity-2="ent0014" data-link-type="association" data-source-line="94" id="lnk15"><path codeLine="94" d="M308.78,490.8383 C350.21,530.4583 427.63,604.4883 427.63,604.4883 C427.63,604.4883 441.71,612.5283 458.09,621.8783" fill="none" id="abc6a6767a60488754aace2accb73824_group_8f4b1-abc6a6767a60488754aace2accb73824_field_cfb40" style="stroke:#181818;stroke-width:1;"/></g><!--link abc6a6767a60488754aace2accb73824_group_8f4b1 to abc6a6767a60488754aace2accb73824_field_17e3b--><g class="link" data-entity-1="ent0011" data-entity-2="ent0016" data-link-type="association" data-source-line="96" id="lnk17"><path codeLine="96" d="M322.49,482.5183 C356.59,496.4683 406.63,516.9283 446.17,533.1083" fill="none" id="abc6a6767a60488754aace2accb73824_group_8f4b1-abc6a6767a60488754aace2accb73824_field_17e3b" style="stroke:#181818;stroke-width:1;"/></g><!--link abc6a6767a60488754aace2accb73824_group_8f4b1 to abc6a6767a60488754aace2accb73824_field_cdaf9--><g class="link" data-entity-1="ent0011" data-entity-2="ent0018" data-link-type="association" data-source-line="98" id="lnk19"><path codeLine="98" d="M322.49,466.4883 C359.99,466.4883 416.76,466.4883 457.66,466.4883" fill="none" id="abc6a6767a60488754aace2accb73824_group_8f4b1-abc6a6767a60488754aace2accb73824_field_cdaf9" style="stroke:#181818;stroke-width:1;"/></g><!--link abc6a6767a60488754aace2accb73824_group_8f4b1 to abc6a6767a60488754aace2accb73824_field_65672--><g class="link" data-entity-1="ent0011" data-entity-2="ent0020" data-link-type="association" data-source-line="100" id="lnk21"><path codeLine="100" d="M322.49,450.4583 C356.72,436.4583 407,415.8883 446.61,399.6883" fill="none" id="abc6a6767a60488754aace2accb73824_group_8f4b1-abc6a6767a60488754aace2accb73824_field_65672" style="stroke:#181818;stroke-width:1;"/></g><!--link abc6a6767a60488754aace2accb73824_group_8f4b1 to abc6a6767a60488754aace2accb73824_field_1fa32--><g class="link" data-entity-1="ent0011" data-entity-2="ent0022" data-link-type="association" data-source-line="102" id="lnk23"><path codeLine="102" d="M308.78,442.1383 C350.21,402.5183 427.63,328.4883 427.63,328.4883 C427.63,328.4883 441.71,320.4483 458.09,311.0983" fill="none" id="abc6a6767a60488754aace2accb73824_group_8f4b1-abc6a6767a60488754aace2accb73824_field_1fa32" style="stroke:#181818;stroke-width:1;"/></g><!--link abc6a6767a60488754aace2accb73824_group_8f4b1 to abc6a6767a60488754aace2accb73824_field_5cd66--><g class="link" data-entity-1="ent0011" data-entity-2="ent0024" data-link-type="association" data-source-line="104" id="lnk25"><path codeLine="104" d="M298.48,442.3083 C335.54,383.2583 427.63,236.4883 427.63,236.4883 C427.63,236.4883 441.71,228.4483 458.09,219.0983" fill="none" id="abc6a6767a60488754aace2accb73824_group_8f4b1-abc6a6767a60488754aace2accb73824_field_5cd66" style="stroke:#181818;stroke-width:1;"/></g><!--link abc6a6767a60488754aace2accb73824_group_8f4b1 to abc6a6767a60488754aace2accb73824_group_4c9a1--><g class="link" data-entity-1="ent0011" data-entity-2="ent0026" data-link-type="association" data-source-line="107" id="lnk27"><path codeLine="107" d="M297.5522,434.7181 C331.2322,359.5781 427.63,144.4883 427.63,144.4883 C427.63,144.4883 429.6801,143.4387 447.0401,134.6087" fill="none" id="abc6a6767a60488754aace2accb73824_group_8f4b1-abc6a6767a60488754aace2accb73824_group_4c9a1" style="stroke:#181818;stroke-width:1;"/><line style="stroke:#181818;stroke-width:1;" x1="299.5662" x2="292.266" y1="440.0043" y2="436.7321"/><line style="stroke:#181818;stroke-width:1;" x1="300.7932" x2="293.493" y1="437.2667" y2="433.9945"/><line style="stroke:#181818;stroke-width:1;" x1="297.5522" x2="294.28" y1="434.7181" y2="442.0183"/><line style="stroke:#181818;stroke-width:1;" x1="450.6054" x2="460.41" y1="132.7953" y2="127.8083"/><ellipse cx="450.6054" cy="132.7953" fill="none" rx="4" ry="4" style="stroke:#181818;stroke-width:1;"/><line style="stroke:#181818;stroke-width:1;" x1="455.0312" x2="458.6582" y1="126.0564" y2="133.187"/><text fill="#000000" font-family="sans-serif" font-size="13" lengthAdjust="spacing" textLength="24.667" x="423.9368" y="146.9715">0..1</text></g><!--link AnonymizedBusinessPartnerCDMDocumentRoot to abc6a6767a60488754aace2accb73824_group_8f4b1--><g class="link" data-entity-1="ent0002" data-entity-2="ent0011" data-link-type="association" data-source-line="109" id="lnk28"><path codeLine="109" d="M94.5016,638.0863 C121.6516,613.1463 197.7117,543.274 243.8617,500.894" fill="none" id="AnonymizedBusinessPartnerCDMDocumentRoot-abc6a6767a60488754aace2accb73824_group_8f4b1" style="stroke:#181818;stroke-width:1;"/><line style="stroke:#181818;stroke-width:1;" x1="94.2618" x2="88.8498" y1="643.7381" y2="637.8465"/><line style="stroke:#181818;stroke-width:1;" x1="96.4711" x2="91.0591" y1="641.7086" y2="635.817"/><line style="stroke:#181818;stroke-width:1;" x1="94.5016" x2="88.61" y1="638.0863" y2="643.4983"/><line style="stroke:#181818;stroke-width:1;" x1="246.8079" x2="254.91" y1="498.1885" y2="490.7483"/><ellipse cx="246.8079" cy="498.1885" fill="none" rx="4" ry="4" style="stroke:#181818;stroke-width:1;"/><line style="stroke:#181818;stroke-width:1;" x1="249.2583" x2="254.6693" y1="490.5076" y2="496.4"/><text fill="#000000" font-family="sans-serif" font-size="13" lengthAdjust="spacing" textLength="24.667" x="221.3878" y="511.096">0..1</text></g><?plantuml-src lLLTZ-8s57qU_mh380r8GFa8WK4KYI5ajTAkEc9NxKDL8MFVp4IJn97Zj3Fjx7-lxIpaOxSCMQcyG6BVUywvvruxZLXm2YmLW1y4J-FsSmVHW2G9ViQB1Mw_wruxpchbkXsyNA86HEoOW50ZJwOiV7V8Fm1XbRhPkEw9DC-7W5KvNStfkgkLviJNlptw4avWGBW7ne2v1YiY8NInV8dLhq7_h1uxI2yhSBs-NCxpdHEu8WsWAcshfTtT7QIvhgxm36rRZPLBww35dj2dUPQ_r1ljpb7UuYUzkQmFsyKj48ABDO-OBtqUTL2_ZqjKk6G4_ag5-_soeZBC_11MWJyr3poCKqbqLDN3TTN3pSPnpeDQ1H94f1x_X7QBno3CgYex5a1BHPCyKXTtZ9tZF0yLi-Pba3FCNnTABFNWfB23pRheCxfXmdBrnqRaHPGYInKTWyyiZ76QXX39QiESxlLgfLkMDUoU_yL0t0Kf_B19k5EMNVi017xqvFo7t0-PtEpAKdA1qCVxrFFUWFlEzNLEge3WWyfkjqnrBH6-PzsMnXjcVoFrntvkDfL6Nz00i0d49C4cjaYIBMJ9nPSHQlYUUcGDXVDre_VxzNlLKH9jWVqX_8T7gGFcoe2YDUhABZcbGZgc5l-Raf8dFug98A4s0qoJOXwyw1SKW2Unv3ZZORuQ9pDAIFfILQHxp1F01nhyaJC8y2hYqKle_mtiBaqKJ9BS4o4Z46lduwAoz6M9KAnwJXu0D-iaBflQobCPoX9NbQNFrp_eIarPyp3dMyxbc-bE8HXTPRDnqwp47P7C_cviMuF9JGTTPP-tcwPgLPf8yM9YpEAEsPFPG6dx98KVFNmsSwzJ2WYuroi6vt2VfABznTj2O0vMykZ71MJR7hEHGdQ8X3TmJMYEkrOYUGZ2yHFAqqWMGASM6LaAT1CfDxARvmriau7GrRdcujVNNe-_ukQWtnysYqwYtFVTBWH9Z2wofpQnf_QKs0DhDfjEB48eZ0Yb--buDh9s6SBCi_R3OYzKzxVWdGUHLJ8SshVqEwsgeq3xKeSkrnlgmwGKWu28GXtTrDjRWylfDdGLtR-2IDIer79x2kFz1TtMTBbgAe18BchPp8XtUq6RDLr5CB2Lh2FPdjZJunNXX_2_YpQ4fTdmrNCjcuSU6OykE1UQxXl5DNsUK6RRb_JP4ERN9JnBYFG1JEfScHQz9VhAhAcoV7_NuVhnhqGTWGXz-HS0?></g></svg>