<?xml version="1.0" encoding="us-ascii" standalone="no"?><svg xmlns="http://www.w3.org/2000/svg" xmlns:xlink="http://www.w3.org/1999/xlink" contentStyleType="text/css" height="1407px" preserveAspectRatio="none" style="width:976px;height:1407px;background:#FFFFFF;" version="1.1" viewBox="0 0 976 1407" width="976px" zoomAndPan="magnify"><defs/><g><text fill="#000000" font-family="sans-serif" font-size="14" font-weight="bold" lengthAdjust="spacing" textLength="314" x="324" y="22.9951">Document Model BusinessPartnerSuper</text><!--cluster BusinessPartnerSuper--><g id="cluster_BusinessPartnerSuper"><rect fill="none" height="1357" rx="2.5" ry="2.5" style="stroke:#181818;stroke-width:1.0;" width="963" x="7" y="44.2969"/><path d="M194,44.2969 L194,53.5938 L184,63.5938 L7,63.5938 " fill="none" style="stroke:#181818;stroke-width:1.0;"/><text fill="#000000" font-family="sans-serif" font-size="14" font-weight="bold" lengthAdjust="spacing" textLength="177" x="10" y="58.292">BusinessPartnerSuper</text></g><!--entity BusinessPartnerSuperDocumentRoot--><g id="elem_BusinessPartnerSuperDocumentRoot"><ellipse cx="83" cy="430.2969" fill="#F1F1F1" rx="8" ry="8" style="stroke:#181818;stroke-width:0.5;"/><text fill="#000000" font-family="sans-serif" font-size="14" lengthAdjust="spacing" textLength="104" x="31" y="460.292">documentRoot</text></g><!--class group_36405--><g id="elem_group_36405"><rect codeLine="3" fill="#F1F1F1" height="48" id="group_36405" rx="2.5" ry="2.5" style="stroke:#181818;stroke-width:0.5;" width="179" x="203" y="406.2969"/><ellipse cx="218" cy="422.2969" fill="#DDAAFF" rx="11" ry="11" style="stroke:#181818;stroke-width:1.0;"/><path d="M219.2344,426.0625 L219.2344,423.6875 L217.5625,423.6875 L217.5625,421.625 L221.375,421.625 L221.375,427.3125 Q220.6719,427.9219 219.8125,428.2344 Q218.9688,428.5313 218,428.5313 Q215.5938,428.5313 214.2813,426.8594 Q212.9688,425.1875 212.9688,422.1094 Q212.9688,418.9844 214.2969,417.3281 Q215.625,415.6719 218.125,415.6719 Q218.8594,415.6719 219.5781,415.8906 Q220.3125,416.1094 220.9375,416.5 L220.9375,419.2188 Q220.4219,418.5469 219.75,418.2188 Q219.0938,417.875 218.2969,417.875 Q216.8906,417.875 216.2031,418.9375 Q215.5156,419.9844 215.5156,422.1094 Q215.5156,424.1719 216.1719,425.2656 Q216.8438,426.3438 218.125,426.3438 Q218.5,426.3438 218.7813,426.2813 Q219.0625,426.2031 219.2344,426.0625 Z " fill="#000000"/><text fill="#000000" font-family="sans-serif" font-size="14" lengthAdjust="spacing" textLength="147" x="232" y="427.1436">BusinessPartnerRoot</text><line style="stroke:#181818;stroke-width:0.5;" x1="204" x2="381" y1="438.2969" y2="438.2969"/><line style="stroke:#181818;stroke-width:0.5;" x1="204" x2="381" y1="446.2969" y2="446.2969"/></g><!--class G77--><g id="elem_G77"><rect codeLine="3" fill="#F1F1F1" height="48" id="G77" rx="2.5" ry="2.5" style="stroke:#181818;stroke-width:0.5;" width="112" x="468" y="787.2969"/><ellipse cx="483" cy="803.2969" fill="#DDAAFF" rx="11" ry="11" style="stroke:#181818;stroke-width:1.0;"/><path d="M484.2344,807.0625 L484.2344,804.6875 L482.5625,804.6875 L482.5625,802.625 L486.375,802.625 L486.375,808.3125 Q485.6719,808.9219 484.8125,809.2344 Q483.9688,809.5313 483,809.5313 Q480.5938,809.5313 479.2813,807.8594 Q477.9688,806.1875 477.9688,803.1094 Q477.9688,799.9844 479.2969,798.3281 Q480.625,796.6719 483.125,796.6719 Q483.8594,796.6719 484.5781,796.8906 Q485.3125,797.1094 485.9375,797.5 L485.9375,800.2188 Q485.4219,799.5469 484.75,799.2188 Q484.0938,798.875 483.2969,798.875 Q481.8906,798.875 481.2031,799.9375 Q480.5156,800.9844 480.5156,803.1094 Q480.5156,805.1719 481.1719,806.2656 Q481.8438,807.3438 483.125,807.3438 Q483.5,807.3438 483.7813,807.2813 Q484.0625,807.2031 484.2344,807.0625 Z " fill="#000000"/><text fill="#000000" font-family="sans-serif" font-size="14" lengthAdjust="spacing" textLength="80" x="497" y="808.1436">Attachment</text><line style="stroke:#181818;stroke-width:0.5;" x1="469" x2="579" y1="819.2969" y2="819.2969"/><line style="stroke:#181818;stroke-width:0.5;" x1="469" x2="579" y1="827.2969" y2="827.2969"/></g><!--class F21--><g id="elem_F21"><rect codeLine="11" fill="#FFFFFF" height="56.2656" id="F21" rx="2.5" ry="2.5" style="stroke:#181818;stroke-width:0.5;" width="146" x="737" y="1329.2969"/><ellipse cx="752" cy="1349.4297" fill="#DDFFAA" rx="11" ry="11" style="stroke:#181818;stroke-width:1.0;"/><path d="M756.2344,1345.1953 L750.9531,1345.1953 L750.9531,1347.8672 L755.75,1347.8672 L755.75,1350.0234 L750.9531,1350.0234 L750.9531,1355.4297 L748.5156,1355.4297 L748.5156,1343.0391 L756.2344,1343.0391 L756.2344,1345.1953 Z " fill="#000000"/><text fill="#000000" font-family="sans-serif" font-size="12" font-style="italic" lengthAdjust="spacing" textLength="81" x="782.5" y="1345.4355">&#171;StringType&#187;</text><text fill="#000000" font-family="sans-serif" font-size="14" lengthAdjust="spacing" textLength="114" x="766" y="1361.2607">original_filename</text><line style="stroke:#181818;stroke-width:0.5;" x1="738" x2="882" y1="1369.5625" y2="1369.5625"/><line style="stroke:#181818;stroke-width:0.5;" x1="738" x2="882" y1="1377.5625" y2="1377.5625"/></g><!--class F22--><g id="elem_F22"><rect codeLine="11" fill="#FFFFFF" height="56.2656" id="F22" rx="2.5" ry="2.5" style="stroke:#181818;stroke-width:0.5;" width="148" x="736" y="1238.2969"/><ellipse cx="751" cy="1258.4297" fill="#DDFFAA" rx="11" ry="11" style="stroke:#181818;stroke-width:1.0;"/><path d="M755.2344,1254.1953 L749.9531,1254.1953 L749.9531,1256.8672 L754.75,1256.8672 L754.75,1259.0234 L749.9531,1259.0234 L749.9531,1264.4297 L747.5156,1264.4297 L747.5156,1252.0391 L755.2344,1252.0391 L755.2344,1254.1953 Z " fill="#000000"/><text fill="#000000" font-family="sans-serif" font-size="12" font-style="italic" lengthAdjust="spacing" textLength="81" x="782.5" y="1254.4355">&#171;StringType&#187;</text><text fill="#000000" font-family="sans-serif" font-size="14" lengthAdjust="spacing" textLength="116" x="765" y="1270.2607">internal_filename</text><line style="stroke:#181818;stroke-width:0.5;" x1="737" x2="883" y1="1278.5625" y2="1278.5625"/><line style="stroke:#181818;stroke-width:0.5;" x1="737" x2="883" y1="1286.5625" y2="1286.5625"/></g><!--class F23--><g id="elem_F23"><rect codeLine="11" fill="#FFFFFF" height="56.2656" id="F23" rx="2.5" ry="2.5" style="stroke:#181818;stroke-width:0.5;" width="109" x="755.5" y="1147.2969"/><ellipse cx="770.5" cy="1167.4297" fill="#DDFFAA" rx="11" ry="11" style="stroke:#181818;stroke-width:1.0;"/><path d="M774.7344,1163.1953 L769.4531,1163.1953 L769.4531,1165.8672 L774.25,1165.8672 L774.25,1168.0234 L769.4531,1168.0234 L769.4531,1173.4297 L767.0156,1173.4297 L767.0156,1161.0391 L774.7344,1161.0391 L774.7344,1163.1953 Z " fill="#000000"/><text fill="#000000" font-family="sans-serif" font-size="12" font-style="italic" lengthAdjust="spacing" textLength="81" x="782.5" y="1163.4355">&#171;StringType&#187;</text><text fill="#000000" font-family="sans-serif" font-size="14" lengthAdjust="spacing" textLength="54" x="796" y="1179.2607">content</text><line style="stroke:#181818;stroke-width:0.5;" x1="756.5" x2="863.5" y1="1187.5625" y2="1187.5625"/><line style="stroke:#181818;stroke-width:0.5;" x1="756.5" x2="863.5" y1="1195.5625" y2="1195.5625"/></g><!--class F24--><g id="elem_F24"><rect codeLine="11" fill="#FFFFFF" height="56.2656" id="F24" rx="2.5" ry="2.5" style="stroke:#181818;stroke-width:0.5;" width="130" x="745" y="1056.2969"/><ellipse cx="760" cy="1076.4297" fill="#DDFFAA" rx="11" ry="11" style="stroke:#181818;stroke-width:1.0;"/><path d="M764.2344,1072.1953 L758.9531,1072.1953 L758.9531,1074.8672 L763.75,1074.8672 L763.75,1077.0234 L758.9531,1077.0234 L758.9531,1082.4297 L756.5156,1082.4297 L756.5156,1070.0391 L764.2344,1070.0391 L764.2344,1072.1953 Z " fill="#000000"/><text fill="#000000" font-family="sans-serif" font-size="12" font-style="italic" lengthAdjust="spacing" textLength="81" x="782.5" y="1072.4355">&#171;StringType&#187;</text><text fill="#000000" font-family="sans-serif" font-size="14" lengthAdjust="spacing" textLength="98" x="774" y="1088.2607">attachment_id</text><line style="stroke:#181818;stroke-width:0.5;" x1="746" x2="874" y1="1096.5625" y2="1096.5625"/><line style="stroke:#181818;stroke-width:0.5;" x1="746" x2="874" y1="1104.5625" y2="1104.5625"/></g><!--class F25--><g id="elem_F25"><rect codeLine="11" fill="#FFFFFF" height="56.2656" id="F25" rx="2.5" ry="2.5" style="stroke:#181818;stroke-width:0.5;" width="121" x="749.5" y="965.2969"/><ellipse cx="764.5" cy="985.4297" fill="#DDFFAA" rx="11" ry="11" style="stroke:#181818;stroke-width:1.0;"/><path d="M768.7344,981.1953 L763.4531,981.1953 L763.4531,983.8672 L768.25,983.8672 L768.25,986.0234 L763.4531,986.0234 L763.4531,991.4297 L761.0156,991.4297 L761.0156,979.0391 L768.7344,979.0391 L768.7344,981.1953 Z " fill="#000000"/><text fill="#000000" font-family="sans-serif" font-size="12" font-style="italic" lengthAdjust="spacing" textLength="93" x="776.5" y="981.4355">&#171;NumberType&#187;</text><text fill="#000000" font-family="sans-serif" font-size="14" lengthAdjust="spacing" textLength="28" x="809" y="997.2607">size</text><line style="stroke:#181818;stroke-width:0.5;" x1="750.5" x2="869.5" y1="1005.5625" y2="1005.5625"/><line style="stroke:#181818;stroke-width:0.5;" x1="750.5" x2="869.5" y1="1013.5625" y2="1013.5625"/></g><!--class F26--><g id="elem_F26"><rect codeLine="11" fill="#FFFFFF" height="56.2656" id="F26" rx="2.5" ry="2.5" style="stroke:#181818;stroke-width:0.5;" width="109" x="755.5" y="874.2969"/><ellipse cx="770.5" cy="894.4297" fill="#DDFFAA" rx="11" ry="11" style="stroke:#181818;stroke-width:1.0;"/><path d="M774.7344,890.1953 L769.4531,890.1953 L769.4531,892.8672 L774.25,892.8672 L774.25,895.0234 L769.4531,895.0234 L769.4531,900.4297 L767.0156,900.4297 L767.0156,888.0391 L774.7344,888.0391 L774.7344,890.1953 Z " fill="#000000"/><text fill="#000000" font-family="sans-serif" font-size="12" font-style="italic" lengthAdjust="spacing" textLength="81" x="782.5" y="890.4355">&#171;StringType&#187;</text><text fill="#000000" font-family="sans-serif" font-size="14" lengthAdjust="spacing" textLength="75" x="785.5" y="906.2607">mime_type</text><line style="stroke:#181818;stroke-width:0.5;" x1="756.5" x2="863.5" y1="914.5625" y2="914.5625"/><line style="stroke:#181818;stroke-width:0.5;" x1="756.5" x2="863.5" y1="922.5625" y2="922.5625"/></g><!--class F27--><g id="elem_F27"><rect codeLine="11" fill="#FFFFFF" height="56.2656" id="F27" rx="2.5" ry="2.5" style="stroke:#181818;stroke-width:0.5;" width="109" x="755.5" y="783.2969"/><ellipse cx="770.5" cy="803.4297" fill="#DDFFAA" rx="11" ry="11" style="stroke:#181818;stroke-width:1.0;"/><path d="M774.7344,799.1953 L769.4531,799.1953 L769.4531,801.8672 L774.25,801.8672 L774.25,804.0234 L769.4531,804.0234 L769.4531,809.4297 L767.0156,809.4297 L767.0156,797.0391 L774.7344,797.0391 L774.7344,799.1953 Z " fill="#000000"/><text fill="#000000" font-family="sans-serif" font-size="12" font-style="italic" lengthAdjust="spacing" textLength="81" x="782.5" y="799.4355">&#171;StringType&#187;</text><text fill="#000000" font-family="sans-serif" font-size="14" lengthAdjust="spacing" textLength="60" x="793" y="815.2607">category</text><line style="stroke:#181818;stroke-width:0.5;" x1="756.5" x2="863.5" y1="823.5625" y2="823.5625"/><line style="stroke:#181818;stroke-width:0.5;" x1="756.5" x2="863.5" y1="831.5625" y2="831.5625"/></g><!--class F28--><g id="elem_F28"><rect codeLine="11" fill="#FFFFFF" height="56.2656" id="F28" rx="2.5" ry="2.5" style="stroke:#181818;stroke-width:0.5;" width="109" x="755.5" y="692.2969"/><ellipse cx="770.5" cy="712.4297" fill="#DDFFAA" rx="11" ry="11" style="stroke:#181818;stroke-width:1.0;"/><path d="M774.7344,708.1953 L769.4531,708.1953 L769.4531,710.8672 L774.25,710.8672 L774.25,713.0234 L769.4531,713.0234 L769.4531,718.4297 L767.0156,718.4297 L767.0156,706.0391 L774.7344,706.0391 L774.7344,708.1953 Z " fill="#000000"/><text fill="#000000" font-family="sans-serif" font-size="12" font-style="italic" lengthAdjust="spacing" textLength="81" x="782.5" y="708.4355">&#171;StringType&#187;</text><text fill="#000000" font-family="sans-serif" font-size="14" lengthAdjust="spacing" textLength="77" x="784.5" y="724.2607">description</text><line style="stroke:#181818;stroke-width:0.5;" x1="756.5" x2="863.5" y1="732.5625" y2="732.5625"/><line style="stroke:#181818;stroke-width:0.5;" x1="756.5" x2="863.5" y1="740.5625" y2="740.5625"/></g><!--class R29--><g id="elem_R29"><rect codeLine="19" fill="#FFDDEE" height="48" id="R29" rx="2.5" ry="2.5" style="stroke:#181818;stroke-width:0.5;" width="288" x="666" y="609.2969"/><ellipse cx="681" cy="625.2969" fill="#DDBBAA" rx="11" ry="11" style="stroke:#181818;stroke-width:1.0;"/><path d="M682.2031,625.4375 Q682.5625,625.5156 682.8281,625.7969 Q683.1094,626.0625 683.5,626.8438 L685.7344,631.2969 L683.0469,631.2969 L681.5469,628.1719 Q681.4844,628.0313 681.375,627.7969 Q680.7188,626.4063 679.8281,626.4063 L679.0469,626.4063 L679.0469,631.2969 L676.6094,631.2969 L676.6094,618.9063 L680.1406,618.9063 Q682.5313,618.9063 683.5625,619.75 Q684.6094,620.5938 684.6094,622.5 Q684.6094,623.7813 683.9844,624.5469 Q683.375,625.2969 682.2031,625.4375 Z M679.0469,620.9688 L679.0469,624.3438 L680.2031,624.3438 Q681.2188,624.3438 681.6406,623.9531 Q682.0781,623.5469 682.0781,622.6406 Q682.0781,621.75 681.6406,621.3594 Q681.2188,620.9688 680.2031,620.9688 L679.0469,620.9688 Z " fill="#000000"/><text fill="#000000" font-family="sans-serif" font-size="14" lengthAdjust="spacing" textLength="256" x="695" y="630.1436">AttachmentInternalFilenameRequired</text><line style="stroke:#181818;stroke-width:0.5;" x1="667" x2="953" y1="641.2969" y2="641.2969"/><line style="stroke:#181818;stroke-width:0.5;" x1="667" x2="953" y1="649.2969" y2="649.2969"/></g><!--class R30--><g id="elem_R30"><rect codeLine="19" fill="#FFDDEE" height="48" id="R30" rx="2.5" ry="2.5" style="stroke:#181818;stroke-width:0.5;" width="246" x="687" y="526.2969"/><ellipse cx="702" cy="542.2969" fill="#DDBBAA" rx="11" ry="11" style="stroke:#181818;stroke-width:1.0;"/><path d="M703.2031,542.4375 Q703.5625,542.5156 703.8281,542.7969 Q704.1094,543.0625 704.5,543.8438 L706.7344,548.2969 L704.0469,548.2969 L702.5469,545.1719 Q702.4844,545.0313 702.375,544.7969 Q701.7188,543.4063 700.8281,543.4063 L700.0469,543.4063 L700.0469,548.2969 L697.6094,548.2969 L697.6094,535.9063 L701.1406,535.9063 Q703.5313,535.9063 704.5625,536.75 Q705.6094,537.5938 705.6094,539.5 Q705.6094,540.7813 704.9844,541.5469 Q704.375,542.2969 703.2031,542.4375 Z M700.0469,537.9688 L700.0469,541.3438 L701.2031,541.3438 Q702.2188,541.3438 702.6406,540.9531 Q703.0781,540.5469 703.0781,539.6406 Q703.0781,538.75 702.6406,538.3594 Q702.2188,537.9688 701.2031,537.9688 L700.0469,537.9688 Z " fill="#000000"/><text fill="#000000" font-family="sans-serif" font-size="14" lengthAdjust="spacing" textLength="214" x="716" y="547.1436">AttachmentMimeTypeRequired</text><line style="stroke:#181818;stroke-width:0.5;" x1="688" x2="932" y1="558.2969" y2="558.2969"/><line style="stroke:#181818;stroke-width:0.5;" x1="688" x2="932" y1="566.2969" y2="566.2969"/></g><!--class R31--><g id="elem_R31"><rect codeLine="19" fill="#FFDDEE" height="48" id="R31" rx="2.5" ry="2.5" style="stroke:#181818;stroke-width:0.5;" width="231" x="694.5" y="443.2969"/><ellipse cx="709.5" cy="459.2969" fill="#DDBBAA" rx="11" ry="11" style="stroke:#181818;stroke-width:1.0;"/><path d="M710.7031,459.4375 Q711.0625,459.5156 711.3281,459.7969 Q711.6094,460.0625 712,460.8438 L714.2344,465.2969 L711.5469,465.2969 L710.0469,462.1719 Q709.9844,462.0313 709.875,461.7969 Q709.2188,460.4063 708.3281,460.4063 L707.5469,460.4063 L707.5469,465.2969 L705.1094,465.2969 L705.1094,452.9063 L708.6406,452.9063 Q711.0313,452.9063 712.0625,453.75 Q713.1094,454.5938 713.1094,456.5 Q713.1094,457.7813 712.4844,458.5469 Q711.875,459.2969 710.7031,459.4375 Z M707.5469,454.9688 L707.5469,458.3438 L708.7031,458.3438 Q709.7188,458.3438 710.1406,457.9531 Q710.5781,457.5469 710.5781,456.6406 Q710.5781,455.75 710.1406,455.3594 Q709.7188,454.9688 708.7031,454.9688 L707.5469,454.9688 Z " fill="#000000"/><text fill="#000000" font-family="sans-serif" font-size="14" lengthAdjust="spacing" textLength="199" x="723.5" y="464.1436">AttachmentIdOrContentFilled</text><line style="stroke:#181818;stroke-width:0.5;" x1="695.5" x2="924.5" y1="475.2969" y2="475.2969"/><line style="stroke:#181818;stroke-width:0.5;" x1="695.5" x2="924.5" y1="483.2969" y2="483.2969"/></g><!--class R32--><g id="elem_R32"><rect codeLine="19" fill="#FFDDEE" height="48" id="R32" rx="2.5" ry="2.5" style="stroke:#181818;stroke-width:0.5;" width="167" x="726.5" y="360.2969"/><ellipse cx="741.5" cy="376.2969" fill="#DDBBAA" rx="11" ry="11" style="stroke:#181818;stroke-width:1.0;"/><path d="M742.7031,376.4375 Q743.0625,376.5156 743.3281,376.7969 Q743.6094,377.0625 744,377.8438 L746.2344,382.2969 L743.5469,382.2969 L742.0469,379.1719 Q741.9844,379.0313 741.875,378.7969 Q741.2188,377.4063 740.3281,377.4063 L739.5469,377.4063 L739.5469,382.2969 L737.1094,382.2969 L737.1094,369.9063 L740.6406,369.9063 Q743.0313,369.9063 744.0625,370.75 Q745.1094,371.5938 745.1094,373.5 Q745.1094,374.7813 744.4844,375.5469 Q743.875,376.2969 742.7031,376.4375 Z M739.5469,371.9688 L739.5469,375.3438 L740.7031,375.3438 Q741.7188,375.3438 742.1406,374.9531 Q742.5781,374.5469 742.5781,373.6406 Q742.5781,372.75 742.1406,372.3594 Q741.7188,371.9688 740.7031,371.9688 L739.5469,371.9688 Z " fill="#000000"/><text fill="#000000" font-family="sans-serif" font-size="14" lengthAdjust="spacing" textLength="135" x="755.5" y="381.1436">SizeOfContentFilled</text><line style="stroke:#181818;stroke-width:0.5;" x1="727.5" x2="892.5" y1="392.2969" y2="392.2969"/><line style="stroke:#181818;stroke-width:0.5;" x1="727.5" x2="892.5" y1="400.2969" y2="400.2969"/></g><!--class field_fe6b2--><g id="elem_field_fe6b2"><rect codeLine="11" fill="#FFFFFF" height="56.2656" id="field_fe6b2" rx="2.5" ry="2.5" style="stroke:#181818;stroke-width:0.5;" width="109" x="469.5" y="584.2969"/><ellipse cx="484.5" cy="604.4297" fill="#DDFFAA" rx="11" ry="11" style="stroke:#181818;stroke-width:1.0;"/><path d="M488.7344,600.1953 L483.4531,600.1953 L483.4531,602.8672 L488.25,602.8672 L488.25,605.0234 L483.4531,605.0234 L483.4531,610.4297 L481.0156,610.4297 L481.0156,598.0391 L488.7344,598.0391 L488.7344,600.1953 Z " fill="#000000"/><text fill="#000000" font-family="sans-serif" font-size="12" font-style="italic" lengthAdjust="spacing" textLength="81" x="496.5" y="600.4355">&#171;StringType&#187;</text><text fill="#000000" font-family="sans-serif" font-size="14" lengthAdjust="spacing" textLength="40" x="517" y="616.2607">Name</text><line style="stroke:#181818;stroke-width:0.5;" x1="470.5" x2="577.5" y1="624.5625" y2="624.5625"/><line style="stroke:#181818;stroke-width:0.5;" x1="470.5" x2="577.5" y1="632.5625" y2="632.5625"/></g><!--class field_d6580--><g id="elem_field_d6580"><rect codeLine="11" fill="#FFFFFF" height="56.2656" id="field_d6580" rx="2.5" ry="2.5" style="stroke:#181818;stroke-width:0.5;" width="152" x="448" y="493.2969"/><ellipse cx="463" cy="513.4297" fill="#DDFFAA" rx="11" ry="11" style="stroke:#181818;stroke-width:1.0;"/><path d="M467.2344,509.1953 L461.9531,509.1953 L461.9531,511.8672 L466.75,511.8672 L466.75,514.0234 L461.9531,514.0234 L461.9531,519.4297 L459.5156,519.4297 L459.5156,507.0391 L467.2344,507.0391 L467.2344,509.1953 Z " fill="#000000"/><text fill="#000000" font-family="sans-serif" font-size="12" font-style="italic" lengthAdjust="spacing" textLength="124" x="475" y="509.4355">&#171;EnumerationType&#187;</text><text fill="#000000" font-family="sans-serif" font-size="14" lengthAdjust="spacing" textLength="55" x="509.5" y="525.2607">Industry</text><line style="stroke:#181818;stroke-width:0.5;" x1="449" x2="599" y1="533.5625" y2="533.5625"/><line style="stroke:#181818;stroke-width:0.5;" x1="449" x2="599" y1="541.5625" y2="541.5625"/></g><!--class field_663d2--><g id="elem_field_663d2"><rect codeLine="11" fill="#FFFFFF" height="56.2656" id="field_663d2" rx="2.5" ry="2.5" style="stroke:#181818;stroke-width:0.5;" width="164" x="442" y="402.2969"/><ellipse cx="457" cy="422.4297" fill="#DDFFAA" rx="11" ry="11" style="stroke:#181818;stroke-width:1.0;"/><path d="M461.2344,418.1953 L455.9531,418.1953 L455.9531,420.8672 L460.75,420.8672 L460.75,423.0234 L455.9531,423.0234 L455.9531,428.4297 L453.5156,428.4297 L453.5156,416.0391 L461.2344,416.0391 L461.2344,418.1953 Z " fill="#000000"/><text fill="#000000" font-family="sans-serif" font-size="12" font-style="italic" lengthAdjust="spacing" textLength="74" x="500" y="418.4355">&#171;DateType&#187;</text><text fill="#000000" font-family="sans-serif" font-size="14" lengthAdjust="spacing" textLength="132" x="471" y="434.2607">StartOfRelationship</text><line style="stroke:#181818;stroke-width:0.5;" x1="443" x2="605" y1="442.5625" y2="442.5625"/><line style="stroke:#181818;stroke-width:0.5;" x1="443" x2="605" y1="450.5625" y2="450.5625"/></g><!--class field_74a24--><g id="elem_field_74a24"><rect codeLine="11" fill="#FFFFFF" height="56.2656" id="field_74a24" rx="2.5" ry="2.5" style="stroke:#181818;stroke-width:0.5;" width="162" x="443" y="311.2969"/><ellipse cx="458" cy="331.4297" fill="#DDFFAA" rx="11" ry="11" style="stroke:#181818;stroke-width:1.0;"/><path d="M462.2344,327.1953 L456.9531,327.1953 L456.9531,329.8672 L461.75,329.8672 L461.75,332.0234 L456.9531,332.0234 L456.9531,337.4297 L454.5156,337.4297 L454.5156,325.0391 L462.2344,325.0391 L462.2344,327.1953 Z " fill="#000000"/><text fill="#000000" font-family="sans-serif" font-size="12" font-style="italic" lengthAdjust="spacing" textLength="124" x="475" y="327.4355">&#171;EnumerationType&#187;</text><text fill="#000000" font-family="sans-serif" font-size="14" lengthAdjust="spacing" textLength="130" x="472" y="343.2607">CustomerDiscount</text><line style="stroke:#181818;stroke-width:0.5;" x1="444" x2="604" y1="351.5625" y2="351.5625"/><line style="stroke:#181818;stroke-width:0.5;" x1="444" x2="604" y1="359.5625" y2="359.5625"/></g><!--class G2--><g id="elem_G2"><rect codeLine="3" fill="#F1F1F1" height="48" id="G2" rx="2.5" ry="2.5" style="stroke:#181818;stroke-width:0.5;" width="118" x="465" y="228.2969"/><ellipse cx="480" cy="244.2969" fill="#DDAAFF" rx="11" ry="11" style="stroke:#181818;stroke-width:1.0;"/><path d="M481.2344,248.0625 L481.2344,245.6875 L479.5625,245.6875 L479.5625,243.625 L483.375,243.625 L483.375,249.3125 Q482.6719,249.9219 481.8125,250.2344 Q480.9688,250.5313 480,250.5313 Q477.5938,250.5313 476.2813,248.8594 Q474.9688,247.1875 474.9688,244.1094 Q474.9688,240.9844 476.2969,239.3281 Q477.625,237.6719 480.125,237.6719 Q480.8594,237.6719 481.5781,237.8906 Q482.3125,238.1094 482.9375,238.5 L482.9375,241.2188 Q482.4219,240.5469 481.75,240.2188 Q481.0938,239.875 480.2969,239.875 Q478.8906,239.875 478.2031,240.9375 Q477.5156,241.9844 477.5156,244.1094 Q477.5156,246.1719 478.1719,247.2656 Q478.8438,248.3438 480.125,248.3438 Q480.5,248.3438 480.7813,248.2813 Q481.0625,248.2031 481.2344,248.0625 Z " fill="#000000"/><text fill="#000000" font-family="sans-serif" font-size="14" lengthAdjust="spacing" textLength="86" x="494" y="249.1436">Employment</text><line style="stroke:#181818;stroke-width:0.5;" x1="466" x2="582" y1="260.2969" y2="260.2969"/><line style="stroke:#181818;stroke-width:0.5;" x1="466" x2="582" y1="268.2969" y2="268.2969"/></g><!--class field_3920--><g id="elem_field_3920"><rect codeLine="11" fill="#FFFFFF" height="56.2656" id="field_3920" rx="2.5" ry="2.5" style="stroke:#181818;stroke-width:0.5;" width="121" x="749.5" y="269.2969"/><ellipse cx="764.5" cy="289.4297" fill="#DDFFAA" rx="11" ry="11" style="stroke:#181818;stroke-width:1.0;"/><path d="M768.7344,285.1953 L763.4531,285.1953 L763.4531,287.8672 L768.25,287.8672 L768.25,290.0234 L763.4531,290.0234 L763.4531,295.4297 L761.0156,295.4297 L761.0156,283.0391 L768.7344,283.0391 L768.7344,285.1953 Z " fill="#000000"/><text fill="#000000" font-family="sans-serif" font-size="12" font-style="italic" lengthAdjust="spacing" textLength="93" x="776.5" y="285.4355">&#171;NumberType&#187;</text><text fill="#000000" font-family="sans-serif" font-size="14" lengthAdjust="spacing" textLength="51" x="797.5" y="301.2607">income</text><line style="stroke:#181818;stroke-width:0.5;" x1="750.5" x2="869.5" y1="309.5625" y2="309.5625"/><line style="stroke:#181818;stroke-width:0.5;" x1="750.5" x2="869.5" y1="317.5625" y2="317.5625"/></g><!--class field_1c326--><g id="elem_field_1c326"><rect codeLine="11" fill="#FFFFFF" height="56.2656" id="field_1c326" rx="2.5" ry="2.5" style="stroke:#181818;stroke-width:0.5;" width="121" x="749.5" y="178.2969"/><ellipse cx="764.5" cy="198.4297" fill="#DDFFAA" rx="11" ry="11" style="stroke:#181818;stroke-width:1.0;"/><path d="M768.7344,194.1953 L763.4531,194.1953 L763.4531,196.8672 L768.25,196.8672 L768.25,199.0234 L763.4531,199.0234 L763.4531,204.4297 L761.0156,204.4297 L761.0156,192.0391 L768.7344,192.0391 L768.7344,194.1953 Z " fill="#000000"/><text fill="#000000" font-family="sans-serif" font-size="12" font-style="italic" lengthAdjust="spacing" textLength="93" x="776.5" y="194.4355">&#171;NumberType&#187;</text><text fill="#000000" font-family="sans-serif" font-size="14" lengthAdjust="spacing" textLength="20" x="813" y="210.2607">tax</text><line style="stroke:#181818;stroke-width:0.5;" x1="750.5" x2="869.5" y1="218.5625" y2="218.5625"/><line style="stroke:#181818;stroke-width:0.5;" x1="750.5" x2="869.5" y1="226.5625" y2="226.5625"/></g><!--class computation_8a180--><g id="elem_computation_8a180"><rect codeLine="32" fill="#FFEEDD" height="64.2969" id="computation_8a180" rx="2.5" ry="2.5" style="stroke:#181818;stroke-width:0.5;" width="145" x="737.5" y="79.2969"/><ellipse cx="752.5" cy="95.2969" fill="#DDBBAA" rx="11" ry="11" style="stroke:#181818;stroke-width:1.0;"/><path d="M755.4688,100.9375 Q754.8906,101.2344 754.25,101.375 Q753.6094,101.5313 752.9063,101.5313 Q750.4063,101.5313 749.0781,99.8906 Q747.7656,98.2344 747.7656,95.1094 Q747.7656,91.9844 749.0781,90.3281 Q750.4063,88.6719 752.9063,88.6719 Q753.6094,88.6719 754.25,88.8281 Q754.9063,88.9844 755.4688,89.2813 L755.4688,92 Q754.8438,91.4219 754.25,91.1563 Q753.6563,90.875 753.0313,90.875 Q751.6875,90.875 751,91.9531 Q750.3125,93.0156 750.3125,95.1094 Q750.3125,97.2031 751,98.2813 Q751.6875,99.3438 753.0313,99.3438 Q753.6563,99.3438 754.25,99.0781 Q754.8438,98.7969 755.4688,98.2188 L755.4688,100.9375 Z " fill="#000000"/><text fill="#000000" font-family="sans-serif" font-size="14" lengthAdjust="spacing" textLength="113" x="766.5" y="100.1436">TaxComputation</text><line style="stroke:#181818;stroke-width:0.5;" x1="738.5" x2="881.5" y1="111.2969" y2="111.2969"/><text fill="#000000" font-family="sans-serif" font-size="14" lengthAdjust="spacing" textLength="112" x="743.5" y="128.292">computes: ../tax</text><line style="stroke:#181818;stroke-width:0.5;" x1="738.5" x2="881.5" y1="135.5938" y2="135.5938"/></g><!--class field_114de--><g id="elem_field_114de"><rect codeLine="11" fill="#FFFFFF" height="56.2656" id="field_114de" rx="2.5" ry="2.5" style="stroke:#181818;stroke-width:0.5;" width="135" x="456.5" y="137.2969"/><ellipse cx="471.5" cy="157.4297" fill="#DDFFAA" rx="11" ry="11" style="stroke:#181818;stroke-width:1.0;"/><path d="M475.7344,153.1953 L470.4531,153.1953 L470.4531,155.8672 L475.25,155.8672 L475.25,158.0234 L470.4531,158.0234 L470.4531,163.4297 L468.0156,163.4297 L468.0156,151.0391 L475.7344,151.0391 L475.7344,153.1953 Z " fill="#000000"/><text fill="#000000" font-family="sans-serif" font-size="12" font-style="italic" lengthAdjust="spacing" textLength="81" x="496.5" y="153.4355">&#171;StringType&#187;</text><text fill="#000000" font-family="sans-serif" font-size="14" lengthAdjust="spacing" textLength="103" x="485.5" y="169.2607">PersonOrEntity</text><line style="stroke:#181818;stroke-width:0.5;" x1="457.5" x2="590.5" y1="177.5625" y2="177.5625"/><line style="stroke:#181818;stroke-width:0.5;" x1="457.5" x2="590.5" y1="185.5625" y2="185.5625"/></g><!--link G77 to F21--><g id="link_G77_F21"><path codeLine="83" d="M531.8,835.4169 C559.97,935.2869 666,1311.2969 666,1311.2969 C666,1311.2969 701.19,1322.6169 736.66,1334.0269 " fill="none" id="G77-F21" style="stroke:#181818;stroke-width:1.0;"/></g><!--link G77 to F22--><g id="link_G77_F22"><path codeLine="85" d="M533.29,835.3569 C563.52,923.0269 666,1220.2969 666,1220.2969 C666,1220.2969 700.64,1231.4369 735.82,1242.7569 " fill="none" id="G77-F22" style="stroke:#181818;stroke-width:1.0;"/></g><!--link G77 to F23--><g id="link_G77_F23"><path codeLine="87" d="M535.71,835.4569 C568.62,909.6669 666,1129.2969 666,1129.2969 C666,1129.2969 714.77,1144.9869 755.35,1158.0369 " fill="none" id="G77-F23" style="stroke:#181818;stroke-width:1.0;"/></g><!--link G77 to F24--><g id="link_G77_F24"><path codeLine="89" d="M540.09,835.5869 C576.46,894.1469 666,1038.2969 666,1038.2969 C666,1038.2969 706.66,1051.3769 744.61,1063.5869 " fill="none" id="G77-F24" style="stroke:#181818;stroke-width:1.0;"/></g><!--link G77 to F25--><g id="link_G77_F25"><path codeLine="91" d="M549.88,835.2969 C590.36,874.3369 666,947.2969 666,947.2969 C666,947.2969 710,961.4469 749.18,974.0569 " fill="none" id="G77-F25" style="stroke:#181818;stroke-width:1.0;"/></g><!--link G77 to F26--><g id="link_G77_F26"><path codeLine="93" d="M580.09,828.9469 C630.58,845.1269 704.89,868.9369 755.02,884.9969 " fill="none" id="G77-F26" style="stroke:#181818;stroke-width:1.0;"/></g><!--link G77 to F27--><g id="link_G77_F27"><path codeLine="95" d="M580.09,811.2969 C630.58,811.2969 704.89,811.2969 755.02,811.2969 " fill="none" id="G77-F27" style="stroke:#181818;stroke-width:1.0;"/></g><!--link G77 to F28--><g id="link_G77_F28"><path codeLine="97" d="M580.32,793.2469 C619.82,780.3569 666,765.2969 666,765.2969 C666,765.2969 714.77,749.9469 755.35,737.1769 " fill="none" id="G77-F28" style="stroke:#181818;stroke-width:1.0;"/></g><!--link G77 to R29--><g id="link_G77_R29"><path codeLine="100" d="M549.88,787.1169 C590.36,747.7869 666,674.2969 666,674.2969 C666,674.2969 693.86,666.3069 724.99,657.3869 " fill="none" id="G77-R29" style="stroke:#181818;stroke-width:1.0;"/></g><!--link G77 to R30--><g id="link_G77_R30"><path codeLine="103" d="M540.63,786.9169 C577.34,729.6369 666,591.2969 666,591.2969 C666,591.2969 693.86,583.3069 724.99,574.3869 " fill="none" id="G77-R30" style="stroke:#181818;stroke-width:1.0;"/></g><!--link G77 to R31--><g id="link_G77_R31"><path codeLine="106" d="M537.66,787.2369 C560.44,743.9169 606,657.2969 606,657.2969 C606,657.2969 666,508.2969 666,508.2969 C666,508.2969 693.86,500.3069 724.99,491.3869 " fill="none" id="G77-R31" style="stroke:#181818;stroke-width:1.0;"/></g><!--link G77 to R32--><g id="link_G77_R32"><path codeLine="109" d="M537.66,787.2369 C560.44,743.9169 606,657.2969 606,657.2969 C606,657.2969 666,425.2969 666,425.2969 C666,425.2969 694.61,417.0969 726.23,408.0269 " fill="none" id="G77-R32" style="stroke:#181818;stroke-width:1.0;"/></g><!--link group_36405 to G77--><g id="link_group_36405_G77"><path codeLine="111" d="M312.1582,461.2695 C353.4482,529.8095 457.712,702.9083 499.102,771.6183 " fill="none" id="group_36405-G77" style="stroke:#181818;stroke-width:1.0;"/><line style="stroke:#181818;stroke-width:1.0;" x1="306.6678" x2="313.5204" y1="459.9073" y2="455.7791"/><line style="stroke:#181818;stroke-width:1.0;" x1="308.2158" x2="315.0684" y1="462.477" y2="458.3488"/><line style="stroke:#181818;stroke-width:1.0;" x1="312.1582" x2="308.03" y1="461.2695" y2="454.4169"/><line style="stroke:#181818;stroke-width:1.0;" x1="504.262" x2="513.5295" y1="780.1842" y2="783.9409"/><line style="stroke:#181818;stroke-width:1.0;" x1="504.262" x2="503.2505" y1="780.1842" y2="790.1329"/><line style="stroke:#181818;stroke-width:1.0;" x1="504.262" x2="508.39" y1="780.1842" y2="787.0369"/><ellipse cx="501.166" cy="775.0446" fill="none" rx="4" ry="4" style="stroke:#181818;stroke-width:1.0;"/><text fill="#000000" font-family="sans-serif" font-size="13" lengthAdjust="spacing" textLength="32" x="468.6851" y="776.3785">0..99</text></g><!--link group_36405 to field_fe6b2--><g id="link_group_36405_field_fe6b2"><path codeLine="113" d="M319.71,454.2969 C362.34,493.3369 442,566.2969 442,566.2969 C442,566.2969 456.68,574.6369 473.55,584.2169 " fill="none" id="group_36405-field_fe6b2" style="stroke:#181818;stroke-width:1.0;"/></g><!--link group_36405 to field_d6580--><g id="link_group_36405_field_d6580"><path codeLine="115" d="M354.1,454.3269 C384.24,466.2769 420.86,480.7969 452.28,493.2569 " fill="none" id="group_36405-field_d6580" style="stroke:#181818;stroke-width:1.0;"/></g><!--link group_36405 to field_663d2--><g id="link_group_36405_field_663d2"><path codeLine="117" d="M382.23,430.2969 C401.78,430.2969 422.4,430.2969 441.64,430.2969 " fill="none" id="group_36405-field_663d2" style="stroke:#181818;stroke-width:1.0;"/></g><!--link group_36405 to field_74a24--><g id="link_group_36405_field_74a24"><path codeLine="119" d="M354.1,406.2669 C384.24,394.3169 420.86,379.7969 452.28,367.3369 " fill="none" id="group_36405-field_74a24" style="stroke:#181818;stroke-width:1.0;"/></g><!--link G2 to field_3920--><g id="link_G2_field_3920"><path codeLine="122" d="M583.16,261.5169 C631.68,269.1969 700.55,280.1169 749.45,287.8669 " fill="none" id="G2-field_3920" style="stroke:#181818;stroke-width:1.0;"/></g><!--link G2 to field_1c326--><g id="link_G2_field_1c326"><path codeLine="124" d="M583.16,242.8769 C631.68,235.0169 700.55,223.8669 749.45,215.9369 " fill="none" id="G2-field_1c326" style="stroke:#181818;stroke-width:1.0;"/></g><!--link G2 to computation_8a180--><g id="link_G2_computation_8a180"><path codeLine="128" d="M571.65,228.1069 C589.65,218.7769 606,210.2969 606,210.2969 C606,210.2969 666,160.2969 666,160.2969 C666,160.2969 701.47,148.1469 737.08,135.9369 " fill="none" id="G2-computation_8a180" style="stroke:#181818;stroke-width:1.0;"/></g><!--link group_36405 to G2--><g id="link_group_36405_G2"><path codeLine="130" d="M325.5899,400.6922 C368.2199,361.3622 442,293.2969 442,293.2969 C442,293.2969 444.3956,292.0788 462.0256,283.1588 " fill="none" id="group_36405-G2" style="stroke:#181818;stroke-width:1.0;"/><line style="stroke:#181818;stroke-width:1.0;" x1="325.3623" x2="319.9376" y1="406.3445" y2="400.4646"/><line style="stroke:#181818;stroke-width:1.0;" x1="327.5672" x2="322.1425" y1="404.3102" y2="398.4303"/><line style="stroke:#181818;stroke-width:1.0;" x1="325.5899" x2="319.71" y1="400.6922" y2="406.1169"/><line style="stroke:#181818;stroke-width:1.0;" x1="465.5948" x2="475.41" y1="281.3529" y2="276.3869"/><ellipse cx="465.5948" cy="281.3529" fill="none" rx="4" ry="4" style="stroke:#181818;stroke-width:1.0;"/><line style="stroke:#181818;stroke-width:1.0;" x1="470.035" x2="473.6467" y1="274.6235" y2="281.7619"/><text fill="#000000" font-family="sans-serif" font-size="13" lengthAdjust="spacing" textLength="24" x="436.6412" y="296.17">0..1</text></g><!--link group_36405 to field_114de--><g id="link_group_36405_field_114de"><path codeLine="132" d="M309.96,405.9169 C348.62,348.6369 442,210.2969 442,210.2969 C442,210.2969 455.89,202.5769 472.16,193.5369 " fill="none" id="group_36405-field_114de" style="stroke:#181818;stroke-width:1.0;"/></g><!--link BusinessPartnerSuperDocumentRoot to group_36405--><g id="link_BusinessPartnerSuperDocumentRoot_group_36405"><path codeLine="134" d="M100.13,430.2969 C118.83,430.2969 143.65,430.2969 187.76,430.2969 " fill="none" id="BusinessPartnerSuperDocumentRoot-group_36405" style="stroke:#181818;stroke-width:1.0;"/><line style="stroke:#181818;stroke-width:1.0;" x1="96.13" x2="96.13" y1="434.2969" y2="426.2969"/><line style="stroke:#181818;stroke-width:1.0;" x1="99.13" x2="99.13" y1="434.2969" y2="426.2969"/><line style="stroke:#181818;stroke-width:1.0;" x1="100.13" x2="92.13" y1="430.2969" y2="430.2969"/><line style="stroke:#181818;stroke-width:1.0;" x1="191.76" x2="202.76" y1="430.2969" y2="430.2969"/><ellipse cx="191.76" cy="430.2969" fill="none" rx="4" ry="4" style="stroke:#181818;stroke-width:1.0;"/><line style="stroke:#181818;stroke-width:1.0;" x1="198.76" x2="198.76" y1="426.2969" y2="434.2969"/><text fill="#000000" font-family="sans-serif" font-size="13" lengthAdjust="spacing" textLength="24" x="170.9705" y="442.9431">0..1</text></g></g></svg>