<?xml version="1.0" encoding="us-ascii" standalone="no"?><svg xmlns="http://www.w3.org/2000/svg" xmlns:xlink="http://www.w3.org/1999/xlink" contentStyleType="text/css" height="438px" preserveAspectRatio="none" style="width:573px;height:438px;background:#FFFFFF;" version="1.1" viewBox="0 0 573 438" width="573px" zoomAndPan="magnify"><defs/><g><text fill="#000000" font-family="sans-serif" font-size="14" font-weight="bold" lengthAdjust="spacing" textLength="342" x="108.5" y="22.9951">Document Model CoInsuredAdditionalFields</text><!--cluster CoInsuredAdditionalFields--><g id="cluster_CoInsuredAdditionalFields"><rect fill="none" height="388" rx="2.5" ry="2.5" style="stroke:#181818;stroke-width:1.0;" width="560" x="7" y="44.2969"/><path d="M222,44.2969 L222,53.5938 L212,63.5938 L7,63.5938 " fill="none" style="stroke:#181818;stroke-width:1.0;"/><text fill="#000000" font-family="sans-serif" font-size="14" font-weight="bold" lengthAdjust="spacing" textLength="205" x="10" y="58.292">CoInsuredAdditionalFields</text></g><!--entity CoInsuredAdditionalFieldsDocumentRoot--><g id="elem_CoInsuredAdditionalFieldsDocumentRoot"><ellipse cx="83" cy="252.2969" fill="#F1F1F1" rx="8" ry="8" style="stroke:#181818;stroke-width:0.5;"/><text fill="#000000" font-family="sans-serif" font-size="14" lengthAdjust="spacing" textLength="104" x="31" y="282.292">documentRoot</text></g><!--class group_3cab4--><g id="elem_group_3cab4"><rect codeLine="3" fill="#F1F1F1" height="48" id="group_3cab4" rx="2.5" ry="2.5" style="stroke:#181818;stroke-width:0.5;" width="136" x="203" y="228.2969"/><ellipse cx="218" cy="244.2969" fill="#DDAAFF" rx="11" ry="11" style="stroke:#181818;stroke-width:1.0;"/><path d="M219.2344,248.0625 L219.2344,245.6875 L217.5625,245.6875 L217.5625,243.625 L221.375,243.625 L221.375,249.3125 Q220.6719,249.9219 219.8125,250.2344 Q218.9688,250.5313 218,250.5313 Q215.5938,250.5313 214.2813,248.8594 Q212.9688,247.1875 212.9688,244.1094 Q212.9688,240.9844 214.2969,239.3281 Q215.625,237.6719 218.125,237.6719 Q218.8594,237.6719 219.5781,237.8906 Q220.3125,238.1094 220.9375,238.5 L220.9375,241.2188 Q220.4219,240.5469 219.75,240.2188 Q219.0938,239.875 218.2969,239.875 Q216.8906,239.875 216.2031,240.9375 Q215.5156,241.9844 215.5156,244.1094 Q215.5156,246.1719 216.1719,247.2656 Q216.8438,248.3438 218.125,248.3438 Q218.5,248.3438 218.7813,248.2813 Q219.0625,248.2031 219.2344,248.0625 Z " fill="#000000"/><text fill="#000000" font-family="sans-serif" font-size="14" lengthAdjust="spacing" textLength="104" x="232" y="249.1436">CoInsuredRoot</text><line style="stroke:#181818;stroke-width:0.5;" x1="204" x2="338" y1="260.2969" y2="260.2969"/><line style="stroke:#181818;stroke-width:0.5;" x1="204" x2="338" y1="268.2969" y2="268.2969"/></g><!--class field_aa07e--><g id="elem_field_aa07e"><rect codeLine="11" fill="#FFFFFF" height="56.2656" id="field_aa07e" rx="2.5" ry="2.5" style="stroke:#181818;stroke-width:0.5;" width="109" x="420.5" y="360.2969"/><ellipse cx="435.5" cy="380.4297" fill="#DDFFAA" rx="11" ry="11" style="stroke:#181818;stroke-width:1.0;"/><path d="M439.7344,376.1953 L434.4531,376.1953 L434.4531,378.8672 L439.25,378.8672 L439.25,381.0234 L434.4531,381.0234 L434.4531,386.4297 L432.0156,386.4297 L432.0156,374.0391 L439.7344,374.0391 L439.7344,376.1953 Z " fill="#000000"/><text fill="#000000" font-family="sans-serif" font-size="12" font-style="italic" lengthAdjust="spacing" textLength="81" x="447.5" y="376.4355">&#171;StringType&#187;</text><text fill="#000000" font-family="sans-serif" font-size="14" lengthAdjust="spacing" textLength="40" x="468" y="392.2607">Name</text><line style="stroke:#181818;stroke-width:0.5;" x1="421.5" x2="528.5" y1="400.5625" y2="400.5625"/><line style="stroke:#181818;stroke-width:0.5;" x1="421.5" x2="528.5" y1="408.5625" y2="408.5625"/></g><!--class field_d5f5f--><g id="elem_field_d5f5f"><rect codeLine="11" fill="#FFFFFF" height="56.2656" id="field_d5f5f" rx="2.5" ry="2.5" style="stroke:#181818;stroke-width:0.5;" width="109" x="420.5" y="269.2969"/><ellipse cx="435.5" cy="289.4297" fill="#DDFFAA" rx="11" ry="11" style="stroke:#181818;stroke-width:1.0;"/><path d="M439.7344,285.1953 L434.4531,285.1953 L434.4531,287.8672 L439.25,287.8672 L439.25,290.0234 L434.4531,290.0234 L434.4531,295.4297 L432.0156,295.4297 L432.0156,283.0391 L439.7344,283.0391 L439.7344,285.1953 Z " fill="#000000"/><text fill="#000000" font-family="sans-serif" font-size="12" font-style="italic" lengthAdjust="spacing" textLength="81" x="447.5" y="285.4355">&#171;StringType&#187;</text><text fill="#000000" font-family="sans-serif" font-size="14" lengthAdjust="spacing" textLength="14" x="481" y="301.2607">ID</text><line style="stroke:#181818;stroke-width:0.5;" x1="421.5" x2="528.5" y1="309.5625" y2="309.5625"/><line style="stroke:#181818;stroke-width:0.5;" x1="421.5" x2="528.5" y1="317.5625" y2="317.5625"/></g><!--class field_d6580--><g id="elem_field_d6580"><rect codeLine="11" fill="#FFFFFF" height="56.2656" id="field_d6580" rx="2.5" ry="2.5" style="stroke:#181818;stroke-width:0.5;" width="152" x="399" y="178.2969"/><ellipse cx="414" cy="198.4297" fill="#DDFFAA" rx="11" ry="11" style="stroke:#181818;stroke-width:1.0;"/><path d="M418.2344,194.1953 L412.9531,194.1953 L412.9531,196.8672 L417.75,196.8672 L417.75,199.0234 L412.9531,199.0234 L412.9531,204.4297 L410.5156,204.4297 L410.5156,192.0391 L418.2344,192.0391 L418.2344,194.1953 Z " fill="#000000"/><text fill="#000000" font-family="sans-serif" font-size="12" font-style="italic" lengthAdjust="spacing" textLength="124" x="426" y="194.4355">&#171;EnumerationType&#187;</text><text fill="#000000" font-family="sans-serif" font-size="14" lengthAdjust="spacing" textLength="31" x="472.5" y="210.2607">Role</text><line style="stroke:#181818;stroke-width:0.5;" x1="400" x2="550" y1="218.5625" y2="218.5625"/><line style="stroke:#181818;stroke-width:0.5;" x1="400" x2="550" y1="226.5625" y2="226.5625"/></g><!--class computation_65146--><g id="elem_computation_65146"><rect codeLine="32" fill="#FFEEDD" height="64.2969" id="computation_65146" rx="2.5" ry="2.5" style="stroke:#181818;stroke-width:0.5;" width="118" x="416" y="79.2969"/><ellipse cx="451.25" cy="95.2969" fill="#DDBBAA" rx="11" ry="11" style="stroke:#181818;stroke-width:1.0;"/><path d="M454.2188,100.9375 Q453.6406,101.2344 453,101.375 Q452.3594,101.5313 451.6563,101.5313 Q449.1563,101.5313 447.8281,99.8906 Q446.5156,98.2344 446.5156,95.1094 Q446.5156,91.9844 447.8281,90.3281 Q449.1563,88.6719 451.6563,88.6719 Q452.3594,88.6719 453,88.8281 Q453.6563,88.9844 454.2188,89.2813 L454.2188,92 Q453.5938,91.4219 453,91.1563 Q452.4063,90.875 451.7813,90.875 Q450.4375,90.875 449.75,91.9531 Q449.0625,93.0156 449.0625,95.1094 Q449.0625,97.2031 449.75,98.2813 Q450.4375,99.3438 451.7813,99.3438 Q452.4063,99.3438 453,99.0781 Q453.5938,98.7969 454.2188,98.2188 L454.2188,100.9375 Z " fill="#000000"/><text fill="#000000" font-family="sans-serif" font-size="14" lengthAdjust="spacing" textLength="41" x="469.75" y="100.1436">AddID</text><line style="stroke:#181818;stroke-width:0.5;" x1="417" x2="533" y1="111.2969" y2="111.2969"/><text fill="#000000" font-family="sans-serif" font-size="14" lengthAdjust="spacing" textLength="106" x="422" y="128.292">computes: ../ID</text><line style="stroke:#181818;stroke-width:0.5;" x1="417" x2="533" y1="135.5938" y2="135.5938"/></g><!--link group_3cab4 to field_aa07e--><g id="link_group_3cab4_field_aa07e"><path codeLine="82" d="M306.03,276.4169 C343.65,303.0769 399,342.2969 399,342.2969 C399,342.2969 412.6,350.6369 428.21,360.2169 " fill="none" id="group_3cab4-field_aa07e" style="stroke:#181818;stroke-width:1.0;"/></g><!--link group_3cab4 to field_d5f5f--><g id="link_group_3cab4_field_d5f5f"><path codeLine="84" d="M339.26,267.2769 C365.66,273.1569 395.53,279.8169 420.43,285.3669 " fill="none" id="group_3cab4-field_d5f5f" style="stroke:#181818;stroke-width:1.0;"/></g><!--link group_3cab4 to field_d6580--><g id="link_group_3cab4_field_d6580"><path codeLine="86" d="M339.26,236.9769 C358.31,232.6369 379.18,227.8869 398.67,223.4469 " fill="none" id="group_3cab4-field_d6580" style="stroke:#181818;stroke-width:1.0;"/></g><!--link group_3cab4 to computation_65146--><g id="link_group_3cab4_computation_65146"><path codeLine="90" d="M305.37,228.1269 C343,200.8669 399,160.2969 399,160.2969 C399,160.2969 410.67,152.6669 424.81,143.4369 " fill="none" id="group_3cab4-computation_65146" style="stroke:#181818;stroke-width:1.0;"/></g><!--link CoInsuredAdditionalFieldsDocumentRoot to group_3cab4--><g id="link_CoInsuredAdditionalFieldsDocumentRoot_group_3cab4"><path codeLine="92" d="M100.48,252.2969 C119.88,252.2969 146.06,252.2969 187.75,252.2969 " fill="none" id="CoInsuredAdditionalFieldsDocumentRoot-group_3cab4" style="stroke:#181818;stroke-width:1.0;"/><line style="stroke:#181818;stroke-width:1.0;" x1="96.48" x2="96.48" y1="256.2969" y2="248.2969"/><line style="stroke:#181818;stroke-width:1.0;" x1="99.48" x2="99.48" y1="256.2969" y2="248.2969"/><line style="stroke:#181818;stroke-width:1.0;" x1="100.48" x2="92.48" y1="252.2969" y2="252.2969"/><line style="stroke:#181818;stroke-width:1.0;" x1="191.75" x2="202.75" y1="252.2969" y2="252.2969"/><ellipse cx="191.75" cy="252.2969" fill="none" rx="4" ry="4" style="stroke:#181818;stroke-width:1.0;"/><line style="stroke:#181818;stroke-width:1.0;" x1="198.75" x2="198.75" y1="248.2969" y2="256.2969"/><text fill="#000000" font-family="sans-serif" font-size="13" lengthAdjust="spacing" textLength="24" x="171.1012" y="265.0849">0..1</text></g></g></svg>