<svg xmlns="http://www.w3.org/2000/svg" xmlns:xlink="http://www.w3.org/1999/xlink" contentStyleType="text/css" data-diagram-type="CLASS" height="1360px" preserveAspectRatio="none" style="width:561px;height:1360px;background:#FFFFFF;" version="1.1" viewBox="0 0 561 1360" width="561px" zoomAndPan="magnify"><?plantuml 1.2026.6?><defs/><g><g class="title" data-source-line="76"><text fill="#000000" font-family="sans-serif" font-size="14" font-weight="700" lengthAdjust="spacing" textLength="317.0508" x="118.8396" y="23.5352">Document Model CoInsuredAdditionalFields</text></g><!--cluster CoInsuredAdditionalFields--><g class="cluster" data-qualified-name="CoInsuredAdditionalFields" data-source-line="78" id="ent0001"><rect fill="none" height="1302" rx="2.5" ry="2.5" style="stroke:#181818;stroke-width:1;" width="540.73" x="7" y="44.4883"/><path d="M207.8047,44.4883 L207.8047,53.9766 L197.8047,63.9766 L7,63.9766" fill="none" style="stroke:#181818;stroke-width:1;"/><text fill="#000000" font-family="sans-serif" font-size="14" font-weight="700" lengthAdjust="spacing" textLength="190.8047" x="10" y="59.0234">CoInsuredAdditionalFields</text></g><!--entity CoInsuredAdditionalFieldsDocumentRoot--><g class="entity" data-qualified-name="CoInsuredAdditionalFields.CoInsuredAdditionalFieldsDocumentRoot" data-source-line="79" id="ent0002"><ellipse cx="80" cy="746.4883" fill="#F1F1F1" rx="8" ry="8" style="stroke:#181818;stroke-width:0.5;"/><text fill="#000000" font-family="sans-serif" font-size="14" lengthAdjust="spacing" textLength="99.3535" x="30.3232" y="777.0234">documentRoot</text></g><!--class group_3cab4--><g class="entity" data-qualified-name="CoInsuredAdditionalFields.group_3cab4" data-source-line="3" id="ent0003"><rect fill="#F1F1F1" height="48" rx="2.5" ry="2.5" style="stroke:#181818;stroke-width:0.5;" width="132.4609" x="197" y="1002.4883"/><ellipse cx="212" cy="1018.4883" fill="#DDAAFF" rx="11" ry="11" style="stroke:#181818;stroke-width:1;"/><path d="M213.2383,1022.7471 L213.2383,1020.3813 L211.5615,1020.3813 L211.5615,1018.3228 L215.3799,1018.3228 L215.3799,1024.0005 Q214.6743,1024.6064 213.8235,1024.9177 Q212.9727,1025.229 212.0015,1025.229 Q209.5942,1025.229 208.2827,1023.5564 Q206.9712,1021.8838 206.9712,1018.8042 Q206.9712,1015.6748 208.2952,1014.0229 Q209.6191,1012.3711 212.1177,1012.3711 Q212.8647,1012.3711 213.5869,1012.5828 Q214.3091,1012.7944 214.9399,1013.1929 L214.9399,1015.9072 Q214.4253,1015.2432 213.7571,1014.907 Q213.0889,1014.5708 212.292,1014.5708 Q210.8975,1014.5708 210.2085,1015.6208 Q209.5195,1016.6709 209.5195,1018.8042 Q209.5195,1020.8711 210.1836,1021.9502 Q210.8477,1023.0293 212.1177,1023.0293 Q212.4995,1023.0293 212.7817,1022.9587 Q213.064,1022.8882 213.2383,1022.7471 Z " fill="#000000"/><text fill="#000000" font-family="sans-serif" font-size="14" lengthAdjust="spacing" textLength="100.4609" x="226" y="1023.7793">CoInsuredRoot</text><line style="stroke:#181818;stroke-width:0.5;" x1="198" x2="328.4609" y1="1034.4883" y2="1034.4883"/><line style="stroke:#181818;stroke-width:0.5;" x1="198" x2="328.4609" y1="1042.4883" y2="1042.4883"/></g><!--class field_aa07e--><g class="entity" data-qualified-name="CoInsuredAdditionalFields.field_aa07e" data-source-line="11" id="ent0004"><rect fill="#FFFFFF" height="56.6211" rx="2.5" ry="2.5" style="stroke:#181818;stroke-width:0.5;" width="102.9297" x="409.13" y="1274.1783"/><ellipse cx="424.13" cy="1294.4888" fill="#DDFFAA" rx="11" ry="11" style="stroke:#181818;stroke-width:1;"/><path d="M427.8605,1290.754 L422.5895,1290.754 L422.5895,1293.4268 L427.3873,1293.4268 L427.3873,1295.585 L422.5895,1295.585 L422.5895,1300.9888 L420.1407,1300.9888 L420.1407,1288.5958 L427.8605,1288.5958 Z " fill="#000000"/><text fill="#000000" font-family="sans-serif" font-size="12" font-style="italic" lengthAdjust="spacing" textLength="74.9297" x="436.13" y="1290.7798">&#171;StringType&#187;</text><text fill="#000000" font-family="sans-serif" font-size="14" lengthAdjust="spacing" textLength="38.9443" x="454.1227" y="1306.8463">Name</text><line style="stroke:#181818;stroke-width:0.5;" x1="410.13" x2="511.0597" y1="1314.7994" y2="1314.7994"/><line style="stroke:#181818;stroke-width:0.5;" x1="410.13" x2="511.0597" y1="1322.7994" y2="1322.7994"/></g><!--class field_d5f5f--><g class="entity" data-qualified-name="CoInsuredAdditionalFields.field_d5f5f" data-source-line="11" id="ent0006"><rect fill="#FFFFFF" height="56.6211" rx="2.5" ry="2.5" style="stroke:#181818;stroke-width:0.5;" width="102.9297" x="409.13" y="1182.1783"/><ellipse cx="424.13" cy="1202.4888" fill="#DDFFAA" rx="11" ry="11" style="stroke:#181818;stroke-width:1;"/><path d="M427.8605,1198.754 L422.5895,1198.754 L422.5895,1201.4268 L427.3873,1201.4268 L427.3873,1203.585 L422.5895,1203.585 L422.5895,1208.9888 L420.1407,1208.9888 L420.1407,1196.5958 L427.8605,1196.5958 Z " fill="#000000"/><text fill="#000000" font-family="sans-serif" font-size="12" font-style="italic" lengthAdjust="spacing" textLength="74.9297" x="436.13" y="1198.7798">&#171;StringType&#187;</text><text fill="#000000" font-family="sans-serif" font-size="14" lengthAdjust="spacing" textLength="14.5195" x="466.3351" y="1214.8463">ID</text><line style="stroke:#181818;stroke-width:0.5;" x1="410.13" x2="511.0597" y1="1222.7994" y2="1222.7994"/><line style="stroke:#181818;stroke-width:0.5;" x1="410.13" x2="511.0597" y1="1230.7994" y2="1230.7994"/></g><!--class field_d6580--><g class="entity" data-qualified-name="CoInsuredAdditionalFields.field_d6580" data-source-line="11" id="ent0008"><rect fill="#FFFFFF" height="56.6211" rx="2.5" ry="2.5" style="stroke:#181818;stroke-width:0.5;" width="142.2695" x="389.46" y="1090.1783"/><ellipse cx="404.46" cy="1110.4888" fill="#DDFFAA" rx="11" ry="11" style="stroke:#181818;stroke-width:1;"/><path d="M408.1905,1106.754 L402.9195,1106.754 L402.9195,1109.4268 L407.7173,1109.4268 L407.7173,1111.585 L402.9195,1111.585 L402.9195,1116.9888 L400.4707,1116.9888 L400.4707,1104.5958 L408.1905,1104.5958 Z " fill="#000000"/><text fill="#000000" font-family="sans-serif" font-size="12" font-style="italic" lengthAdjust="spacing" textLength="114.2695" x="416.46" y="1106.7798">&#171;EnumerationType&#187;</text><text fill="#000000" font-family="sans-serif" font-size="14" lengthAdjust="spacing" textLength="29.2988" x="458.9454" y="1122.8463">Role</text><line style="stroke:#181818;stroke-width:0.5;" x1="390.46" x2="530.7295" y1="1130.7994" y2="1130.7994"/><line style="stroke:#181818;stroke-width:0.5;" x1="390.46" x2="530.7295" y1="1138.7994" y2="1138.7994"/></g><!--class field_142e3--><g class="entity" data-qualified-name="CoInsuredAdditionalFields.field_142e3" data-source-line="11" id="ent0010"><rect fill="#FFFFFF" height="56.6211" rx="2.5" ry="2.5" style="stroke:#181818;stroke-width:0.5;" width="115.334" x="402.93" y="998.1783"/><ellipse cx="417.93" cy="1018.4888" fill="#DDFFAA" rx="11" ry="11" style="stroke:#181818;stroke-width:1;"/><path d="M421.6605,1014.754 L416.3895,1014.754 L416.3895,1017.4268 L421.1873,1017.4268 L421.1873,1019.585 L416.3895,1019.585 L416.3895,1024.9888 L413.9407,1024.9888 L413.9407,1012.5958 L421.6605,1012.5958 Z " fill="#000000"/><text fill="#000000" font-family="sans-serif" font-size="12" font-style="italic" lengthAdjust="spacing" textLength="87.334" x="429.93" y="1014.7798">&#171;NumberType&#187;</text><text fill="#000000" font-family="sans-serif" font-size="14" lengthAdjust="spacing" textLength="74.4229" x="436.3856" y="1030.8463">Percentage</text><line style="stroke:#181818;stroke-width:0.5;" x1="403.93" x2="517.264" y1="1038.7994" y2="1038.7994"/><line style="stroke:#181818;stroke-width:0.5;" x1="403.93" x2="517.264" y1="1046.7994" y2="1046.7994"/></g><!--class field_2e8e0--><g class="entity" data-qualified-name="CoInsuredAdditionalFields.field_2e8e0" data-source-line="11" id="ent0012"><rect fill="#FFFFFF" height="56.6211" rx="2.5" ry="2.5" style="stroke:#181818;stroke-width:0.5;" width="113.7236" x="403.73" y="906.1783"/><ellipse cx="418.73" cy="926.4888" fill="#DDFFAA" rx="11" ry="11" style="stroke:#181818;stroke-width:1;"/><path d="M422.4605,922.754 L417.1895,922.754 L417.1895,925.4268 L421.9873,925.4268 L421.9873,927.585 L417.1895,927.585 L417.1895,932.9888 L414.7407,932.9888 L414.7407,920.5958 L422.4605,920.5958 Z " fill="#000000"/><text fill="#000000" font-family="sans-serif" font-size="12" font-style="italic" lengthAdjust="spacing" textLength="67.459" x="439.8623" y="922.7798">&#171;DateType&#187;</text><text fill="#000000" font-family="sans-serif" font-size="14" lengthAdjust="spacing" textLength="81.7236" x="432.73" y="938.8463">SigningDate</text><line style="stroke:#181818;stroke-width:0.5;" x1="404.73" x2="516.4536" y1="946.7994" y2="946.7994"/><line style="stroke:#181818;stroke-width:0.5;" x1="404.73" x2="516.4536" y1="954.7994" y2="954.7994"/></g><!--class computation_65146--><g class="entity" data-qualified-name="CoInsuredAdditionalFields.computation_65146" data-source-line="32" id="ent0014"><rect fill="#FFEEDD" height="64.4883" rx="2.5" ry="2.5" style="stroke:#181818;stroke-width:0.5;" width="118.0938" x="401.55" y="806.2483"/><ellipse cx="436.4814" cy="822.2483" fill="#DDBBAA" rx="11" ry="11" style="stroke:#181818;stroke-width:1;"/><path d="M438.9545,828.3913 Q438.3735,828.6902 437.7343,828.8396 Q437.0952,828.989 436.3896,828.989 Q433.8828,828.989 432.5629,827.3371 Q431.2431,825.6853 431.2431,822.5642 Q431.2431,819.4348 432.5629,817.7829 Q433.8828,816.1311 436.3896,816.1311 Q437.0952,816.1311 437.7426,816.2805 Q438.3901,816.4299 438.9545,816.7288 L438.9545,819.4514 Q438.3237,818.8704 437.7302,818.6006 Q437.1367,818.3308 436.5058,818.3308 Q435.1611,818.3308 434.4763,819.3975 Q433.7915,820.4641 433.7915,822.5642 Q433.7915,824.656 434.4763,825.7226 Q435.1611,826.7893 436.5058,826.7893 Q437.1367,826.7893 437.7302,826.5195 Q438.3237,826.2497 438.9545,825.6687 Z " fill="#000000"/><text fill="#000000" font-family="sans-serif" font-size="14" lengthAdjust="spacing" textLength="41.8018" x="454.9106" y="827.5393">AddID</text><line style="stroke:#181818;stroke-width:0.5;" x1="402.55" x2="518.6438" y1="838.2483" y2="838.2483"/><text fill="#000000" font-family="sans-serif" font-size="14" lengthAdjust="spacing" textLength="106.0938" x="407.55" y="855.7834">computes: ../ID</text><line style="stroke:#181818;stroke-width:0.5;" x1="402.55" x2="518.6438" y1="862.7366" y2="862.7366"/></g><!--class abc6a6767a60488754aace2accb73824_group_8f4b1--><g class="entity" data-qualified-name="CoInsuredAdditionalFields.abc6a6767a60488754aace2accb73824_group_8f4b1" data-source-line="3" id="ent0017"><rect fill="#F1F1F1" height="48" rx="2.5" ry="2.5" style="stroke:#181818;stroke-width:0.5;" width="79.8379" x="223.31" y="442.4883"/><ellipse cx="238.31" cy="458.4883" fill="#DDAAFF" rx="11" ry="11" style="stroke:#181818;stroke-width:1;"/><path d="M239.5483,462.7471 L239.5483,460.3813 L237.8715,460.3813 L237.8715,458.3228 L241.6899,458.3228 L241.6899,464.0005 Q240.9843,464.6064 240.1335,464.9177 Q239.2827,465.229 238.3115,465.229 Q235.9042,465.229 234.5927,463.5564 Q233.2812,461.8838 233.2812,458.8042 Q233.2812,455.6748 234.6052,454.0229 Q235.9291,452.3711 238.4277,452.3711 Q239.1747,452.3711 239.8969,452.5828 Q240.6191,452.7944 241.2499,453.1929 L241.2499,455.9072 Q240.7353,455.2432 240.0671,454.907 Q239.3989,454.5708 238.602,454.5708 Q237.2075,454.5708 236.5185,455.6208 Q235.8295,456.6709 235.8295,458.8042 Q235.8295,460.8711 236.4936,461.9502 Q237.1577,463.0293 238.4277,463.0293 Q238.8095,463.0293 239.0917,462.9587 Q239.374,462.8882 239.5483,462.7471 Z " fill="#000000"/><text fill="#000000" font-family="sans-serif" font-size="14" lengthAdjust="spacing" textLength="47.8379" x="252.31" y="463.7793">__meta</text><line style="stroke:#181818;stroke-width:0.5;" x1="224.31" x2="302.1479" y1="474.4883" y2="474.4883"/><line style="stroke:#181818;stroke-width:0.5;" x1="224.31" x2="302.1479" y1="482.4883" y2="482.4883"/></g><!--class abc6a6767a60488754aace2accb73824_field_1169c--><g class="entity" data-qualified-name="CoInsuredAdditionalFields.abc6a6767a60488754aace2accb73824_field_1169c" data-source-line="11" id="ent0018"><rect fill="#FFFFFF" height="56.6211" rx="2.5" ry="2.5" style="stroke:#181818;stroke-width:0.5;" width="102.9297" x="409.13" y="714.1783"/><ellipse cx="424.13" cy="734.4888" fill="#DDFFAA" rx="11" ry="11" style="stroke:#181818;stroke-width:1;"/><path d="M427.8605,730.754 L422.5895,730.754 L422.5895,733.4268 L427.3873,733.4268 L427.3873,735.585 L422.5895,735.585 L422.5895,740.9888 L420.1407,740.9888 L420.1407,728.5958 L427.8605,728.5958 Z " fill="#000000"/><text fill="#000000" font-family="sans-serif" font-size="12" font-style="italic" lengthAdjust="spacing" textLength="74.9297" x="436.13" y="730.7798">&#171;StringType&#187;</text><text fill="#000000" font-family="sans-serif" font-size="14" lengthAdjust="spacing" textLength="46.3818" x="450.4039" y="746.8463">docRef</text><line style="stroke:#181818;stroke-width:0.5;" x1="410.13" x2="511.0597" y1="754.7994" y2="754.7994"/><line style="stroke:#181818;stroke-width:0.5;" x1="410.13" x2="511.0597" y1="762.7994" y2="762.7994"/></g><!--class abc6a6767a60488754aace2accb73824_field_cfb40--><g class="entity" data-qualified-name="CoInsuredAdditionalFields.abc6a6767a60488754aace2accb73824_field_cfb40" data-source-line="11" id="ent0020"><rect fill="#FFFFFF" height="56.6211" rx="2.5" ry="2.5" style="stroke:#181818;stroke-width:0.5;" width="141.1152" x="390.04" y="622.1783"/><ellipse cx="405.04" cy="642.4888" fill="#DDFFAA" rx="11" ry="11" style="stroke:#181818;stroke-width:1;"/><path d="M408.7705,638.754 L403.4995,638.754 L403.4995,641.4268 L408.2973,641.4268 L408.2973,643.585 L403.4995,643.585 L403.4995,648.9888 L401.0507,648.9888 L401.0507,636.5958 L408.7705,636.5958 Z " fill="#000000"/><text fill="#000000" font-family="sans-serif" font-size="12" font-style="italic" lengthAdjust="spacing" textLength="74.9297" x="436.1328" y="638.7798">&#171;StringType&#187;</text><text fill="#000000" font-family="sans-serif" font-size="14" lengthAdjust="spacing" textLength="109.1152" x="419.04" y="654.8463">modelReference</text><line style="stroke:#181818;stroke-width:0.5;" x1="391.04" x2="530.1552" y1="662.7994" y2="662.7994"/><line style="stroke:#181818;stroke-width:0.5;" x1="391.04" x2="530.1552" y1="670.7994" y2="670.7994"/></g><!--class abc6a6767a60488754aace2accb73824_field_17e3b--><g class="entity" data-qualified-name="CoInsuredAdditionalFields.abc6a6767a60488754aace2accb73824_field_17e3b" data-source-line="11" id="ent0022"><rect fill="#FFFFFF" height="56.6211" rx="2.5" ry="2.5" style="stroke:#181818;stroke-width:0.5;" width="125.4814" x="397.85" y="530.1783"/><ellipse cx="412.85" cy="550.4888" fill="#DDFFAA" rx="11" ry="11" style="stroke:#181818;stroke-width:1;"/><path d="M416.5805,546.754 L411.3095,546.754 L411.3095,549.4268 L416.1073,549.4268 L416.1073,551.585 L411.3095,551.585 L411.3095,556.9888 L408.8607,556.9888 L408.8607,544.5958 L416.5805,544.5958 Z " fill="#000000"/><text fill="#000000" font-family="sans-serif" font-size="12" font-style="italic" lengthAdjust="spacing" textLength="74.9297" x="436.1259" y="546.7798">&#171;StringType&#187;</text><text fill="#000000" font-family="sans-serif" font-size="14" lengthAdjust="spacing" textLength="93.4814" x="426.85" y="562.8463">modelVersion</text><line style="stroke:#181818;stroke-width:0.5;" x1="398.85" x2="522.3314" y1="570.7994" y2="570.7994"/><line style="stroke:#181818;stroke-width:0.5;" x1="398.85" x2="522.3314" y1="578.7994" y2="578.7994"/></g><!--class abc6a6767a60488754aace2accb73824_field_cdaf9--><g class="entity" data-qualified-name="CoInsuredAdditionalFields.abc6a6767a60488754aace2accb73824_field_cdaf9" data-source-line="11" id="ent0024"><rect fill="#FFFFFF" height="56.6211" rx="2.5" ry="2.5" style="stroke:#181818;stroke-width:0.5;" width="102.9297" x="409.13" y="438.1783"/><ellipse cx="424.13" cy="458.4888" fill="#DDFFAA" rx="11" ry="11" style="stroke:#181818;stroke-width:1;"/><path d="M427.8605,454.754 L422.5895,454.754 L422.5895,457.4268 L427.3873,457.4268 L427.3873,459.585 L422.5895,459.585 L422.5895,464.9888 L420.1407,464.9888 L420.1407,452.5958 L427.8605,452.5958 Z " fill="#000000"/><text fill="#000000" font-family="sans-serif" font-size="12" font-style="italic" lengthAdjust="spacing" textLength="74.9297" x="436.13" y="454.7798">&#171;StringType&#187;</text><text fill="#000000" font-family="sans-serif" font-size="14" lengthAdjust="spacing" textLength="47.9951" x="449.5973" y="470.8463">creator</text><line style="stroke:#181818;stroke-width:0.5;" x1="410.13" x2="511.0597" y1="478.7994" y2="478.7994"/><line style="stroke:#181818;stroke-width:0.5;" x1="410.13" x2="511.0597" y1="486.7994" y2="486.7994"/></g><!--class abc6a6767a60488754aace2accb73824_field_65672--><g class="entity" data-qualified-name="CoInsuredAdditionalFields.abc6a6767a60488754aace2accb73824_field_65672" data-source-line="11" id="ent0026"><rect fill="#FFFFFF" height="56.6211" rx="2.5" ry="2.5" style="stroke:#181818;stroke-width:0.5;" width="124.4043" x="398.39" y="346.1783"/><ellipse cx="413.39" cy="366.4888" fill="#DDFFAA" rx="11" ry="11" style="stroke:#181818;stroke-width:1;"/><path d="M417.1205,362.754 L411.8495,362.754 L411.8495,365.4268 L416.6473,365.4268 L416.6473,367.585 L411.8495,367.585 L411.8495,372.9888 L409.4007,372.9888 L409.4007,360.5958 L417.1205,360.5958 Z " fill="#000000"/><text fill="#000000" font-family="sans-serif" font-size="12" font-style="italic" lengthAdjust="spacing" textLength="96.4043" x="425.39" y="362.7798">&#171;DateTimeType&#187;</text><text fill="#000000" font-family="sans-serif" font-size="14" lengthAdjust="spacing" textLength="65.1738" x="441.0052" y="378.8463">createdAt</text><line style="stroke:#181818;stroke-width:0.5;" x1="399.39" x2="521.7943" y1="386.7994" y2="386.7994"/><line style="stroke:#181818;stroke-width:0.5;" x1="399.39" x2="521.7943" y1="394.7994" y2="394.7994"/></g><!--class abc6a6767a60488754aace2accb73824_field_1fa32--><g class="entity" data-qualified-name="CoInsuredAdditionalFields.abc6a6767a60488754aace2accb73824_field_1fa32" data-source-line="11" id="ent0028"><rect fill="#FFFFFF" height="56.6211" rx="2.5" ry="2.5" style="stroke:#181818;stroke-width:0.5;" width="102.9297" x="409.13" y="254.1783"/><ellipse cx="424.13" cy="274.4888" fill="#DDFFAA" rx="11" ry="11" style="stroke:#181818;stroke-width:1;"/><path d="M427.8605,270.754 L422.5895,270.754 L422.5895,273.4268 L427.3873,273.4268 L427.3873,275.585 L422.5895,275.585 L422.5895,280.9888 L420.1407,280.9888 L420.1407,268.5958 L427.8605,268.5958 Z " fill="#000000"/><text fill="#000000" font-family="sans-serif" font-size="12" font-style="italic" lengthAdjust="spacing" textLength="74.9297" x="436.13" y="270.7798">&#171;StringType&#187;</text><text fill="#000000" font-family="sans-serif" font-size="14" lengthAdjust="spacing" textLength="57.251" x="444.9694" y="286.8463">modifier</text><line style="stroke:#181818;stroke-width:0.5;" x1="410.13" x2="511.0597" y1="294.7994" y2="294.7994"/><line style="stroke:#181818;stroke-width:0.5;" x1="410.13" x2="511.0597" y1="302.7994" y2="302.7994"/></g><!--class abc6a6767a60488754aace2accb73824_field_5cd66--><g class="entity" data-qualified-name="CoInsuredAdditionalFields.abc6a6767a60488754aace2accb73824_field_5cd66" data-source-line="11" id="ent0030"><rect fill="#FFFFFF" height="56.6211" rx="2.5" ry="2.5" style="stroke:#181818;stroke-width:0.5;" width="124.4043" x="398.39" y="162.1783"/><ellipse cx="413.39" cy="182.4888" fill="#DDFFAA" rx="11" ry="11" style="stroke:#181818;stroke-width:1;"/><path d="M417.1205,178.754 L411.8495,178.754 L411.8495,181.4268 L416.6473,181.4268 L416.6473,183.585 L411.8495,183.585 L411.8495,188.9888 L409.4007,188.9888 L409.4007,176.5958 L417.1205,176.5958 Z " fill="#000000"/><text fill="#000000" font-family="sans-serif" font-size="12" font-style="italic" lengthAdjust="spacing" textLength="96.4043" x="425.39" y="178.7798">&#171;DateTimeType&#187;</text><text fill="#000000" font-family="sans-serif" font-size="14" lengthAdjust="spacing" textLength="75.2295" x="435.9774" y="194.8463">modifiedAt</text><line style="stroke:#181818;stroke-width:0.5;" x1="399.39" x2="521.7943" y1="202.7994" y2="202.7994"/><line style="stroke:#181818;stroke-width:0.5;" x1="399.39" x2="521.7943" y1="210.7994" y2="210.7994"/></g><!--class abc6a6767a60488754aace2accb73824_group_4c9a1--><g class="entity" data-qualified-name="CoInsuredAdditionalFields.abc6a6767a60488754aace2accb73824_group_4c9a1" data-source-line="3" id="ent0032"><rect fill="#F1F1F1" height="48" rx="2.5" ry="2.5" style="stroke:#181818;stroke-width:0.5;" width="105.7188" x="407.74" y="79.4883"/><ellipse cx="422.74" cy="95.4883" fill="#DDAAFF" rx="11" ry="11" style="stroke:#181818;stroke-width:1;"/><path d="M423.9783,99.7471 L423.9783,97.3813 L422.3015,97.3813 L422.3015,95.3228 L426.1199,95.3228 L426.1199,101.0005 Q425.4143,101.6064 424.5635,101.9177 Q423.7127,102.229 422.7415,102.229 Q420.3342,102.229 419.0227,100.5564 Q417.7112,98.8838 417.7112,95.8042 Q417.7112,92.6748 419.0352,91.0229 Q420.3591,89.3711 422.8577,89.3711 Q423.6047,89.3711 424.3269,89.5828 Q425.0491,89.7944 425.6799,90.1929 L425.6799,92.9072 Q425.1653,92.2432 424.4971,91.907 Q423.8289,91.5708 423.032,91.5708 Q421.6375,91.5708 420.9485,92.6208 Q420.2595,93.6709 420.2595,95.8042 Q420.2595,97.8711 420.9236,98.9502 Q421.5877,100.0293 422.8577,100.0293 Q423.2395,100.0293 423.5217,99.9587 Q423.804,99.8882 423.9783,99.7471 Z " fill="#000000"/><text fill="#000000" font-family="sans-serif" font-size="14" lengthAdjust="spacing" textLength="73.7188" x="436.74" y="100.7793">extensions</text><line style="stroke:#181818;stroke-width:0.5;" x1="408.74" x2="512.4588" y1="111.4883" y2="111.4883"/><line style="stroke:#181818;stroke-width:0.5;" x1="408.74" x2="512.4588" y1="119.4883" y2="119.4883"/></g><!--link group_3cab4 to field_aa07e--><g class="link" data-entity-1="ent0003" data-entity-2="ent0004" data-link-type="association" data-source-line="82" id="lnk5"><path codeLine="82" d="M277.4,1050.6683 C309.55,1109.7183 389.46,1256.4883 389.46,1256.4883 C389.46,1256.4883 401.71,1264.5283 415.98,1273.8783" fill="none" id="group_3cab4-field_aa07e" style="stroke:#181818;stroke-width:1;"/></g><!--link group_3cab4 to field_d5f5f--><g class="link" data-entity-1="ent0003" data-entity-2="ent0006" data-link-type="association" data-source-line="84" id="lnk7"><path codeLine="84" d="M286.33,1050.8383 C322.28,1090.4583 389.46,1164.4883 389.46,1164.4883 C389.46,1164.4883 401.71,1172.5283 415.98,1181.8783" fill="none" id="group_3cab4-field_d5f5f" style="stroke:#181818;stroke-width:1;"/></g><!--link group_3cab4 to field_d6580--><g class="link" data-entity-1="ent0003" data-entity-2="ent0008" data-link-type="association" data-source-line="86" id="lnk9"><path codeLine="86" d="M316.07,1050.8983 C341.39,1062.8283 372.03,1077.2483 398.48,1089.7083" fill="none" id="group_3cab4-field_d6580" style="stroke:#181818;stroke-width:1;"/></g><!--link group_3cab4 to field_142e3--><g class="link" data-entity-1="ent0003" data-entity-2="ent0010" data-link-type="association" data-source-line="88" id="lnk11"><path codeLine="88" d="M329.83,1026.4883 C353.44,1026.4883 379.86,1026.4883 402.67,1026.4883" fill="none" id="group_3cab4-field_142e3" style="stroke:#181818;stroke-width:1;"/></g><!--link group_3cab4 to field_2e8e0--><g class="link" data-entity-1="ent0003" data-entity-2="ent0012" data-link-type="association" data-source-line="90" id="lnk13"><path codeLine="90" d="M316.07,1002.0783 C342.98,989.4083 375.88,973.9083 403.39,960.9583" fill="none" id="group_3cab4-field_2e8e0" style="stroke:#181818;stroke-width:1;"/></g><!--link group_3cab4 to computation_65146--><g class="link" data-entity-1="ent0003" data-entity-2="ent0014" data-link-type="association" data-source-line="94" id="lnk15"><path codeLine="94" d="M286.33,1002.1383 C322.28,962.5183 389.46,888.4883 389.46,888.4883 C389.46,888.4883 400.59,880.5483 413.99,870.9983" fill="none" id="group_3cab4-computation_65146" style="stroke:#181818;stroke-width:1;"/></g><!--link CoInsuredAdditionalFieldsDocumentRoot to group_3cab4--><g class="link" data-entity-1="ent0002" data-entity-2="ent0003" data-link-type="association" data-source-line="96" id="lnk16"><path codeLine="96" d="M91.1671,762.2041 C115.8871,800.3941 200.0998,930.4956 238.3698,989.6256" fill="none" id="CoInsuredAdditionalFieldsDocumentRoot-group_3cab4" style="stroke:#181818;stroke-width:1;"/><line style="stroke:#181818;stroke-width:1;" x1="85.6356" x2="92.3515" y1="761.0198" y2="756.6727"/><line style="stroke:#181818;stroke-width:1;" x1="87.2658" x2="93.9816" y1="763.5382" y2="759.1911"/><line style="stroke:#181818;stroke-width:1;" x1="91.1671" x2="86.82" y1="762.2041" y2="755.4883"/><line style="stroke:#181818;stroke-width:1;" x1="240.5432" x2="246.52" y1="992.9837" y2="1002.2183"/><ellipse cx="240.5432" cy="992.9837" fill="none" rx="4" ry="4" style="stroke:#181818;stroke-width:1;"/><line style="stroke:#181818;stroke-width:1;" x1="247.7047" x2="240.9886" y1="996.6869" y2="1001.0336"/><text fill="#000000" font-family="sans-serif" font-size="13" lengthAdjust="spacing" textLength="24.667" x="215.2484" y="991.6854">0..1</text></g><!--link abc6a6767a60488754aace2accb73824_group_8f4b1 to abc6a6767a60488754aace2accb73824_field_1169c--><g class="link" data-entity-1="ent0017" data-entity-2="ent0018" data-link-type="association" data-source-line="100" id="lnk19"><path codeLine="100" d="M277.4,490.6683 C309.55,549.7183 389.46,696.4883 389.46,696.4883 C389.46,696.4883 401.71,704.5283 415.98,713.8783" fill="none" id="abc6a6767a60488754aace2accb73824_group_8f4b1-abc6a6767a60488754aace2accb73824_field_1169c" style="stroke:#181818;stroke-width:1;"/></g><!--link abc6a6767a60488754aace2accb73824_group_8f4b1 to abc6a6767a60488754aace2accb73824_field_cfb40--><g class="link" data-entity-1="ent0017" data-entity-2="ent0020" data-link-type="association" data-source-line="102" id="lnk21"><path codeLine="102" d="M286.33,490.8383 C322.28,530.4583 389.46,604.4883 389.46,604.4883 C389.46,604.4883 401.71,612.5283 415.98,621.8783" fill="none" id="abc6a6767a60488754aace2accb73824_group_8f4b1-abc6a6767a60488754aace2accb73824_field_cfb40" style="stroke:#181818;stroke-width:1;"/></g><!--link abc6a6767a60488754aace2accb73824_group_8f4b1 to abc6a6767a60488754aace2accb73824_field_17e3b--><g class="link" data-entity-1="ent0017" data-entity-2="ent0022" data-link-type="association" data-source-line="104" id="lnk23"><path codeLine="104" d="M303.3,484.8883 C330.58,497.7283 367.54,515.1383 398.67,529.7983" fill="none" id="abc6a6767a60488754aace2accb73824_group_8f4b1-abc6a6767a60488754aace2accb73824_field_17e3b" style="stroke:#181818;stroke-width:1;"/></g><!--link abc6a6767a60488754aace2accb73824_group_8f4b1 to abc6a6767a60488754aace2accb73824_field_cdaf9--><g class="link" data-entity-1="ent0017" data-entity-2="ent0024" data-link-type="association" data-source-line="106" id="lnk25"><path codeLine="106" d="M303.3,466.4883 C333.58,466.4883 375.8,466.4883 408.73,466.4883" fill="none" id="abc6a6767a60488754aace2accb73824_group_8f4b1-abc6a6767a60488754aace2accb73824_field_cdaf9" style="stroke:#181818;stroke-width:1;"/></g><!--link abc6a6767a60488754aace2accb73824_group_8f4b1 to abc6a6767a60488754aace2accb73824_field_65672--><g class="link" data-entity-1="ent0017" data-entity-2="ent0026" data-link-type="association" data-source-line="108" id="lnk27"><path codeLine="108" d="M303.3,448.0883 C330.58,435.2483 367.54,417.8383 398.67,403.1783" fill="none" id="abc6a6767a60488754aace2accb73824_group_8f4b1-abc6a6767a60488754aace2accb73824_field_65672" style="stroke:#181818;stroke-width:1;"/></g><!--link abc6a6767a60488754aace2accb73824_group_8f4b1 to abc6a6767a60488754aace2accb73824_field_1fa32--><g class="link" data-entity-1="ent0017" data-entity-2="ent0028" data-link-type="association" data-source-line="110" id="lnk29"><path codeLine="110" d="M286.33,442.1383 C322.28,402.5183 389.46,328.4883 389.46,328.4883 C389.46,328.4883 401.71,320.4483 415.98,311.0983" fill="none" id="abc6a6767a60488754aace2accb73824_group_8f4b1-abc6a6767a60488754aace2accb73824_field_1fa32" style="stroke:#181818;stroke-width:1;"/></g><!--link abc6a6767a60488754aace2accb73824_group_8f4b1 to abc6a6767a60488754aace2accb73824_field_5cd66--><g class="link" data-entity-1="ent0017" data-entity-2="ent0030" data-link-type="association" data-source-line="112" id="lnk31"><path codeLine="112" d="M277.4,442.3083 C309.55,383.2583 389.46,236.4883 389.46,236.4883 C389.46,236.4883 401.71,228.4483 415.98,219.0983" fill="none" id="abc6a6767a60488754aace2accb73824_group_8f4b1-abc6a6767a60488754aace2accb73824_field_5cd66" style="stroke:#181818;stroke-width:1;"/></g><!--link abc6a6767a60488754aace2accb73824_group_8f4b1 to abc6a6767a60488754aace2accb73824_group_4c9a1--><g class="link" data-entity-1="ent0017" data-entity-2="ent0032" data-link-type="association" data-source-line="115" id="lnk33"><path codeLine="115" d="M276.6495,434.5622 C305.8695,359.4222 389.46,144.4883 389.46,144.4883 C389.46,144.4883 389.9414,144.2102 405.0414,135.3802" fill="none" id="abc6a6767a60488754aace2accb73824_group_8f4b1-abc6a6767a60488754aace2accb73824_group_4c9a1" style="stroke:#181818;stroke-width:1;"/><line style="stroke:#181818;stroke-width:1;" x1="278.9278" x2="271.4717" y1="439.74" y2="436.8405"/><line style="stroke:#181818;stroke-width:1;" x1="280.0151" x2="272.559" y1="436.944" y2="434.0445"/><line style="stroke:#181818;stroke-width:1;" x1="276.6495" x2="273.75" y1="434.5622" y2="442.0183"/><line style="stroke:#181818;stroke-width:1;" x1="408.4944" x2="417.99" y1="133.361" y2="127.8083"/><ellipse cx="408.4944" cy="133.361" fill="none" rx="4" ry="4" style="stroke:#181818;stroke-width:1;"/><line style="stroke:#181818;stroke-width:1;" x1="412.5179" x2="416.5562" y1="126.3745" y2="133.2804"/><text fill="#000000" font-family="sans-serif" font-size="13" lengthAdjust="spacing" textLength="24.667" x="380.7603" y="148.1706">0..1</text></g><!--link CoInsuredAdditionalFieldsDocumentRoot to abc6a6767a60488754aace2accb73824_group_8f4b1--><g class="link" data-entity-1="ent0002" data-entity-2="ent0017" data-link-type="association" data-source-line="117" id="lnk34"><path codeLine="117" d="M91.1671,730.7724 C115.8871,692.5824 200.0998,562.4809 238.3698,503.3509" fill="none" id="CoInsuredAdditionalFieldsDocumentRoot-abc6a6767a60488754aace2accb73824_group_8f4b1" style="stroke:#181818;stroke-width:1;"/><line style="stroke:#181818;stroke-width:1;" x1="92.3515" x2="85.6356" y1="736.3039" y2="731.9568"/><line style="stroke:#181818;stroke-width:1;" x1="93.9816" x2="87.2658" y1="733.7855" y2="729.4384"/><line style="stroke:#181818;stroke-width:1;" x1="91.1671" x2="86.82" y1="730.7724" y2="737.4883"/><line style="stroke:#181818;stroke-width:1;" x1="240.5432" x2="246.52" y1="499.9929" y2="490.7583"/><ellipse cx="240.5432" cy="499.9929" fill="none" rx="4" ry="4" style="stroke:#181818;stroke-width:1;"/><line style="stroke:#181818;stroke-width:1;" x1="240.9886" x2="247.7047" y1="491.9429" y2="496.2897"/><text fill="#000000" font-family="sans-serif" font-size="13" lengthAdjust="spacing" textLength="24.667" x="215.6035" y="511.1084">0..1</text></g><?plantuml-src lLLjRzf84FxC_eh5GG9BG7ar1EMGI8mhf5uLqUhkm-c4bjqniU8Nj9XUgal_-ysk0xP9G-nAnnUmPsUUUUQPsN5rAoCEOY-1RcIqtpQUJC9zjjlH9tfpGniVcrUsFPivZacdKrA5K1m32AccmLm47m_n1o2AeVEvuvm9SptmnMbEH-LqdDbCvQHNVpvuCPp1W60DGe1mD5R80cZI-FiMVpNwLtmqYJ8ZkB9FfvFqv0oktFjmIcsfgDtU7gWvZggm0BUbmagfcUHcpVZZ98cVgeE6UQHtyq4TJil3DcaDf8paNHGAB_QYq2JjDisbeZaXw4igscxd6ULX9WUt4_Xpyn05sttCbDUfXdUd6ixdjbqCQkR784Dy_0QDMhG5gQrOzbO2pnNDKazLtD5tGjCuaesQv44AY7-NAJ7NWxF43ZAheWjqGxkbx8-DI8l8UUOgEZeNB4n4V1z069ysp6vUpMQgPKd3xgD_1CXRVm-_B18ryxHBNm3V2n_jD-X-IkWcAmlf0kCFztlNVGVk9-khIAW4_nD6DsgwkfeC5g9PKtZTvA-7V-8tmq2EdkG-KEr8sOvgtsoIn904PrzwfEgv-2YgYFDoqFhhQe4TPU4InD_Ispp4oc620cIbmPMTKmfTJ5sBzwgatQCNRfbaWH83T9EsaVzTlH0Vt9Z64Kto20_7IOyIYRqOAph0qzyZ0JwzYnRX3Z75J2GZntozcdU4RB6jR0FKUDF7KCgyUOhbEKXHtPL_IGKdnZZCx3AAulEnTiQJL98crrCYHm1zikfpjXxKJL99lb1rupEcrUVQi6AiCr8tzqiilN3pLO-jSiz4qrOhwvn2BUmCa1YwGxSea7PEWPQHd-KahE6uWr3p40jDjiDxU2eYnRi7oL4Xx506jJleGHzHF-_nIijt0BLp2lZ5suHObStYB68Fng1uAlCxUDgLLB9Vaxg1dNsHC6DVMSFkmAgRE1Y95NOJNAGV5ZRvyGhyLHmXbKA3Gv-VMwtecHgTThjhP6U5f3ErMWKGCqsGhRd5h94rObPdC1wFXWF6EFGOv-jHVzmRh1A4iJjOTxFJXcEz1BSOn8loNUkQ_sIEoZ1GqfH9b_8DrCr7nY0Xv526DtVNWyxbUEjq9xp_0Bd3VfTIUmJzzGNLLkbIrbm2YoDPIcR1tEiBogpIdH36cnMNeMmDhL7li2Qy0FvtqZfXRZOyV2ubSzTb_Tu5vqAbUyMufCv3BYphaZhhXEcwXASOGdK1TsLMve1VCxKoIxBCx-yokNxn4r667I4__WC0?></g></svg>