<svg xmlns="http://www.w3.org/2000/svg" xmlns:xlink="http://www.w3.org/1999/xlink" contentStyleType="text/css" data-diagram-type="CLASS" height="1802px" preserveAspectRatio="none" style="width:780px;height:1802px;background:#FFFFFF;" version="1.1" viewBox="0 0 780 1802" width="780px" zoomAndPan="magnify"><?plantuml 1.2026.6?><defs/><g><g class="title" data-source-line="76"><text fill="#000000" font-family="sans-serif" font-size="14" font-weight="700" lengthAdjust="spacing" textLength="271.1201" x="251.1999" y="23.5352">Document Model ContractAutomotive</text></g><!--cluster ContractAutomotive--><g class="cluster" data-qualified-name="ContractAutomotive" data-source-line="78" id="ent0001"><rect fill="none" height="1744" rx="2.5" ry="2.5" style="stroke:#181818;stroke-width:1;" width="759.52" x="7" y="44.4883"/><path d="M161.874,44.4883 L161.874,53.9766 L151.874,63.9766 L7,63.9766" fill="none" style="stroke:#181818;stroke-width:1;"/><text fill="#000000" font-family="sans-serif" font-size="14" font-weight="700" lengthAdjust="spacing" textLength="144.874" x="10" y="59.0234">ContractAutomotive</text></g><!--entity ContractAutomotiveDocumentRoot--><g class="entity" data-qualified-name="ContractAutomotive.ContractAutomotiveDocumentRoot" data-source-line="79" id="ent0002"><ellipse cx="80" cy="829.4883" fill="#F1F1F1" rx="8" ry="8" style="stroke:#181818;stroke-width:0.5;"/><text fill="#000000" font-family="sans-serif" font-size="14" lengthAdjust="spacing" textLength="99.3535" x="30.3232" y="860.0234">documentRoot</text></g><!--class group_a9838--><g class="entity" data-qualified-name="ContractAutomotive.group_a9838" data-source-line="3" id="ent0003"><rect fill="#F1F1F1" height="48" rx="2.5" ry="2.5" style="stroke:#181818;stroke-width:0.5;" width="121.3662" x="197" y="1214.4883"/><ellipse cx="212" cy="1230.4883" fill="#DDAAFF" rx="11" ry="11" style="stroke:#181818;stroke-width:1;"/><path d="M213.2383,1234.7471 L213.2383,1232.3813 L211.5615,1232.3813 L211.5615,1230.3228 L215.3799,1230.3228 L215.3799,1236.0005 Q214.6743,1236.6064 213.8235,1236.9177 Q212.9727,1237.229 212.0015,1237.229 Q209.5942,1237.229 208.2827,1235.5564 Q206.9712,1233.8838 206.9712,1230.8042 Q206.9712,1227.6748 208.2952,1226.0229 Q209.6191,1224.3711 212.1177,1224.3711 Q212.8647,1224.3711 213.5869,1224.5828 Q214.3091,1224.7944 214.9399,1225.1929 L214.9399,1227.9072 Q214.4253,1227.2432 213.7571,1226.907 Q213.0889,1226.5708 212.292,1226.5708 Q210.8975,1226.5708 210.2085,1227.6208 Q209.5195,1228.6709 209.5195,1230.8042 Q209.5195,1232.8711 210.1836,1233.9502 Q210.8477,1235.0293 212.1177,1235.0293 Q212.4995,1235.0293 212.7817,1234.9587 Q213.064,1234.8882 213.2383,1234.7471 Z " fill="#000000"/><text fill="#000000" font-family="sans-serif" font-size="14" lengthAdjust="spacing" textLength="89.3662" x="226" y="1235.7793">ContractRoot</text><line style="stroke:#181818;stroke-width:0.5;" x1="198" x2="317.3662" y1="1246.4883" y2="1246.4883"/><line style="stroke:#181818;stroke-width:0.5;" x1="198" x2="317.3662" y1="1254.4883" y2="1254.4883"/></g><!--class field_770f2--><g class="entity" data-qualified-name="ContractAutomotive.field_770f2" data-source-line="11" id="ent0004"><rect fill="#FFFFFF" height="56.6211" rx="2.5" ry="2.5" style="stroke:#181818;stroke-width:0.5;" width="129.0225" x="418.47" y="1716.1783"/><ellipse cx="433.47" cy="1736.4888" fill="#DDFFAA" rx="11" ry="11" style="stroke:#181818;stroke-width:1;"/><path d="M437.2005,1732.754 L431.9295,1732.754 L431.9295,1735.4268 L436.7273,1735.4268 L436.7273,1737.585 L431.9295,1737.585 L431.9295,1742.9888 L429.4807,1742.9888 L429.4807,1730.5958 L437.2005,1730.5958 Z " fill="#000000"/><text fill="#000000" font-family="sans-serif" font-size="12" font-style="italic" lengthAdjust="spacing" textLength="74.9297" x="458.5164" y="1732.7798">&#171;StringType&#187;</text><text fill="#000000" font-family="sans-serif" font-size="14" lengthAdjust="spacing" textLength="97.0225" x="447.47" y="1748.8463">ContractName</text><line style="stroke:#181818;stroke-width:0.5;" x1="419.47" x2="546.4925" y1="1756.7994" y2="1756.7994"/><line style="stroke:#181818;stroke-width:0.5;" x1="419.47" x2="546.4925" y1="1764.7994" y2="1764.7994"/></g><!--class field_770f3--><g class="entity" data-qualified-name="ContractAutomotive.field_770f3" data-source-line="11" id="ent0006"><rect fill="#FFFFFF" height="56.6211" rx="2.5" ry="2.5" style="stroke:#181818;stroke-width:0.5;" width="167.8301" x="399.06" y="1624.1783"/><ellipse cx="414.06" cy="1644.4888" fill="#DDFFAA" rx="11" ry="11" style="stroke:#181818;stroke-width:1;"/><path d="M417.7905,1640.754 L412.5195,1640.754 L412.5195,1643.4268 L417.3173,1643.4268 L417.3173,1645.585 L412.5195,1645.585 L412.5195,1650.9888 L410.0707,1650.9888 L410.0707,1638.5958 L417.7905,1638.5958 Z " fill="#000000"/><text fill="#000000" font-family="sans-serif" font-size="12" font-style="italic" lengthAdjust="spacing" textLength="74.9297" x="458.5102" y="1640.7798">&#171;StringType&#187;</text><text fill="#000000" font-family="sans-serif" font-size="14" lengthAdjust="spacing" textLength="135.8301" x="428.06" y="1656.8463">ContractDescription</text><line style="stroke:#181818;stroke-width:0.5;" x1="400.06" x2="565.8901" y1="1664.7994" y2="1664.7994"/><line style="stroke:#181818;stroke-width:0.5;" x1="400.06" x2="565.8901" y1="1672.7994" y2="1672.7994"/></g><!--class field_828da--><g class="entity" data-qualified-name="ContractAutomotive.field_828da" data-source-line="11" id="ent0008"><rect fill="#FFFFFF" height="56.6211" rx="2.5" ry="2.5" style="stroke:#181818;stroke-width:0.5;" width="152.709" x="406.62" y="1532.1783"/><ellipse cx="421.62" cy="1552.4888" fill="#DDFFAA" rx="11" ry="11" style="stroke:#181818;stroke-width:1;"/><path d="M425.3505,1548.754 L420.0795,1548.754 L420.0795,1551.4268 L424.8773,1551.4268 L424.8773,1553.585 L420.0795,1553.585 L420.0795,1558.9888 L417.6307,1558.9888 L417.6307,1546.5958 L425.3505,1546.5958 Z " fill="#000000"/><text fill="#000000" font-family="sans-serif" font-size="12" font-style="italic" lengthAdjust="spacing" textLength="87.334" x="452.3075" y="1548.7798">&#171;NumberType&#187;</text><text fill="#000000" font-family="sans-serif" font-size="14" lengthAdjust="spacing" textLength="120.709" x="435.62" y="1564.8463">LengthOfContract</text><line style="stroke:#181818;stroke-width:0.5;" x1="407.62" x2="558.329" y1="1572.7994" y2="1572.7994"/><line style="stroke:#181818;stroke-width:0.5;" x1="407.62" x2="558.329" y1="1580.7994" y2="1580.7994"/></g><!--class field_29708--><g class="entity" data-qualified-name="ContractAutomotive.field_29708" data-source-line="11" id="ent0010"><rect fill="#FFFFFF" height="56.6211" rx="2.5" ry="2.5" style="stroke:#181818;stroke-width:0.5;" width="127.498" x="419.23" y="1440.1783"/><ellipse cx="434.23" cy="1460.4888" fill="#DDFFAA" rx="11" ry="11" style="stroke:#181818;stroke-width:1;"/><path d="M437.9605,1456.754 L432.6895,1456.754 L432.6895,1459.4268 L437.4873,1459.4268 L437.4873,1461.585 L432.6895,1461.585 L432.6895,1466.9888 L430.2407,1466.9888 L430.2407,1454.5958 L437.9605,1454.5958 Z " fill="#000000"/><text fill="#000000" font-family="sans-serif" font-size="12" font-style="italic" lengthAdjust="spacing" textLength="87.334" x="452.312" y="1456.7798">&#171;NumberType&#187;</text><text fill="#000000" font-family="sans-serif" font-size="14" lengthAdjust="spacing" textLength="95.498" x="448.23" y="1472.8463">ContractValue</text><line style="stroke:#181818;stroke-width:0.5;" x1="420.23" x2="545.728" y1="1480.7994" y2="1480.7994"/><line style="stroke:#181818;stroke-width:0.5;" x1="420.23" x2="545.728" y1="1488.7994" y2="1488.7994"/></g><!--class field_edb7e--><g class="entity" data-qualified-name="ContractAutomotive.field_edb7e" data-source-line="11" id="ent0012"><rect fill="#FFFFFF" height="56.6211" rx="2.5" ry="2.5" style="stroke:#181818;stroke-width:0.5;" width="115.334" x="425.31" y="1348.1783"/><ellipse cx="440.31" cy="1368.4888" fill="#DDFFAA" rx="11" ry="11" style="stroke:#181818;stroke-width:1;"/><path d="M444.0405,1364.754 L438.7695,1364.754 L438.7695,1367.4268 L443.5673,1367.4268 L443.5673,1369.585 L438.7695,1369.585 L438.7695,1374.9888 L436.3207,1374.9888 L436.3207,1362.5958 L444.0405,1362.5958 Z " fill="#000000"/><text fill="#000000" font-family="sans-serif" font-size="12" font-style="italic" lengthAdjust="spacing" textLength="87.334" x="452.31" y="1364.7798">&#171;NumberType&#187;</text><text fill="#000000" font-family="sans-serif" font-size="14" lengthAdjust="spacing" textLength="52.7461" x="469.6039" y="1380.8463">Liability</text><line style="stroke:#181818;stroke-width:0.5;" x1="426.31" x2="539.644" y1="1388.7994" y2="1388.7994"/><line style="stroke:#181818;stroke-width:0.5;" x1="426.31" x2="539.644" y1="1396.7994" y2="1396.7994"/></g><!--class field_502f7--><g class="entity" data-qualified-name="ContractAutomotive.field_502f7" data-source-line="11" id="ent0014"><rect fill="#FFFFFF" height="56.6211" rx="2.5" ry="2.5" style="stroke:#181818;stroke-width:0.5;" width="146.0576" x="409.95" y="1256.1783"/><ellipse cx="424.95" cy="1276.4888" fill="#DDFFAA" rx="11" ry="11" style="stroke:#181818;stroke-width:1;"/><path d="M428.6805,1272.754 L423.4095,1272.754 L423.4095,1275.4268 L428.2073,1275.4268 L428.2073,1277.585 L423.4095,1277.585 L423.4095,1282.9888 L420.9607,1282.9888 L420.9607,1270.5958 L428.6805,1270.5958 Z " fill="#000000"/><text fill="#000000" font-family="sans-serif" font-size="12" font-style="italic" lengthAdjust="spacing" textLength="87.334" x="452.3118" y="1272.7798">&#171;NumberType&#187;</text><text fill="#000000" font-family="sans-serif" font-size="14" lengthAdjust="spacing" textLength="114.0576" x="438.95" y="1288.8463">CostToCustomer</text><line style="stroke:#181818;stroke-width:0.5;" x1="410.95" x2="555.0076" y1="1296.7994" y2="1296.7994"/><line style="stroke:#181818;stroke-width:0.5;" x1="410.95" x2="555.0076" y1="1304.7994" y2="1304.7994"/></g><!--class field_f8187--><g class="entity" data-qualified-name="ContractAutomotive.field_f8187" data-source-line="11" id="ent0016"><rect fill="#FFFFFF" height="56.6211" rx="2.5" ry="2.5" style="stroke:#181818;stroke-width:0.5;" width="209.2217" x="378.37" y="1164.1783"/><ellipse cx="393.37" cy="1184.4888" fill="#DDFFAA" rx="11" ry="11" style="stroke:#181818;stroke-width:1;"/><path d="M397.1005,1180.754 L391.8295,1180.754 L391.8295,1183.4268 L396.6273,1183.4268 L396.6273,1185.585 L391.8295,1185.585 L391.8295,1190.9888 L389.3807,1190.9888 L389.3807,1178.5958 L397.1005,1178.5958 Z " fill="#000000"/><text fill="#000000" font-family="sans-serif" font-size="12" font-style="italic" lengthAdjust="spacing" textLength="87.334" x="452.3138" y="1180.7798">&#171;NumberType&#187;</text><text fill="#000000" font-family="sans-serif" font-size="14" lengthAdjust="spacing" textLength="177.2217" x="407.37" y="1196.8463">NoOfCoInsuredCustomers</text><line style="stroke:#181818;stroke-width:0.5;" x1="379.37" x2="586.5917" y1="1204.7994" y2="1204.7994"/><line style="stroke:#181818;stroke-width:0.5;" x1="379.37" x2="586.5917" y1="1212.7994" y2="1212.7994"/></g><!--class field_c472d--><g class="entity" data-qualified-name="ContractAutomotive.field_c472d" data-source-line="11" id="ent0018"><rect fill="#FFFFFF" height="56.6211" rx="2.5" ry="2.5" style="stroke:#181818;stroke-width:0.5;" width="120.4297" x="422.76" y="1072.1783"/><ellipse cx="437.76" cy="1092.4888" fill="#DDFFAA" rx="11" ry="11" style="stroke:#181818;stroke-width:1;"/><path d="M441.4905,1088.754 L436.2195,1088.754 L436.2195,1091.4268 L441.0173,1091.4268 L441.0173,1093.585 L436.2195,1093.585 L436.2195,1098.9888 L433.7707,1098.9888 L433.7707,1086.5958 L441.4905,1086.5958 Z " fill="#000000"/><text fill="#000000" font-family="sans-serif" font-size="12" font-style="italic" lengthAdjust="spacing" textLength="74.9297" x="458.51" y="1088.7798">&#171;StringType&#187;</text><text fill="#000000" font-family="sans-serif" font-size="14" lengthAdjust="spacing" textLength="88.4297" x="451.76" y="1104.8463">MaxDiscount</text><line style="stroke:#181818;stroke-width:0.5;" x1="423.76" x2="542.1897" y1="1112.7994" y2="1112.7994"/><line style="stroke:#181818;stroke-width:0.5;" x1="423.76" x2="542.1897" y1="1120.7994" y2="1120.7994"/></g><!--class field_24959--><g class="entity" data-qualified-name="ContractAutomotive.field_24959" data-source-line="11" id="ent0020"><rect fill="#FFFFFF" height="56.6211" rx="2.5" ry="2.5" style="stroke:#181818;stroke-width:0.5;" width="153.0986" x="406.43" y="980.1783"/><ellipse cx="421.43" cy="1000.4888" fill="#DDFFAA" rx="11" ry="11" style="stroke:#181818;stroke-width:1;"/><path d="M425.1605,996.754 L419.8895,996.754 L419.8895,999.4268 L424.6873,999.4268 L424.6873,1001.585 L419.8895,1001.585 L419.8895,1006.9888 L417.4407,1006.9888 L417.4407,994.5958 L425.1605,994.5958 Z " fill="#000000"/><text fill="#000000" font-family="sans-serif" font-size="12" font-style="italic" lengthAdjust="spacing" textLength="87.334" x="452.3123" y="996.7798">&#171;NumberType&#187;</text><text fill="#000000" font-family="sans-serif" font-size="14" lengthAdjust="spacing" textLength="121.0986" x="435.43" y="1012.8463">CostPerCoInsured</text><line style="stroke:#181818;stroke-width:0.5;" x1="407.43" x2="558.5286" y1="1020.7994" y2="1020.7994"/><line style="stroke:#181818;stroke-width:0.5;" x1="407.43" x2="558.5286" y1="1028.7994" y2="1028.7994"/></g><!--class field_a09a6--><g class="entity" data-qualified-name="ContractAutomotive.field_a09a6" data-source-line="11" id="ent0022"><rect fill="#FFFFFF" height="56.6211" rx="2.5" ry="2.5" style="stroke:#181818;stroke-width:0.5;" width="114.543" x="425.71" y="888.1783"/><ellipse cx="440.71" cy="908.4888" fill="#DDFFAA" rx="11" ry="11" style="stroke:#181818;stroke-width:1;"/><path d="M444.4405,904.754 L439.1695,904.754 L439.1695,907.4268 L443.9673,907.4268 L443.9673,909.585 L439.1695,909.585 L439.1695,914.9888 L436.7207,914.9888 L436.7207,902.5958 L444.4405,902.5958 Z " fill="#000000"/><text fill="#000000" font-family="sans-serif" font-size="12" font-style="italic" lengthAdjust="spacing" textLength="86.543" x="452.71" y="904.7798">&#171;BooleanType&#187;</text><text fill="#000000" font-family="sans-serif" font-size="14" lengthAdjust="spacing" textLength="33.79" x="479.0865" y="920.8463">Valid</text><line style="stroke:#181818;stroke-width:0.5;" x1="426.71" x2="539.253" y1="928.7994" y2="928.7994"/><line style="stroke:#181818;stroke-width:0.5;" x1="426.71" x2="539.253" y1="936.7994" y2="936.7994"/></g><!--class group_a6546--><g class="entity" data-qualified-name="ContractAutomotive.group_a6546" data-source-line="3" id="ent0024"><rect fill="#F1F1F1" height="48" rx="2.5" ry="2.5" style="stroke:#181818;stroke-width:0.5;" width="55.1465" x="455.4" y="805.4883"/><ellipse cx="470.4" cy="821.4883" fill="#DDAAFF" rx="11" ry="11" style="stroke:#181818;stroke-width:1;"/><path d="M471.6383,825.7471 L471.6383,823.3813 L469.9615,823.3813 L469.9615,821.3228 L473.7799,821.3228 L473.7799,827.0005 Q473.0743,827.6064 472.2235,827.9177 Q471.3727,828.229 470.4015,828.229 Q467.9942,828.229 466.6827,826.5564 Q465.3712,824.8838 465.3712,821.8042 Q465.3712,818.6748 466.6952,817.0229 Q468.0191,815.3711 470.5177,815.3711 Q471.2647,815.3711 471.9869,815.5828 Q472.7091,815.7944 473.3399,816.1929 L473.3399,818.9072 Q472.8253,818.2432 472.1571,817.907 Q471.4889,817.5708 470.692,817.5708 Q469.2975,817.5708 468.6085,818.6208 Q467.9195,819.6709 467.9195,821.8042 Q467.9195,823.8711 468.5836,824.9502 Q469.2477,826.0293 470.5177,826.0293 Q470.8995,826.0293 471.1817,825.9587 Q471.464,825.8882 471.6383,825.7471 Z " fill="#000000"/><text fill="#000000" font-family="sans-serif" font-size="14" lengthAdjust="spacing" textLength="23.1465" x="484.4" y="826.7793">Car</text><line style="stroke:#181818;stroke-width:0.5;" x1="456.4" x2="509.5465" y1="837.4883" y2="837.4883"/><line style="stroke:#181818;stroke-width:0.5;" x1="456.4" x2="509.5465" y1="845.4883" y2="845.4883"/></g><!--class field_ad236--><g class="entity" data-qualified-name="ContractAutomotive.field_ad236" data-source-line="11" id="ent0025"><rect fill="#FFFFFF" height="56.6211" rx="2.5" ry="2.5" style="stroke:#181818;stroke-width:0.5;" width="102.9297" x="647.59" y="847.1783"/><ellipse cx="662.59" cy="867.4888" fill="#DDFFAA" rx="11" ry="11" style="stroke:#181818;stroke-width:1;"/><path d="M666.3205,863.754 L661.0495,863.754 L661.0495,866.4268 L665.8473,866.4268 L665.8473,868.585 L661.0495,868.585 L661.0495,873.9888 L658.6007,873.9888 L658.6007,861.5958 L666.3205,861.5958 Z " fill="#000000"/><text fill="#000000" font-family="sans-serif" font-size="12" font-style="italic" lengthAdjust="spacing" textLength="74.9297" x="674.59" y="863.7798">&#171;StringType&#187;</text><text fill="#000000" font-family="sans-serif" font-size="14" lengthAdjust="spacing" textLength="35.7725" x="694.1686" y="879.8463">Make</text><line style="stroke:#181818;stroke-width:0.5;" x1="648.59" x2="749.5197" y1="887.7994" y2="887.7994"/><line style="stroke:#181818;stroke-width:0.5;" x1="648.59" x2="749.5197" y1="895.7994" y2="895.7994"/></g><!--class field_236ad--><g class="entity" data-qualified-name="ContractAutomotive.field_236ad" data-source-line="11" id="ent0027"><rect fill="#FFFFFF" height="56.6211" rx="2.5" ry="2.5" style="stroke:#181818;stroke-width:0.5;" width="102.9297" x="647.59" y="755.1783"/><ellipse cx="662.59" cy="775.4888" fill="#DDFFAA" rx="11" ry="11" style="stroke:#181818;stroke-width:1;"/><path d="M666.3205,771.754 L661.0495,771.754 L661.0495,774.4268 L665.8473,774.4268 L665.8473,776.585 L661.0495,776.585 L661.0495,781.9888 L658.6007,781.9888 L658.6007,769.5958 L666.3205,769.5958 Z " fill="#000000"/><text fill="#000000" font-family="sans-serif" font-size="12" font-style="italic" lengthAdjust="spacing" textLength="74.9297" x="674.59" y="771.7798">&#171;StringType&#187;</text><text fill="#000000" font-family="sans-serif" font-size="14" lengthAdjust="spacing" textLength="41.3164" x="691.3966" y="787.8463">Model</text><line style="stroke:#181818;stroke-width:0.5;" x1="648.59" x2="749.5197" y1="795.7994" y2="795.7994"/><line style="stroke:#181818;stroke-width:0.5;" x1="648.59" x2="749.5197" y1="803.7994" y2="803.7994"/></g><!--class abc6a6767a60488754aace2accb73824_group_8f4b1--><g class="entity" data-qualified-name="ContractAutomotive.abc6a6767a60488754aace2accb73824_group_8f4b1" data-source-line="3" id="ent0031"><rect fill="#F1F1F1" height="48" rx="2.5" ry="2.5" style="stroke:#181818;stroke-width:0.5;" width="79.8379" x="217.76" y="442.4883"/><ellipse cx="232.76" cy="458.4883" fill="#DDAAFF" rx="11" ry="11" style="stroke:#181818;stroke-width:1;"/><path d="M233.9983,462.7471 L233.9983,460.3813 L232.3215,460.3813 L232.3215,458.3228 L236.1399,458.3228 L236.1399,464.0005 Q235.4343,464.6064 234.5835,464.9177 Q233.7327,465.229 232.7615,465.229 Q230.3542,465.229 229.0427,463.5564 Q227.7312,461.8838 227.7312,458.8042 Q227.7312,455.6748 229.0552,454.0229 Q230.3791,452.3711 232.8777,452.3711 Q233.6247,452.3711 234.3469,452.5828 Q235.0691,452.7944 235.6999,453.1929 L235.6999,455.9072 Q235.1853,455.2432 234.5171,454.907 Q233.8489,454.5708 233.052,454.5708 Q231.6575,454.5708 230.9685,455.6208 Q230.2795,456.6709 230.2795,458.8042 Q230.2795,460.8711 230.9436,461.9502 Q231.6077,463.0293 232.8777,463.0293 Q233.2595,463.0293 233.5417,462.9587 Q233.824,462.8882 233.9983,462.7471 Z " fill="#000000"/><text fill="#000000" font-family="sans-serif" font-size="14" lengthAdjust="spacing" textLength="47.8379" x="246.76" y="463.7793">__meta</text><line style="stroke:#181818;stroke-width:0.5;" x1="218.76" x2="296.5979" y1="474.4883" y2="474.4883"/><line style="stroke:#181818;stroke-width:0.5;" x1="218.76" x2="296.5979" y1="482.4883" y2="482.4883"/></g><!--class abc6a6767a60488754aace2accb73824_field_1169c--><g class="entity" data-qualified-name="ContractAutomotive.abc6a6767a60488754aace2accb73824_field_1169c" data-source-line="11" id="ent0032"><rect fill="#FFFFFF" height="56.6211" rx="2.5" ry="2.5" style="stroke:#181818;stroke-width:0.5;" width="102.9297" x="431.51" y="714.1783"/><ellipse cx="446.51" cy="734.4888" fill="#DDFFAA" rx="11" ry="11" style="stroke:#181818;stroke-width:1;"/><path d="M450.2405,730.754 L444.9695,730.754 L444.9695,733.4268 L449.7673,733.4268 L449.7673,735.585 L444.9695,735.585 L444.9695,740.9888 L442.5207,740.9888 L442.5207,728.5958 L450.2405,728.5958 Z " fill="#000000"/><text fill="#000000" font-family="sans-serif" font-size="12" font-style="italic" lengthAdjust="spacing" textLength="74.9297" x="458.51" y="730.7798">&#171;StringType&#187;</text><text fill="#000000" font-family="sans-serif" font-size="14" lengthAdjust="spacing" textLength="46.3818" x="472.7839" y="746.8463">docRef</text><line style="stroke:#181818;stroke-width:0.5;" x1="432.51" x2="533.4397" y1="754.7994" y2="754.7994"/><line style="stroke:#181818;stroke-width:0.5;" x1="432.51" x2="533.4397" y1="762.7994" y2="762.7994"/></g><!--class abc6a6767a60488754aace2accb73824_field_cfb40--><g class="entity" data-qualified-name="ContractAutomotive.abc6a6767a60488754aace2accb73824_field_cfb40" data-source-line="11" id="ent0034"><rect fill="#FFFFFF" height="56.6211" rx="2.5" ry="2.5" style="stroke:#181818;stroke-width:0.5;" width="141.1152" x="412.42" y="622.1783"/><ellipse cx="427.42" cy="642.4888" fill="#DDFFAA" rx="11" ry="11" style="stroke:#181818;stroke-width:1;"/><path d="M431.1505,638.754 L425.8795,638.754 L425.8795,641.4268 L430.6773,641.4268 L430.6773,643.585 L425.8795,643.585 L425.8795,648.9888 L423.4307,648.9888 L423.4307,636.5958 L431.1505,636.5958 Z " fill="#000000"/><text fill="#000000" font-family="sans-serif" font-size="12" font-style="italic" lengthAdjust="spacing" textLength="74.9297" x="458.5128" y="638.7798">&#171;StringType&#187;</text><text fill="#000000" font-family="sans-serif" font-size="14" lengthAdjust="spacing" textLength="109.1152" x="441.42" y="654.8463">modelReference</text><line style="stroke:#181818;stroke-width:0.5;" x1="413.42" x2="552.5352" y1="662.7994" y2="662.7994"/><line style="stroke:#181818;stroke-width:0.5;" x1="413.42" x2="552.5352" y1="670.7994" y2="670.7994"/></g><!--class abc6a6767a60488754aace2accb73824_field_17e3b--><g class="entity" data-qualified-name="ContractAutomotive.abc6a6767a60488754aace2accb73824_field_17e3b" data-source-line="11" id="ent0036"><rect fill="#FFFFFF" height="56.6211" rx="2.5" ry="2.5" style="stroke:#181818;stroke-width:0.5;" width="125.4814" x="420.24" y="530.1783"/><ellipse cx="435.24" cy="550.4888" fill="#DDFFAA" rx="11" ry="11" style="stroke:#181818;stroke-width:1;"/><path d="M438.9705,546.754 L433.6995,546.754 L433.6995,549.4268 L438.4973,549.4268 L438.4973,551.585 L433.6995,551.585 L433.6995,556.9888 L431.2507,556.9888 L431.2507,544.5958 L438.9705,544.5958 Z " fill="#000000"/><text fill="#000000" font-family="sans-serif" font-size="12" font-style="italic" lengthAdjust="spacing" textLength="74.9297" x="458.5159" y="546.7798">&#171;StringType&#187;</text><text fill="#000000" font-family="sans-serif" font-size="14" lengthAdjust="spacing" textLength="93.4814" x="449.24" y="562.8463">modelVersion</text><line style="stroke:#181818;stroke-width:0.5;" x1="421.24" x2="544.7214" y1="570.7994" y2="570.7994"/><line style="stroke:#181818;stroke-width:0.5;" x1="421.24" x2="544.7214" y1="578.7994" y2="578.7994"/></g><!--class abc6a6767a60488754aace2accb73824_field_cdaf9--><g class="entity" data-qualified-name="ContractAutomotive.abc6a6767a60488754aace2accb73824_field_cdaf9" data-source-line="11" id="ent0038"><rect fill="#FFFFFF" height="56.6211" rx="2.5" ry="2.5" style="stroke:#181818;stroke-width:0.5;" width="102.9297" x="431.51" y="438.1783"/><ellipse cx="446.51" cy="458.4888" fill="#DDFFAA" rx="11" ry="11" style="stroke:#181818;stroke-width:1;"/><path d="M450.2405,454.754 L444.9695,454.754 L444.9695,457.4268 L449.7673,457.4268 L449.7673,459.585 L444.9695,459.585 L444.9695,464.9888 L442.5207,464.9888 L442.5207,452.5958 L450.2405,452.5958 Z " fill="#000000"/><text fill="#000000" font-family="sans-serif" font-size="12" font-style="italic" lengthAdjust="spacing" textLength="74.9297" x="458.51" y="454.7798">&#171;StringType&#187;</text><text fill="#000000" font-family="sans-serif" font-size="14" lengthAdjust="spacing" textLength="47.9951" x="471.9773" y="470.8463">creator</text><line style="stroke:#181818;stroke-width:0.5;" x1="432.51" x2="533.4397" y1="478.7994" y2="478.7994"/><line style="stroke:#181818;stroke-width:0.5;" x1="432.51" x2="533.4397" y1="486.7994" y2="486.7994"/></g><!--class abc6a6767a60488754aace2accb73824_field_65672--><g class="entity" data-qualified-name="ContractAutomotive.abc6a6767a60488754aace2accb73824_field_65672" data-source-line="11" id="ent0040"><rect fill="#FFFFFF" height="56.6211" rx="2.5" ry="2.5" style="stroke:#181818;stroke-width:0.5;" width="124.4043" x="420.77" y="346.1783"/><ellipse cx="435.77" cy="366.4888" fill="#DDFFAA" rx="11" ry="11" style="stroke:#181818;stroke-width:1;"/><path d="M439.5005,362.754 L434.2295,362.754 L434.2295,365.4268 L439.0273,365.4268 L439.0273,367.585 L434.2295,367.585 L434.2295,372.9888 L431.7807,372.9888 L431.7807,360.5958 L439.5005,360.5958 Z " fill="#000000"/><text fill="#000000" font-family="sans-serif" font-size="12" font-style="italic" lengthAdjust="spacing" textLength="96.4043" x="447.77" y="362.7798">&#171;DateTimeType&#187;</text><text fill="#000000" font-family="sans-serif" font-size="14" lengthAdjust="spacing" textLength="65.1738" x="463.3852" y="378.8463">createdAt</text><line style="stroke:#181818;stroke-width:0.5;" x1="421.77" x2="544.1743" y1="386.7994" y2="386.7994"/><line style="stroke:#181818;stroke-width:0.5;" x1="421.77" x2="544.1743" y1="394.7994" y2="394.7994"/></g><!--class abc6a6767a60488754aace2accb73824_field_1fa32--><g class="entity" data-qualified-name="ContractAutomotive.abc6a6767a60488754aace2accb73824_field_1fa32" data-source-line="11" id="ent0042"><rect fill="#FFFFFF" height="56.6211" rx="2.5" ry="2.5" style="stroke:#181818;stroke-width:0.5;" width="102.9297" x="431.51" y="254.1783"/><ellipse cx="446.51" cy="274.4888" fill="#DDFFAA" rx="11" ry="11" style="stroke:#181818;stroke-width:1;"/><path d="M450.2405,270.754 L444.9695,270.754 L444.9695,273.4268 L449.7673,273.4268 L449.7673,275.585 L444.9695,275.585 L444.9695,280.9888 L442.5207,280.9888 L442.5207,268.5958 L450.2405,268.5958 Z " fill="#000000"/><text fill="#000000" font-family="sans-serif" font-size="12" font-style="italic" lengthAdjust="spacing" textLength="74.9297" x="458.51" y="270.7798">&#171;StringType&#187;</text><text fill="#000000" font-family="sans-serif" font-size="14" lengthAdjust="spacing" textLength="57.251" x="467.3494" y="286.8463">modifier</text><line style="stroke:#181818;stroke-width:0.5;" x1="432.51" x2="533.4397" y1="294.7994" y2="294.7994"/><line style="stroke:#181818;stroke-width:0.5;" x1="432.51" x2="533.4397" y1="302.7994" y2="302.7994"/></g><!--class abc6a6767a60488754aace2accb73824_field_5cd66--><g class="entity" data-qualified-name="ContractAutomotive.abc6a6767a60488754aace2accb73824_field_5cd66" data-source-line="11" id="ent0044"><rect fill="#FFFFFF" height="56.6211" rx="2.5" ry="2.5" style="stroke:#181818;stroke-width:0.5;" width="124.4043" x="420.77" y="162.1783"/><ellipse cx="435.77" cy="182.4888" fill="#DDFFAA" rx="11" ry="11" style="stroke:#181818;stroke-width:1;"/><path d="M439.5005,178.754 L434.2295,178.754 L434.2295,181.4268 L439.0273,181.4268 L439.0273,183.585 L434.2295,183.585 L434.2295,188.9888 L431.7807,188.9888 L431.7807,176.5958 L439.5005,176.5958 Z " fill="#000000"/><text fill="#000000" font-family="sans-serif" font-size="12" font-style="italic" lengthAdjust="spacing" textLength="96.4043" x="447.77" y="178.7798">&#171;DateTimeType&#187;</text><text fill="#000000" font-family="sans-serif" font-size="14" lengthAdjust="spacing" textLength="75.2295" x="458.3574" y="194.8463">modifiedAt</text><line style="stroke:#181818;stroke-width:0.5;" x1="421.77" x2="544.1743" y1="202.7994" y2="202.7994"/><line style="stroke:#181818;stroke-width:0.5;" x1="421.77" x2="544.1743" y1="210.7994" y2="210.7994"/></g><!--class abc6a6767a60488754aace2accb73824_group_4c9a1--><g class="entity" data-qualified-name="ContractAutomotive.abc6a6767a60488754aace2accb73824_group_4c9a1" data-source-line="3" id="ent0046"><rect fill="#F1F1F1" height="48" rx="2.5" ry="2.5" style="stroke:#181818;stroke-width:0.5;" width="105.7188" x="430.12" y="79.4883"/><ellipse cx="445.12" cy="95.4883" fill="#DDAAFF" rx="11" ry="11" style="stroke:#181818;stroke-width:1;"/><path d="M446.3583,99.7471 L446.3583,97.3813 L444.6815,97.3813 L444.6815,95.3228 L448.4999,95.3228 L448.4999,101.0005 Q447.7943,101.6064 446.9435,101.9177 Q446.0927,102.229 445.1215,102.229 Q442.7142,102.229 441.4027,100.5564 Q440.0912,98.8838 440.0912,95.8042 Q440.0912,92.6748 441.4152,91.0229 Q442.7391,89.3711 445.2377,89.3711 Q445.9847,89.3711 446.7069,89.5828 Q447.4291,89.7944 448.0599,90.1929 L448.0599,92.9072 Q447.5453,92.2432 446.8771,91.907 Q446.2089,91.5708 445.412,91.5708 Q444.0175,91.5708 443.3285,92.6208 Q442.6395,93.6709 442.6395,95.8042 Q442.6395,97.8711 443.3036,98.9502 Q443.9677,100.0293 445.2377,100.0293 Q445.6195,100.0293 445.9017,99.9587 Q446.184,99.8882 446.3583,99.7471 Z " fill="#000000"/><text fill="#000000" font-family="sans-serif" font-size="14" lengthAdjust="spacing" textLength="73.7188" x="459.12" y="100.7793">extensions</text><line style="stroke:#181818;stroke-width:0.5;" x1="431.12" x2="534.8388" y1="111.4883" y2="111.4883"/><line style="stroke:#181818;stroke-width:0.5;" x1="431.12" x2="534.8388" y1="119.4883" y2="119.4883"/></g><!--link group_a9838 to field_770f2--><g class="link" data-entity-1="ent0003" data-entity-2="ent0004" data-link-type="association" data-source-line="82" id="lnk5"><path codeLine="82" d="M265.03,1262.8983 C289.78,1357.9983 378.37,1698.4883 378.37,1698.4883 C378.37,1698.4883 396.81,1706.6783 418.13,1716.1383" fill="none" id="group_a9838-field_770f2" style="stroke:#181818;stroke-width:1;"/></g><!--link group_a9838 to field_770f3--><g class="link" data-entity-1="ent0003" data-entity-2="ent0006" data-link-type="association" data-source-line="84" id="lnk7"><path codeLine="84" d="M266.63,1262.9183 C293.36,1345.1083 378.37,1606.4883 378.37,1606.4883 C378.37,1606.4883 396.3,1614.4483 417.24,1623.7483" fill="none" id="group_a9838-field_770f3" style="stroke:#181818;stroke-width:1;"/></g><!--link group_a9838 to field_828da--><g class="link" data-entity-1="ent0003" data-entity-2="ent0008" data-link-type="association" data-source-line="86" id="lnk9"><path codeLine="86" d="M269.3,1262.9783 C298.6,1330.5283 378.37,1514.4883 378.37,1514.4883 C378.37,1514.4883 396.3,1522.4483 417.24,1531.7483" fill="none" id="group_a9838-field_828da" style="stroke:#181818;stroke-width:1;"/></g><!--link group_a9838 to field_29708--><g class="link" data-entity-1="ent0003" data-entity-2="ent0010" data-link-type="association" data-source-line="88" id="lnk11"><path codeLine="88" d="M274.58,1262.9183 C307.13,1312.9783 378.37,1422.4883 378.37,1422.4883 C378.37,1422.4883 397.32,1430.9083 419.02,1440.5383" fill="none" id="group_a9838-field_29708" style="stroke:#181818;stroke-width:1;"/></g><!--link group_a9838 to field_edb7e--><g class="link" data-entity-1="ent0003" data-entity-2="ent0012" data-link-type="association" data-source-line="90" id="lnk13"><path codeLine="90" d="M290.44,1262.8983 C325.9,1290.1583 378.37,1330.4883 378.37,1330.4883 C378.37,1330.4883 400.94,1340.5083 425.02,1351.1983" fill="none" id="group_a9838-field_edb7e" style="stroke:#181818;stroke-width:1;"/></g><!--link group_a9838 to field_502f7--><g class="link" data-entity-1="ent0003" data-entity-2="ent0014" data-link-type="association" data-source-line="92" id="lnk15"><path codeLine="92" d="M318.82,1250.8783 C346.85,1256.6483 380.42,1263.5683 409.81,1269.6183" fill="none" id="group_a9838-field_502f7" style="stroke:#181818;stroke-width:1;"/></g><!--link group_a9838 to field_f8187--><g class="link" data-entity-1="ent0003" data-entity-2="ent0016" data-link-type="association" data-source-line="94" id="lnk17"><path codeLine="94" d="M318.82,1226.0983 C337.16,1222.3183 357.88,1218.0583 378.24,1213.8583" fill="none" id="group_a9838-field_f8187" style="stroke:#181818;stroke-width:1;"/></g><!--link group_a9838 to field_c472d--><g class="link" data-entity-1="ent0003" data-entity-2="ent0018" data-link-type="association" data-source-line="96" id="lnk19"><path codeLine="96" d="M290.44,1214.0783 C325.9,1186.8183 378.37,1146.4883 378.37,1146.4883 C378.37,1146.4883 399.27,1137.2083 422.31,1126.9783" fill="none" id="group_a9838-field_c472d" style="stroke:#181818;stroke-width:1;"/></g><!--link group_a9838 to field_24959--><g class="link" data-entity-1="ent0003" data-entity-2="ent0020" data-link-type="association" data-source-line="98" id="lnk21"><path codeLine="98" d="M274.58,1214.0583 C307.13,1163.9983 378.37,1054.4883 378.37,1054.4883 C378.37,1054.4883 396.3,1046.5283 417.24,1037.2283" fill="none" id="group_a9838-field_24959" style="stroke:#181818;stroke-width:1;"/></g><!--link group_a9838 to field_a09a6--><g class="link" data-entity-1="ent0003" data-entity-2="ent0022" data-link-type="association" data-source-line="100" id="lnk23"><path codeLine="100" d="M269.3,1213.9983 C298.6,1146.4483 378.37,962.4883 378.37,962.4883 C378.37,962.4883 401.13,952.3783 425.32,941.6383" fill="none" id="group_a9838-field_a09a6" style="stroke:#181818;stroke-width:1;"/></g><!--link group_a6546 to field_ad236--><g class="link" data-entity-1="ent0024" data-entity-2="ent0025" data-link-type="association" data-source-line="103" id="lnk26"><path codeLine="103" d="M510.66,835.2183 C544.73,842.5383 604.41,855.3683 647.27,864.5783" fill="none" id="group_a6546-field_ad236" style="stroke:#181818;stroke-width:1;"/></g><!--link group_a6546 to field_236ad--><g class="link" data-entity-1="ent0024" data-entity-2="ent0027" data-link-type="association" data-source-line="105" id="lnk28"><path codeLine="105" d="M510.66,823.7583 C544.73,816.4383 604.41,803.6083 647.27,794.3983" fill="none" id="group_a6546-field_236ad" style="stroke:#181818;stroke-width:1;"/></g><!--link group_a9838 to group_a6546--><g class="link" data-entity-1="ent0003" data-entity-2="ent0024" data-link-type="association" data-source-line="107" id="lnk29"><path codeLine="107" d="M269.1042,1206.4505 C295.8342,1124.2605 378.37,870.4883 378.37,870.4883 C378.37,870.4883 410.381,857.8143 441.081,845.6743" fill="none" id="group_a9838-group_a6546" style="stroke:#181818;stroke-width:1;"/><line style="stroke:#181818;stroke-width:1;" x1="271.671" x2="264.0632" y1="1211.4915" y2="1209.0173"/><line style="stroke:#181818;stroke-width:1;" x1="272.5988" x2="264.9911" y1="1208.6386" y2="1206.1644"/><line style="stroke:#181818;stroke-width:1;" x1="269.1042" x2="266.63" y1="1206.4505" y2="1214.0583"/><line style="stroke:#181818;stroke-width:1;" x1="444.8008" x2="455.03" y1="844.2033" y2="840.1583"/><ellipse cx="444.8008" cy="844.2033" fill="none" rx="4" ry="4" style="stroke:#181818;stroke-width:1;"/><line style="stroke:#181818;stroke-width:1;" x1="449.8393" x2="452.7812" y1="837.9095" y2="845.3489"/><text fill="#000000" font-family="sans-serif" font-size="13" lengthAdjust="spacing" textLength="24.667" x="422.8605" y="856.5062">0..1</text></g><!--link ContractAutomotiveDocumentRoot to group_a9838--><g class="link" data-entity-1="ent0002" data-entity-2="ent0003" data-link-type="association" data-source-line="109" id="lnk30"><path codeLine="109" d="M87.987,845.759 C109.487,895.819 206.289,1121.1763 240.259,1200.2463" fill="none" id="ContractAutomotiveDocumentRoot-group_a9838" style="stroke:#181818;stroke-width:1;"/><line style="stroke:#181818;stroke-width:1;" x1="82.7331" x2="90.0839" y1="843.6622" y2="840.5051"/><line style="stroke:#181818;stroke-width:1;" x1="83.917" x2="91.2678" y1="846.4187" y2="843.2617"/><line style="stroke:#181818;stroke-width:1;" x1="87.987" x2="84.83" y1="845.759" y2="838.4083"/><line style="stroke:#181818;stroke-width:1;" x1="241.8379" x2="246.18" y1="1203.9215" y2="1214.0283"/><ellipse cx="241.8379" cy="1203.9215" fill="none" rx="4" ry="4" style="stroke:#181818;stroke-width:1;"/><line style="stroke:#181818;stroke-width:1;" x1="248.2763" x2="240.9259" y1="1208.7742" y2="1211.932"/><text fill="#000000" font-family="sans-serif" font-size="13" lengthAdjust="spacing" textLength="24.667" x="216.5324" y="1203.8442">0..1</text></g><!--link abc6a6767a60488754aace2accb73824_group_8f4b1 to abc6a6767a60488754aace2accb73824_field_1169c--><g class="link" data-entity-1="ent0031" data-entity-2="ent0032" data-link-type="association" data-source-line="113" id="lnk33"><path codeLine="113" d="M271.27,490.6683 C301.99,549.7183 378.37,696.4883 378.37,696.4883 C378.37,696.4883 404.88,708.2583 431.08,719.8883" fill="none" id="abc6a6767a60488754aace2accb73824_group_8f4b1-abc6a6767a60488754aace2accb73824_field_1169c" style="stroke:#181818;stroke-width:1;"/></g><!--link abc6a6767a60488754aace2accb73824_group_8f4b1 to abc6a6767a60488754aace2accb73824_field_cfb40--><g class="link" data-entity-1="ent0031" data-entity-2="ent0034" data-link-type="association" data-source-line="115" id="lnk35"><path codeLine="115" d="M279.8,490.8383 C314.16,530.4583 378.37,604.4883 378.37,604.4883 C378.37,604.4883 396.3,612.4483 417.24,621.7483" fill="none" id="abc6a6767a60488754aace2accb73824_group_8f4b1-abc6a6767a60488754aace2accb73824_field_cfb40" style="stroke:#181818;stroke-width:1;"/></g><!--link abc6a6767a60488754aace2accb73824_group_8f4b1 to abc6a6767a60488754aace2accb73824_field_17e3b--><g class="link" data-entity-1="ent0031" data-entity-2="ent0036" data-link-type="association" data-source-line="117" id="lnk37"><path codeLine="117" d="M298.09,482.7283 C331.77,496.5983 380.82,516.8083 419.79,532.8683" fill="none" id="abc6a6767a60488754aace2accb73824_group_8f4b1-abc6a6767a60488754aace2accb73824_field_17e3b" style="stroke:#181818;stroke-width:1;"/></g><!--link abc6a6767a60488754aace2accb73824_group_8f4b1 to abc6a6767a60488754aace2accb73824_field_cdaf9--><g class="link" data-entity-1="ent0031" data-entity-2="ent0038" data-link-type="association" data-source-line="119" id="lnk39"><path codeLine="119" d="M298.09,466.4883 C335.15,466.4883 390.82,466.4883 431.19,466.4883" fill="none" id="abc6a6767a60488754aace2accb73824_group_8f4b1-abc6a6767a60488754aace2accb73824_field_cdaf9" style="stroke:#181818;stroke-width:1;"/></g><!--link abc6a6767a60488754aace2accb73824_group_8f4b1 to abc6a6767a60488754aace2accb73824_field_65672--><g class="link" data-entity-1="ent0031" data-entity-2="ent0040" data-link-type="association" data-source-line="121" id="lnk41"><path codeLine="121" d="M298.09,450.2483 C332.02,436.2683 381.55,415.8683 420.66,399.7483" fill="none" id="abc6a6767a60488754aace2accb73824_group_8f4b1-abc6a6767a60488754aace2accb73824_field_65672" style="stroke:#181818;stroke-width:1;"/></g><!--link abc6a6767a60488754aace2accb73824_group_8f4b1 to abc6a6767a60488754aace2accb73824_field_1fa32--><g class="link" data-entity-1="ent0031" data-entity-2="ent0042" data-link-type="association" data-source-line="123" id="lnk43"><path codeLine="123" d="M279.8,442.1383 C314.16,402.5183 378.37,328.4883 378.37,328.4883 C378.37,328.4883 404.88,316.7183 431.08,305.0883" fill="none" id="abc6a6767a60488754aace2accb73824_group_8f4b1-abc6a6767a60488754aace2accb73824_field_1fa32" style="stroke:#181818;stroke-width:1;"/></g><!--link abc6a6767a60488754aace2accb73824_group_8f4b1 to abc6a6767a60488754aace2accb73824_field_5cd66--><g class="link" data-entity-1="ent0031" data-entity-2="ent0044" data-link-type="association" data-source-line="125" id="lnk45"><path codeLine="125" d="M271.27,442.3083 C301.99,383.2583 378.37,236.4883 378.37,236.4883 C378.37,236.4883 398.2,227.6883 420.51,217.7783" fill="none" id="abc6a6767a60488754aace2accb73824_group_8f4b1-abc6a6767a60488754aace2accb73824_field_5cd66" style="stroke:#181818;stroke-width:1;"/></g><!--link abc6a6767a60488754aace2accb73824_group_8f4b1 to abc6a6767a60488754aace2accb73824_group_4c9a1--><g class="link" data-entity-1="ent0031" data-entity-2="ent0046" data-link-type="association" data-source-line="128" id="lnk47"><path codeLine="128" d="M270.5673,434.5196 C298.4973,359.3796 378.37,144.4883 378.37,144.4883 C378.37,144.4883 390.1224,139.8378 415.9224,129.6278" fill="none" id="abc6a6767a60488754aace2accb73824_group_8f4b1-abc6a6767a60488754aace2accb73824_group_4c9a1" style="stroke:#181818;stroke-width:1;"/><line style="stroke:#181818;stroke-width:1;" x1="272.923" x2="265.4243" y1="439.6626" y2="436.8753"/><line style="stroke:#181818;stroke-width:1;" x1="273.9683" x2="266.4695" y1="436.8506" y2="434.0632"/><line style="stroke:#181818;stroke-width:1;" x1="270.5673" x2="267.78" y1="434.5196" y2="442.0183"/><line style="stroke:#181818;stroke-width:1;" x1="419.6418" x2="429.87" y1="128.156" y2="124.1083"/><ellipse cx="419.6418" cy="128.156" fill="none" rx="4" ry="4" style="stroke:#181818;stroke-width:1;"/><line style="stroke:#181818;stroke-width:1;" x1="424.6788" x2="427.6225" y1="121.8608" y2="129.2995"/><text fill="#000000" font-family="sans-serif" font-size="13" lengthAdjust="spacing" textLength="24.667" x="397.5706" y="140.2994">0..1</text></g><!--link ContractAutomotiveDocumentRoot to abc6a6767a60488754aace2accb73824_group_8f4b1--><g class="link" data-entity-1="ent0002" data-entity-2="ent0031" data-link-type="association" data-source-line="130" id="lnk48"><path codeLine="130" d="M88.8256,813.3176 C111.1556,767.1876 203.2862,576.8205 238.3162,504.4305" fill="none" id="ContractAutomotiveDocumentRoot-abc6a6767a60488754aace2accb73824_group_8f4b1" style="stroke:#181818;stroke-width:1;"/><line style="stroke:#181818;stroke-width:1;" x1="90.6832" x2="83.4825" y1="818.6607" y2="815.1751"/><line style="stroke:#181818;stroke-width:1;" x1="91.9903" x2="84.7896" y1="815.9605" y2="812.4748"/><line style="stroke:#181818;stroke-width:1;" x1="88.8256" x2="85.34" y1="813.3176" y2="820.5183"/><line style="stroke:#181818;stroke-width:1;" x1="240.0585" x2="244.85" y1="500.8299" y2="490.9283"/><ellipse cx="240.0585" cy="500.8299" fill="none" rx="4" ry="4" style="stroke:#181818;stroke-width:1;"/><line style="stroke:#181818;stroke-width:1;" x1="239.5071" x2="246.7082" y1="492.7865" y2="496.2712"/><text fill="#000000" font-family="sans-serif" font-size="13" lengthAdjust="spacing" textLength="24.667" x="215.1854" y="510.9187">0..1</text></g><?plantuml-src lLLXJ-Cu4FrCVeLRa9PAq6lJDaahhbAXP8K4BEBGteVJ2Rds12oIk7ASEz1n_trjPziuBPJafEDBczXlthnvOqzQIy49q5m0UX0yNnu-TnmIuon3p-Za11r-FTgVpsUpCEoWwTHfGKhN0OxJAeC9JRwkubT4I8MUduVXZh28GKmtSuOwPnZEPZedsl_zaKdOmG790YW56Xgk52TmXEJBKlqQzZlrs77qiYBNwzFffDpPmIlo63QbtMfffwShQM6eAwoXxLPpbT8wpia2awT94J_L6uUTjRoJN_Jcj3dj4Je08RWuuobbal6qutIxg98ALOn0FrEXRhUgg4epMS4sw7UT1vuiSuarQjF3iqqFpy_dytfKirY2IDNZNt1um9SWpAegUoc0L8h69L8NjyPEK1dds56JAaaDyy-i4Yizs2biPRCkkaOt3AnKlsv4MKG5MQbe3QvP6EKaJo2LcmsR7-tFPhfbHSDk-DyKn6cSmtys2NMgiXjVW9YbJ_Dtv5uMSekHfUG29eytUHHzGFV6-AeJAY2-LD671wQw0v5SqAC3pTSl_bprHtzjjvL69aWCo00Hpf31sacAXIBOVd6T5elK8sqfdfyRnt_iNwYEulGMw9-2FJnA3PWe0snhrCYkEAKW7LCBsoefUsBf4WkSQ3F0D6d9unVzuiGGIIGvAl9GfewJEKgEP59LjA97Lvn2ZDHua08JESibJxY-WOwpLFt43u3QsvjjxSNsigeaL6hqjVZ7sLE7exqwdhUSotU2vXR4sIiQ-MMTSnreDkxnE1W4NphENl4HAd7NAgt1cOrxt-z5hfBpcnGiVRWp9rI7MIpe-DW6RrFE8IE2BRLh6yo39io3alaIqWVv-2rQPR1e0pUWMD5Uv-eIYWze3NXRy7UixhV5wOxzNb2Nqu0jgGmlMCpaYyK7TE53NJu3jZLcyewVvPbgEmYBTDHp8xykgG6NfDTSUtcHPkesq1LtPf57GJ-eJMx09VaLVfwpZF0yjVj4XhvBwxRVWAiUt81OAxPRDHoFnhLRfS4bhMexixbmRumznNNAUGmu_O3CeArxXuLztRpHqBElsnL-iayOfkx0UzyD7Mrbqc2BIWyUsuA1XsbTBWDsgYMzlXuVyrVKxdMx_RPTWCBj7ZjlXsfIftJc_Zu1YOrWl20UzdpFnrvl60J-Q8Wn0HSJil07WJkyBnY2QBZes-wfQNWBKJsAeiv-tnkJDqnfea2xrYHTgJVHBLAAGK1Ae8bk4Ys6lS_JRT9jwFwkHi5gTDSjtuV1uXFTrkbArKG0bbmqifdYQFo9Dkjq6uA1pcGJoTx8y_MNUQv2xrW2_xjeax1oDfXwRcHpFy83znFFXKwtfRYXpoD2FUypVJO9ot49pn9IVG6p9YDpICPOZyo6Aglpkqckfj-69h8SvzyV?></g></svg>